<svg width="44" height="44" viewBox="0 0 44 44" fill="none" xmlns="http://www.w3.org/2000/svg">
<mask id="mask0" mask-type="alpha" maskUnits="userSpaceOnUse" x="2" y="12" width="40" height="20">
<path d="M42 32C42 26.696 39.8929 21.609 36.1421 17.858C32.3914 14.107 27.3043 12 22 12C16.6957 12 11.6086 14.107 7.8579 17.858C4.1071 21.609 2 26.696 2 32H22H42Z" fill="white"/>
</mask>
<g mask="url(#mask0)">
<path d="M42 32C42 26.696 39.8929 21.609 36.1421 17.858C32.3914 14.107 27.3043 12 22 12C16.6957 12 11.6086 14.107 7.8579 17.858C4.1071 21.609 2 26.696 2 32H22H42Z" stroke="#A5A7B8" stroke-width="6"/>
</g>
<path fill-rule="evenodd" clip-rule="evenodd" d="M22 3C22 3.552 22.4477 4 23 4C23.5523 4 24 3.552 24 3C24 2.448 23.5523 2 23 2C22.4477 2 22 2.448 22 3ZM18 3C18 3.552 18.4477 4 19 4C19.5523 4 20 3.552 20 3C20 2.448 19.5523 2 19 2C18.4477 2 18 2.448 18 3ZM15 4C14.4477 4 14 3.552 14 3C14 2.448 14.4477 2 15 2C15.5523 2 16 2.448 16 3C16 3.552 15.5523 4 15 4ZM10 3C10 3.552 10.4477 4 11 4C11.5523 4 12 3.552 12 3C12 2.448 11.5523 2 11 2C10.4477 2 10 2.448 10 3ZM23 10C22.4477 10 22 9.552 22 9C22 8.448 22.4477 8 23 8C23.5523 8 24 8.448 24 9C24 9.552 23.5523 10 23 10ZM18 9C18 9.552 18.4477 10 19 10C19.5523 10 20 9.552 20 9C20 8.448 19.5523 8 19 8C18.4477 8 18 8.448 18 9ZM15 10C14.4477 10 14 9.552 14 9C14 8.448 14.4477 8 15 8C15.5523 8 16 8.448 16 9C16 9.552 15.5523 10 15 10ZM10 9C10 9.552 10.4477 10 11 10C11.5523 10 12 9.552 12 9C12 8.448 11.5523 8 11 8C10.4477 8 10 8.448 10 9Z" fill="#FE5E00"/>
<path d="M41.667 4.09397C41.9892 3.80597 42.5 4.03499 42.5 4.46699V23C42.5 23.276 42.2761 23.5 42 23.5H21.2429C20.7837 23.5 20.5674 22.933 20.9099 22.627L41.667 4.09397Z" stroke="#FE5E00" stroke-width="3"/>
<path d="M12 19.5C15.0376 19.5 17.5 17.0376 17.5 14C17.5 10.9624 15.0376 8.5 12 8.5C8.96243 8.5 6.5 10.9624 6.5 14C6.5 17.0376 8.96243 19.5 12 19.5Z" stroke="#5879DA" stroke-width="3"/>
</svg>
