<svg width="44" height="44" viewBox="0 0 44 44" fill="none" xmlns="http://www.w3.org/2000/svg">
<path fill-rule="evenodd" clip-rule="evenodd" d="M44 22C44 34.1503 34.1503 44 22 44C9.84974 44 0 34.1503 0 22C0 9.84974 9.84974 0 22 0C34.1503 0 44 9.84974 44 22ZM20 11C20 9.89543 20.8954 9 22 9C23.1046 9 24 9.89543 24 11V20.1716L31.9075 28.079C32.6885 28.8601 32.6885 30.1264 31.9075 30.9075C31.1264 31.6885 29.8601 31.6885 29.079 30.9075L20.5937 22.4222C20.5923 22.4208 20.5909 22.4193 20.5895 22.4179C20.2254 22.0557 20 21.5542 20 21V11Z" fill="#DEAD89"/>
</svg>
