<svg width="72" height="72" viewBox="0 0 72 72" fill="none" xmlns="http://www.w3.org/2000/svg">
<path fill-rule="evenodd" clip-rule="evenodd" d="M36 72C55.8823 72 72 55.8823 72 36C72 16.1177 55.8823 0 36 0C16.1177 0 0 16.1177 0 36C0 55.8823 16.1177 72 36 72ZM23.4853 32.8284C21.9232 31.2663 19.3905 31.2663 17.8284 32.8284C16.2663 34.3905 16.2663 36.9232 17.8284 38.4853C19.3905 40.0474 21.9232 40.0474 23.4853 38.4853C25.0474 36.9232 25.0474 34.3905 23.4853 32.8284ZM32.8284 32.8284C34.3905 31.2663 36.9232 31.2663 38.4853 32.8284C40.0474 34.3905 40.0474 36.9232 38.4853 38.4853C36.9232 40.0474 34.3905 40.0474 32.8284 38.4853C31.2663 36.9232 31.2663 34.3905 32.8284 32.8284ZM53.4853 32.8284C51.9232 31.2663 49.3905 31.2663 47.8284 32.8284C46.2663 34.3905 46.2663 36.9232 47.8284 38.4853C49.3905 40.0474 51.9232 40.0474 53.4853 38.4853C55.0474 36.9232 55.0474 34.3905 53.4853 32.8284Z" fill="#DEAD89"/>
</svg>
