<svg width="72" height="72" viewBox="0 0 72 72" fill="none" xmlns="http://www.w3.org/2000/svg">
<path fill-rule="evenodd" clip-rule="evenodd" d="M72 36C72 55.8823 55.8823 72 36 72C16.1177 72 0 55.8823 0 36C0 16.1177 16.1177 0 36 0C55.8823 0 72 16.1177 72 36ZM38.8284 44.8284C40.3905 46.3905 40.3905 48.9232 38.8284 50.4853C37.2663 52.0474 34.7337 52.0474 33.1716 50.4853C31.6095 48.9232 31.6095 46.3905 33.1716 44.8284C34.7337 43.2663 37.2663 43.2663 38.8284 44.8284ZM36 18C34.3431 18 33 19.3431 33 21V36C33 37.6569 34.3431 39 36 39C37.6569 39 39 37.6569 39 36V21C39 19.3431 37.6569 18 36 18Z" fill="#EC5252"/>
</svg>
