<svg width="72" height="72" viewBox="0 0 72 72" fill="none" xmlns="http://www.w3.org/2000/svg">
<path fill-rule="evenodd" clip-rule="evenodd" d="M72 36C72 55.8823 55.8823 72 36 72C16.1177 72 0 55.8823 0 36C0 16.1177 16.1177 0 36 0C55.8823 0 72 16.1177 72 36ZM45.7488 26.1213C46.9204 24.9497 48.8199 24.9497 49.9914 26.1213C51.163 27.2929 51.163 29.1924 49.9914 30.364L34.26 46.0954C34.1445 46.2767 34.0075 46.4483 33.8492 46.6066C33.3323 47.1236 32.6735 47.4124 31.9982 47.4732C31.1084 47.587 30.1773 47.3023 29.4939 46.6189C29.3169 46.4419 29.1667 46.2483 29.0432 46.0432L21.1213 38.1213C19.9497 36.9497 19.9497 35.0503 21.1213 33.8787C22.2929 32.7071 24.1924 32.7071 25.364 33.8787L31.6777 40.1924L45.7488 26.1213Z" fill="#13CF5E"/>
</svg>
