<svg width="44" height="44" viewBox="0 0 44 44" fill="none" xmlns="http://www.w3.org/2000/svg">
<path fill-rule="evenodd" clip-rule="evenodd" d="M22 44C34.1503 44 44 34.1503 44 22C44 9.84974 34.1503 0 22 0C9.84974 0 0 9.84974 0 22C0 34.1503 9.84974 44 22 44ZM9.8698 13.9376L20.3739 6.74277C21.0321 6.29192 21.8954 6.2754 22.5704 6.70076L34.0663 13.9449C34.6474 14.3112 35 14.9501 35 15.637V22.1975C35 26.088 33.1139 29.7371 29.9401 31.9871L23.8708 36.2898C22.4371 37.3061 20.508 37.2677 19.1159 36.195L13.6755 32.0028C10.7272 29.7309 9 26.2195 9 22.4974V15.5876C9 14.9278 9.32544 14.3104 9.8698 13.9376ZM15.9896 20.3536C15.4038 20.9394 15.4038 21.8892 15.9896 22.475L19.5252 26.0105C19.5858 26.0711 19.6503 26.1255 19.718 26.1736C20.3037 26.5901 21.1214 26.5357 21.6465 26.0105L28.0105 19.6466C28.5963 19.0608 28.5963 18.111 28.0105 17.5253C27.4247 16.9395 26.475 16.9395 25.8892 17.5253L20.5859 22.8286L18.1109 20.3536C17.5251 19.7679 16.5754 19.7679 15.9896 20.3536Z" fill="#F5E3A8"/>
</svg>
