<svg width="177" height="28" viewBox="0 0 177 28" fill="none" xmlns="http://www.w3.org/2000/svg">
<path d="M5.20594 7.17976L2.99949 5.23766L5.31168 2.96073L7.28197 5.13192C7.68134 4.82822 8.10053 4.55151 8.53675 4.30362L7.25377 1.68127L10.2744 0.447634L11.2508 3.19688C11.7385 3.06804 12.2342 2.97149 12.7346 2.90785L12.569 0H15.8399L15.6601 2.90785C16.1605 2.97167 16.6562 3.06822 17.144 3.19688L18.1203 0.447634L21.141 1.68127L19.8897 4.30362C20.3258 4.55173 20.745 4.82843 21.1445 5.13192L23.1148 2.96073L25.427 5.23766L23.2205 7.17976C23.5288 7.57275 23.8103 7.98607 24.0629 8.41692L26.7276 7.15509L27.9788 10.1299L25.1767 11.0921C25.3066 11.5715 25.4044 12.059 25.4693 12.5514L28.423 12.3892V15.6108L25.4693 15.4486C25.4047 15.9411 25.3069 16.4286 25.1767 16.9079L27.9683 17.8701L26.717 20.8449L24.0524 19.5831C23.7994 20.0137 23.518 20.427 23.21 20.8202L25.4164 22.7623L23.1042 25.0393L21.1339 22.8681C20.7344 23.1716 20.3152 23.4483 19.8792 23.6964L21.1621 26.3187L18.1415 27.5524L17.1652 24.8031C16.6774 24.9318 16.1817 25.0284 15.6813 25.0921L15.8469 28H12.576L12.7417 25.0921C12.2413 25.0282 11.7456 24.9317 11.2578 24.8031L10.2815 27.5524L7.26082 26.3187L8.5438 23.6964C8.10771 23.4483 7.68853 23.1716 7.28902 22.8681L5.31873 25.0393L3.00655 22.7623L5.21299 20.8202C4.90483 20.4272 4.6234 20.0138 4.37059 19.5831L1.70594 20.8449L0.45468 17.8701L3.24622 16.9079C3.11573 16.4286 3.01799 15.9411 2.95367 15.4486L0 15.6108V12.3857L2.95367 12.5478C3.01798 12.0554 3.11572 11.5678 3.24622 11.0886L0.45468 10.1264L1.70594 7.15156L4.38117 8.41692C4.62843 7.98675 4.90396 7.57345 5.20594 7.17976ZM7.32074 13.9965C7.29976 15.3629 7.68578 16.7048 8.42969 17.8512C9.1736 18.9976 10.2418 19.8968 11.4982 20.4343C12.7547 20.9718 14.1427 21.1234 15.4856 20.8697C16.8285 20.616 18.0655 19.9686 19.0393 19.0097C20.0131 18.0509 20.6796 16.824 20.9541 15.4852C21.2285 14.1464 21.0984 12.7562 20.5804 11.4916C20.0624 10.227 19.1798 9.14501 18.045 8.38346C16.9103 7.6219 15.5746 7.21517 14.208 7.215C13.3104 7.20803 12.4204 7.37792 11.5885 7.71495C10.7567 8.05198 9.99934 8.54957 9.3598 9.17929C8.72026 9.80901 8.21102 10.5585 7.86116 11.3851C7.51129 12.2116 7.32766 13.099 7.32074 13.9965ZM164.447 6.73565L175.374 17.5529V7.29607H176.935V21.1339L166.009 10.3343V20.5383H164.447V6.73565ZM145.368 13.9119C145.368 16.8973 147.93 19.3892 151.11 19.3892C154.289 19.3892 156.848 16.8973 156.848 13.9119C156.848 10.9265 154.321 8.43102 151.11 8.43102C147.899 8.43102 145.368 10.9124 145.368 13.9119ZM158.409 13.9295C158.409 17.7397 155.103 20.7603 151.11 20.7603C147.116 20.7603 143.81 17.7397 143.81 13.9295C143.81 10.1193 147.116 7.06344 151.11 7.06344C155.103 7.06344 158.409 10.1405 158.409 13.933V13.9295ZM137.282 9.87613C136.726 8.96324 136.056 8.43454 134.868 8.43454C133.624 8.43454 132.545 9.27694 132.545 10.4894C132.545 11.6314 133.79 12.1566 134.738 12.5619L135.668 12.9496C137.49 13.7039 139.031 14.5639 139.031 16.6717C139.031 18.9909 137.06 20.7638 134.628 20.7638C132.38 20.7638 130.709 19.3927 130.265 17.3379L131.788 16.9325C131.874 17.6177 132.209 18.2474 132.728 18.7022C133.248 19.157 133.917 19.4052 134.607 19.3998C136.112 19.3998 137.487 18.3107 137.487 16.8197C137.487 15.3288 136.204 14.7472 134.903 14.1868L134.05 13.8343C132.415 13.1294 131.005 12.3434 131.005 10.4471C131.005 8.39225 132.845 7.07402 134.924 7.07402C135.658 7.05698 136.382 7.23907 137.02 7.60092C137.658 7.96276 138.186 8.49082 138.548 9.1289L137.282 9.87613ZM119.162 13.4255H119.638C121.4 13.4255 123.184 13.1083 123.184 11.0534C123.184 8.87512 121.492 8.66365 119.617 8.66365H119.152L119.162 13.4255ZM119.162 20.5383H117.601V7.29607H119.638C122.296 7.29607 124.763 7.96223 124.763 10.9476C124.763 12.9849 123.406 14.423 121.238 14.5992L125.7 20.5383H123.786L119.557 14.7261H119.166L119.162 20.5383ZM104.284 7.29607H111.531V8.66365H105.842V12.6007H111.376V13.9718H105.842V19.1707H111.531V20.5418H104.284V7.29607ZM93.0055 13.3726H94.0629C95.79 13.3726 97.2563 12.8792 97.2563 10.9829C97.2563 8.82226 95.4164 8.66365 93.5977 8.66365H93.0232L93.0055 13.3726ZM93.0055 20.5383H91.4406V7.29607H93.7457C94.9512 7.29607 96.213 7.33132 97.2175 8.00101C97.7108 8.33388 98.1134 8.7843 98.389 9.31164C98.6647 9.83898 98.8048 10.4267 98.7966 11.0217C98.8012 11.5656 98.6836 12.1035 98.4524 12.5959C98.2211 13.0882 97.8822 13.5223 97.4607 13.8661C96.5126 14.6027 95.3071 14.7437 94.137 14.7437H93.002L93.0055 20.5383ZM80.1616 9.54481V12.4597H84.3348V14.7085H80.1616V18.2931H84.497V20.5418H77.5393V7.29607H84.497V9.54481H80.1616ZM66.641 15.1843L69.8449 7.31017H72.6647L66.6939 21.2749L60.7759 7.29607H63.5957L66.641 15.1843ZM55.9119 20.5418H53.2895V7.29607H55.9119V20.5418ZM44.5624 18.2931H48.2739V20.5418H41.9295V7.29607H44.5624V18.2931Z" fill="#FF6900"/>
</svg>
