<svg width="32" height="31" viewBox="0 0 32 31" fill="none" xmlns="http://www.w3.org/2000/svg">
<path d="M13.7374 7.15147C14.206 7.6201 14.206 8.3799 13.7374 8.84853L10.5859 12L13.7374 15.1515C14.206 15.6201 14.206 16.3799 13.7374 16.8485C13.2688 17.3172 12.509 17.3172 12.0403 16.8485L8.04034 12.8485C7.57171 12.3799 7.57171 11.6201 8.04034 11.1515L12.0403 7.15147C12.509 6.68284 13.2688 6.68284 13.7374 7.15147Z" fill="#292B33"/>
<path d="M17.3737 7.15149C17.8423 6.68286 18.6021 6.68286 19.0708 7.15149L23.0708 11.1515C23.5394 11.6201 23.5394 12.3799 23.0708 12.8486L19.0708 16.8486C18.6021 17.3172 17.8423 17.3172 17.3737 16.8486C16.9051 16.3799 16.9051 15.6201 17.3737 15.1515L20.5252 12L17.3737 8.84855C16.9051 8.37992 16.9051 7.62012 17.3737 7.15149Z" fill="#292B33"/>
<path fill-rule="evenodd" clip-rule="evenodd" d="M3.2 0C1.43269 0 0 1.43269 0 3.2V21.6889C0 23.4562 1.43269 24.8889 3.2 24.8889H28.8C30.5673 24.8889 32 23.4562 32 21.6889V3.2C32 1.43269 30.5673 0 28.8 0H3.2ZM28.8 2.4H3.2C2.75817 2.4 2.4 2.75817 2.4 3.2V21.6889C2.4 22.1307 2.75817 22.4889 3.2 22.4889H28.8C29.2418 22.4889 29.6 22.1307 29.6 21.6889V3.2C29.6 2.75817 29.2418 2.4 28.8 2.4Z" fill="#292B33"/>
<path d="M10.6667 29.0223C10.6667 28.3595 11.2039 27.8223 11.8667 27.8223H20.1333C20.7961 27.8223 21.3333 28.3595 21.3333 29.0223C21.3333 29.685 20.7961 30.2223 20.1333 30.2223H11.8667C11.2039 30.2223 10.6667 29.685 10.6667 29.0223Z" fill="#292B33"/>
</svg>
