<svg width="32" height="31" viewBox="0 0 32 31" fill="none" xmlns="http://www.w3.org/2000/svg">
<path d="M10.4485 7.15147C9.9799 6.68284 9.2201 6.68284 8.75147 7.15147C8.28284 7.6201 8.28284 8.3799 8.75147 8.84853L12.2229 12.32L8.75147 15.7915C8.28284 16.2601 8.28284 17.0199 8.75147 17.4885C9.2201 17.9572 9.9799 17.9572 10.4485 17.4885L14.7685 13.1685C15.2372 12.6999 15.2372 11.9401 14.7685 11.4715L10.4485 7.15147Z" fill="#292B33"/>
<path d="M16.48 15.84C15.8614 15.84 15.36 16.3414 15.36 16.96C15.36 17.5786 15.8614 18.08 16.48 18.08H22.88C23.4986 18.08 24 17.5786 24 16.96C24 16.3414 23.4986 15.84 22.88 15.84H16.48Z" fill="#292B33"/>
<path fill-rule="evenodd" clip-rule="evenodd" d="M3.2 0C1.43269 0 0 1.43269 0 3.2V21.6889C0 23.4562 1.43269 24.8889 3.2 24.8889H28.8C30.5673 24.8889 32 23.4562 32 21.6889V3.2C32 1.43269 30.5673 0 28.8 0H3.2ZM28.8 2.4H3.2C2.75817 2.4 2.4 2.75817 2.4 3.2V21.6889C2.4 22.1307 2.75817 22.4889 3.2 22.4889H28.8C29.2418 22.4889 29.6 22.1307 29.6 21.6889V3.2C29.6 2.75817 29.2418 2.4 28.8 2.4Z" fill="#292B33"/>
<path d="M11.8667 27.8223C11.2039 27.8223 10.6667 28.3595 10.6667 29.0223C10.6667 29.685 11.2039 30.2223 11.8667 30.2223H20.1333C20.7961 30.2223 21.3333 29.685 21.3333 29.0223C21.3333 28.3595 20.7961 27.8223 20.1333 27.8223H11.8667Z" fill="#292B33"/>
</svg>
