<svg width="32" height="32" viewBox="0 0 32 32" fill="none" xmlns="http://www.w3.org/2000/svg">
<path d="M8.58587 4.46967C8.87877 4.76256 8.87877 5.23744 8.58587 5.53033L6.6162 7.5L8.58587 9.46967C8.87877 9.76256 8.87877 10.2374 8.58587 10.5303C8.29298 10.8232 7.8181 10.8232 7.52521 10.5303L5.02521 8.03033C4.73232 7.73744 4.73232 7.26256 5.02521 6.96967L7.52521 4.46967C7.8181 4.17678 8.29298 4.17678 8.58587 4.46967Z" fill="#292B33"/>
<path d="M10.8586 4.46968C11.1515 4.17679 11.6263 4.17679 11.9192 4.46968L14.4192 6.96968C14.7121 7.26258 14.7121 7.73745 14.4192 8.03034L11.9192 10.5303C11.6263 10.8232 11.1515 10.8232 10.8586 10.5303C10.5657 10.2375 10.5657 9.76258 10.8586 9.46968L12.8282 7.50001L10.8586 5.53034C10.5657 5.23745 10.5657 4.76258 10.8586 4.46968Z" fill="#292B33"/>
<path fill-rule="evenodd" clip-rule="evenodd" d="M2 0C0.895431 0 0 0.895432 0 2V13.5556C0 14.6601 0.895431 15.5556 2 15.5556H18C19.1046 15.5556 20 14.6601 20 13.5556V2C20 0.895431 19.1046 0 18 0H2ZM18 1.5H2C1.72386 1.5 1.5 1.72386 1.5 2V13.5556C1.5 13.8317 1.72386 14.0556 2 14.0556H18C18.2761 14.0556 18.5 13.8317 18.5 13.5556V2C18.5 1.72386 18.2761 1.5 18 1.5Z" fill="#292B33"/>
<path d="M6.66666 18.1389C6.66666 17.7247 7.00244 17.3889 7.41666 17.3889H12.5833C12.9975 17.3889 13.3333 17.7247 13.3333 18.1389C13.3333 18.5531 12.9975 18.8889 12.5833 18.8889H7.41666C7.00244 18.8889 6.66666 18.5531 6.66666 18.1389Z" fill="#292B33"/>
</svg>
