<svg width="34" height="39" viewBox="0 0 34 39" fill="none" xmlns="http://www.w3.org/2000/svg">
<path d="M25.0879 3.10989C25.3792 3.10989 25.6154 3.34605 25.6154 3.63736V8.61344L27.9967 10.0422C28.2465 10.1921 28.3275 10.5161 28.1776 10.7659C28.0277 11.0157 27.7037 11.0967 27.4539 10.9468L24.8165 9.36439C24.6577 9.26906 24.5604 9.09737 24.5604 8.91209V3.63736C24.5604 3.34605 24.7966 3.10989 25.0879 3.10989Z" fill="#292B33"/>
<path fill-rule="evenodd" clip-rule="evenodd" d="M18.2308 8.38461C18.2308 4.3062 21.537 1 25.6154 1C29.6938 1 33 4.3062 33 8.38461C33 12.463 29.6938 15.7692 25.6154 15.7692C21.537 15.7692 18.2308 12.463 18.2308 8.38461ZM25.6154 2.05495C22.1196 2.05495 19.2857 4.88883 19.2857 8.38461C19.2857 11.8804 22.1196 14.7143 25.6154 14.7143C29.1112 14.7143 31.9451 11.8804 31.9451 8.38461C31.9451 4.88883 29.1112 2.05495 25.6154 2.05495Z" fill="#292B33"/>
<path d="M22.8396 37.6137C23.2118 37.8285 23.6372 37.9335 24.0667 37.9167H30.7493C31.2979 37.9597 31.8414 37.7853 32.2625 37.4313C32.6836 37.0772 32.9485 36.5718 33 36.0243C32.9494 35.476 32.6848 34.9698 32.2637 34.615C31.8425 34.2602 31.2985 34.0853 30.7493 34.1283H25.6133L13.2827 7.15676C13.0936 6.75675 12.7859 6.42464 12.4013 6.20559C12.0167 5.98654 11.574 5.89119 11.1333 5.93248H3.19378C1.98311 5.93248 1 6.61659 1 7.45706C1 8.29753 1.98311 8.97809 3.19378 8.97809H9.28267L12.6267 16.5406L2.72267 35.134C2.60645 35.3695 2.54391 35.6279 2.53952 35.8904C2.53514 36.153 2.58904 36.4132 2.69733 36.6525C2.80562 36.8917 2.96562 37.104 3.16581 37.274C3.366 37.4441 3.60141 37.5677 3.85511 37.6359C4.38395 37.8507 4.97145 37.873 5.51506 37.6989C6.05867 37.5248 6.52383 37.1654 6.82933 36.6835L14.9698 21.4022L21.9636 36.703C22.1637 37.0832 22.4674 37.3989 22.8396 37.6137Z" fill="#292B33"/>
<path d="M25.0879 3.10989C25.3792 3.10989 25.6154 3.34605 25.6154 3.63736V8.61344L27.9967 10.0422C28.2465 10.1921 28.3275 10.5161 28.1776 10.7659C28.0277 11.0157 27.7037 11.0967 27.4539 10.9468L24.8165 9.36439C24.6577 9.26906 24.5604 9.09737 24.5604 8.91209V3.63736C24.5604 3.34605 24.7966 3.10989 25.0879 3.10989Z" stroke="#292B33" stroke-width="0.2"/>
<path fill-rule="evenodd" clip-rule="evenodd" d="M18.2308 8.38461C18.2308 4.3062 21.537 1 25.6154 1C29.6938 1 33 4.3062 33 8.38461C33 12.463 29.6938 15.7692 25.6154 15.7692C21.537 15.7692 18.2308 12.463 18.2308 8.38461ZM25.6154 2.05495C22.1196 2.05495 19.2857 4.88883 19.2857 8.38461C19.2857 11.8804 22.1196 14.7143 25.6154 14.7143C29.1112 14.7143 31.9451 11.8804 31.9451 8.38461C31.9451 4.88883 29.1112 2.05495 25.6154 2.05495Z" stroke="#292B33" stroke-width="0.2"/>
<path d="M22.8396 37.6137C23.2118 37.8285 23.6372 37.9335 24.0667 37.9167H30.7493C31.2979 37.9597 31.8414 37.7853 32.2625 37.4313C32.6836 37.0772 32.9485 36.5718 33 36.0243C32.9494 35.476 32.6848 34.9698 32.2637 34.615C31.8425 34.2602 31.2985 34.0853 30.7493 34.1283H25.6133L13.2827 7.15676C13.0936 6.75675 12.7859 6.42464 12.4013 6.20559C12.0167 5.98654 11.574 5.89119 11.1333 5.93248H3.19378C1.98311 5.93248 1 6.61659 1 7.45706C1 8.29753 1.98311 8.97809 3.19378 8.97809H9.28267L12.6267 16.5406L2.72267 35.134C2.60645 35.3695 2.54391 35.6279 2.53952 35.8904C2.53514 36.153 2.58904 36.4132 2.69733 36.6525C2.80562 36.8917 2.96562 37.104 3.16581 37.274C3.366 37.4441 3.60141 37.5677 3.85511 37.6359C4.38395 37.8507 4.97145 37.873 5.51506 37.6989C6.05867 37.5248 6.52383 37.1654 6.82933 36.6835L14.9698 21.4022L21.9636 36.703C22.1637 37.0832 22.4674 37.3989 22.8396 37.6137Z" stroke="#292B33" stroke-width="0.2"/>
</svg>
