<svg width="32" height="32" viewBox="0 0 32 32" fill="none" xmlns="http://www.w3.org/2000/svg">
<path d="M6.53033 4.46967C6.23744 4.17678 5.76256 4.17678 5.46967 4.46967C5.17678 4.76256 5.17678 5.23744 5.46967 5.53033L7.63934 7.7L5.46967 9.86967C5.17678 10.1626 5.17678 10.6374 5.46967 10.9303C5.76256 11.2232 6.23744 11.2232 6.53033 10.9303L9.23033 8.23033C9.52322 7.93744 9.52322 7.46256 9.23033 7.16967L6.53033 4.46967Z" fill="#292B33"/>
<path d="M10.3 9.9C9.9134 9.9 9.6 10.2134 9.6 10.6C9.6 10.9866 9.9134 11.3 10.3 11.3H14.3C14.6866 11.3 15 10.9866 15 10.6C15 10.2134 14.6866 9.9 14.3 9.9H10.3Z" fill="#292B33"/>
<path fill-rule="evenodd" clip-rule="evenodd" d="M2 0C0.895431 0 0 0.895432 0 2V13.5556C0 14.6601 0.895431 15.5556 2 15.5556H18C19.1046 15.5556 20 14.6601 20 13.5556V2C20 0.895431 19.1046 0 18 0H2ZM18 1.5H2C1.72386 1.5 1.5 1.72386 1.5 2V13.5556C1.5 13.8317 1.72386 14.0556 2 14.0556H18C18.2761 14.0556 18.5 13.8317 18.5 13.5556V2C18.5 1.72386 18.2761 1.5 18 1.5Z" fill="#292B33"/>
<path d="M7.41666 17.3889C7.00244 17.3889 6.66666 17.7247 6.66666 18.1389C6.66666 18.5531 7.00244 18.8889 7.41666 18.8889H12.5833C12.9975 18.8889 13.3333 18.5531 13.3333 18.1389C13.3333 17.7247 12.9975 17.3889 12.5833 17.3889H7.41666Z" fill="#292B33"/>
</svg>
