<svg width="32" height="32" viewBox="0 0 32 32" fill="none" xmlns="http://www.w3.org/2000/svg">
<path d="M10.7857 1.85714C10.9041 1.85714 11 1.95308 11 2.07143V4.09296L11.9674 4.67339C12.0689 4.73428 12.1018 4.86591 12.0409 4.96739C11.98 5.06887 11.8484 5.10178 11.7469 5.04089L10.6755 4.39803C10.6109 4.35931 10.5714 4.28956 10.5714 4.21429V2.07143C10.5714 1.95308 10.6674 1.85714 10.7857 1.85714Z" fill="#292B33"/>
<path fill-rule="evenodd" clip-rule="evenodd" d="M8 4C8 2.34315 9.34315 1 11 1C12.6569 1 14 2.34315 14 4C14 5.65685 12.6569 7 11 7C9.34315 7 8 5.65685 8 4ZM11 1.42857C9.57984 1.42857 8.42857 2.57984 8.42857 4C8.42857 5.42016 9.57984 6.57143 11 6.57143C12.4202 6.57143 13.5714 5.42016 13.5714 4C13.5714 2.57984 12.4202 1.42857 11 1.42857Z" fill="#292B33"/>
<path d="M9.87234 15.8743C10.0235 15.9616 10.1964 16.0042 10.3708 15.9974H13.0857C13.3085 16.0149 13.5293 15.944 13.7004 15.8002C13.8715 15.6564 13.9791 15.4511 14 15.2286C13.9794 15.0059 13.872 14.8002 13.7009 14.6561C13.5298 14.5119 13.3088 14.4409 13.0857 14.4584H10.9992L5.98983 3.50119C5.91302 3.33868 5.78801 3.20376 5.63178 3.11477C5.47555 3.02578 5.2957 2.98704 5.11667 3.00382H1.89122C1.39939 3.00382 1 3.28174 1 3.62318C1 3.96462 1.39939 4.2411 1.89122 4.2411H4.36483L5.72333 7.31336L1.69983 14.867C1.65262 14.9626 1.62721 15.0676 1.62543 15.1742C1.62365 15.2809 1.64555 15.3866 1.68954 15.4838C1.73353 15.581 1.79853 15.6672 1.87986 15.7363C1.96119 15.8054 2.05682 15.8556 2.15989 15.8833C2.37473 15.9706 2.6134 15.9796 2.83424 15.9089C3.05508 15.8382 3.24406 15.6922 3.36817 15.4964L6.67522 9.28838L9.51644 15.5044C9.59774 15.6588 9.72113 15.7871 9.87234 15.8743Z" fill="#292B33"/>
<path d="M10.7857 1.85714C10.9041 1.85714 11 1.95308 11 2.07143V4.09296L11.9674 4.67339C12.0689 4.73428 12.1018 4.86591 12.0409 4.96739C11.98 5.06887 11.8484 5.10178 11.7469 5.04089L10.6755 4.39803C10.6109 4.35931 10.5714 4.28956 10.5714 4.21429V2.07143C10.5714 1.95308 10.6674 1.85714 10.7857 1.85714Z" stroke="#292B33" stroke-width="0.2"/>
<path fill-rule="evenodd" clip-rule="evenodd" d="M8 4C8 2.34315 9.34315 1 11 1C12.6569 1 14 2.34315 14 4C14 5.65685 12.6569 7 11 7C9.34315 7 8 5.65685 8 4ZM11 1.42857C9.57984 1.42857 8.42857 2.57984 8.42857 4C8.42857 5.42016 9.57984 6.57143 11 6.57143C12.4202 6.57143 13.5714 5.42016 13.5714 4C13.5714 2.57984 12.4202 1.42857 11 1.42857Z" stroke="#292B33" stroke-width="0.2"/>
<path d="M9.87234 15.8743C10.0235 15.9616 10.1964 16.0042 10.3708 15.9974H13.0857C13.3085 16.0149 13.5293 15.944 13.7004 15.8002C13.8715 15.6564 13.9791 15.4511 14 15.2286C13.9794 15.0059 13.872 14.8002 13.7009 14.6561C13.5298 14.5119 13.3088 14.4409 13.0857 14.4584H10.9992L5.98983 3.50119C5.91302 3.33868 5.78801 3.20376 5.63178 3.11477C5.47555 3.02578 5.2957 2.98704 5.11667 3.00382H1.89122C1.39939 3.00382 1 3.28174 1 3.62318C1 3.96462 1.39939 4.2411 1.89122 4.2411H4.36483L5.72333 7.31336L1.69983 14.867C1.65262 14.9626 1.62721 15.0676 1.62543 15.1742C1.62365 15.2809 1.64555 15.3866 1.68954 15.4838C1.73353 15.581 1.79853 15.6672 1.87986 15.7363C1.96119 15.8054 2.05682 15.8556 2.15989 15.8833C2.37473 15.9706 2.6134 15.9796 2.83424 15.9089C3.05508 15.8382 3.24406 15.6922 3.36817 15.4964L6.67522 9.28838L9.51644 15.5044C9.59774 15.6588 9.72113 15.7871 9.87234 15.8743Z" stroke="#292B33" stroke-width="0.2"/>
</svg>
