<svg width="294" height="28" viewBox="0 0 294 28" fill="none" xmlns="http://www.w3.org/2000/svg">
<path d="M5.20594 7.17976L2.99949 5.23766L5.31168 2.96073L7.28197 5.13192C7.68134 4.82822 8.10053 4.55151 8.53675 4.30362L7.25377 1.68127L10.2744 0.447634L11.2508 3.19688C11.7385 3.06804 12.2342 2.97149 12.7346 2.90785L12.569 0H15.8399L15.6601 2.90785C16.1605 2.97167 16.6562 3.06822 17.144 3.19688L18.1203 0.447634L21.141 1.68127L19.8897 4.30362C20.3258 4.55173 20.745 4.82843 21.1445 5.13192L23.1148 2.96073L25.427 5.23766L23.2205 7.17976C23.5288 7.57275 23.8103 7.98607 24.0629 8.41692L26.7276 7.15509L27.9788 10.1299L25.1767 11.0921C25.3066 11.5715 25.4044 12.059 25.4693 12.5514L28.423 12.3892V15.6108L25.4693 15.4486C25.4047 15.9411 25.3069 16.4286 25.1767 16.9079L27.9683 17.8701L26.717 20.8449L24.0524 19.5831C23.7994 20.0137 23.518 20.427 23.21 20.8202L25.4164 22.7623L23.1042 25.0393L21.1339 22.8681C20.7344 23.1716 20.3152 23.4483 19.8792 23.6964L21.1621 26.3187L18.1415 27.5524L17.1652 24.8031C16.6774 24.9318 16.1817 25.0284 15.6813 25.0921L15.8469 28H12.576L12.7417 25.0921C12.2413 25.0282 11.7456 24.9317 11.2578 24.8031L10.2815 27.5524L7.26082 26.3187L8.5438 23.6964C8.10771 23.4483 7.68853 23.1716 7.28902 22.8681L5.31873 25.0393L3.00655 22.7623L5.21299 20.8202C4.90483 20.4272 4.6234 20.0138 4.37059 19.5831L1.70594 20.8449L0.45468 17.8701L3.24622 16.9079C3.11573 16.4286 3.01799 15.9411 2.95367 15.4486L0 15.6108V12.3857L2.95367 12.5478C3.01798 12.0554 3.11572 11.5678 3.24622 11.0886L0.45468 10.1264L1.70594 7.15156L4.38117 8.41692C4.62843 7.98675 4.90396 7.57345 5.20594 7.17976ZM7.32074 13.9965C7.29976 15.3629 7.68578 16.7048 8.42969 17.8512C9.1736 18.9976 10.2418 19.8968 11.4982 20.4343C12.7547 20.9718 14.1427 21.1234 15.4856 20.8697C16.8285 20.616 18.0655 19.9686 19.0393 19.0097C20.0131 18.0509 20.6796 16.824 20.9541 15.4852C21.2285 14.1464 21.0984 12.7562 20.5804 11.4916C20.0624 10.227 19.1798 9.14501 18.045 8.38346C16.9103 7.6219 15.5746 7.21517 14.208 7.215C13.3104 7.20803 12.4204 7.37792 11.5885 7.71495C10.7567 8.05198 9.99934 8.54957 9.3598 9.17929C8.72026 9.80901 8.21102 10.5585 7.86116 11.3851C7.51129 12.2116 7.32766 13.099 7.32074 13.9965ZM164.447 6.73565L175.374 17.5529V7.29607H176.935V21.1339L166.009 10.3343V20.5383H164.447V6.73565ZM145.368 13.9119C145.368 16.8973 147.93 19.3892 151.11 19.3892C154.289 19.3892 156.848 16.8973 156.848 13.9119C156.848 10.9265 154.321 8.43102 151.11 8.43102C147.899 8.43102 145.368 10.9124 145.368 13.9119ZM158.409 13.9295C158.409 17.7397 155.103 20.7603 151.11 20.7603C147.116 20.7603 143.81 17.7397 143.81 13.9295C143.81 10.1193 147.116 7.06344 151.11 7.06344C155.103 7.06344 158.409 10.1405 158.409 13.933V13.9295ZM137.282 9.87613C136.726 8.96324 136.056 8.43454 134.868 8.43454C133.624 8.43454 132.545 9.27694 132.545 10.4894C132.545 11.6314 133.79 12.1566 134.738 12.5619L135.668 12.9496C137.49 13.7039 139.031 14.5639 139.031 16.6717C139.031 18.9909 137.06 20.7638 134.628 20.7638C132.38 20.7638 130.709 19.3927 130.265 17.3379L131.788 16.9325C131.874 17.6177 132.209 18.2474 132.728 18.7022C133.248 19.157 133.917 19.4052 134.607 19.3998C136.112 19.3998 137.487 18.3107 137.487 16.8197C137.487 15.3288 136.204 14.7472 134.903 14.1868L134.05 13.8343C132.415 13.1294 131.005 12.3434 131.005 10.4471C131.005 8.39225 132.845 7.07402 134.924 7.07402C135.658 7.05698 136.382 7.23907 137.02 7.60092C137.658 7.96276 138.186 8.49082 138.548 9.1289L137.282 9.87613ZM119.162 13.4255H119.638C121.4 13.4255 123.184 13.1083 123.184 11.0534C123.184 8.87512 121.492 8.66365 119.617 8.66365H119.152L119.162 13.4255ZM119.162 20.5383H117.601V7.29607H119.638C122.296 7.29607 124.763 7.96223 124.763 10.9476C124.763 12.9849 123.406 14.423 121.238 14.5992L125.7 20.5383H123.786L119.557 14.7261H119.166L119.162 20.5383ZM104.284 7.29607H111.531V8.66365H105.842V12.6007H111.376V13.9718H105.842V19.1707H111.531V20.5418H104.284V7.29607ZM93.0055 13.3726H94.0629C95.79 13.3726 97.2563 12.8792 97.2563 10.9829C97.2563 8.82226 95.4164 8.66365 93.5977 8.66365H93.0232L93.0055 13.3726ZM93.0055 20.5383H91.4406V7.29607H93.7457C94.9512 7.29607 96.213 7.33132 97.2175 8.00101C97.7108 8.33388 98.1134 8.7843 98.389 9.31164C98.6647 9.83898 98.8048 10.4267 98.7966 11.0217C98.8012 11.5656 98.6836 12.1035 98.4524 12.5959C98.2211 13.0882 97.8822 13.5223 97.4607 13.8661C96.5126 14.6027 95.3071 14.7437 94.137 14.7437H93.002L93.0055 20.5383ZM80.1616 9.54481V12.4597H84.3348V14.7085H80.1616V18.2931H84.497V20.5418H77.5393V7.29607H84.497V9.54481H80.1616ZM66.641 15.1843L69.8449 7.31017H72.6647L66.6939 21.2749L60.7759 7.29607H63.5957L66.641 15.1843ZM55.9119 20.5418H53.2895V7.29607H55.9119V20.5418ZM44.5624 18.2931H48.2739V20.5418H41.9295V7.29607H44.5624V18.2931Z" fill="#FF6900"/>
<path d="M192.04 21V6.78125H196.054C197.291 6.78125 198.385 7.05469 199.335 7.60156C200.286 8.14844 201.018 8.92643 201.532 9.93555C202.053 10.9447 202.317 12.1035 202.323 13.4121V14.3203C202.323 15.6615 202.063 16.8366 201.542 17.8457C201.028 18.8548 200.289 19.6296 199.325 20.1699C198.368 20.7103 197.252 20.987 195.976 21H192.04ZM193.915 8.32422V19.4668H195.888C197.333 19.4668 198.456 19.0176 199.257 18.1191C200.064 17.2207 200.468 15.9414 200.468 14.2812V13.4512C200.468 11.8366 200.087 10.5833 199.325 9.69141C198.57 8.79297 197.496 8.33724 196.103 8.32422H193.915ZM209.667 21.1953C208.234 21.1953 207.069 20.7266 206.171 19.7891C205.272 18.8451 204.823 17.5853 204.823 16.0098V15.6777C204.823 14.6296 205.022 13.6953 205.419 12.875C205.822 12.0482 206.382 11.4036 207.098 10.9414C207.821 10.4727 208.602 10.2383 209.442 10.2383C210.816 10.2383 211.883 10.6908 212.645 11.5957C213.407 12.5007 213.788 13.7962 213.788 15.4824V16.2344H206.63C206.656 17.276 206.958 18.1191 207.538 18.7637C208.124 19.4017 208.866 19.7207 209.764 19.7207C210.402 19.7207 210.943 19.5905 211.385 19.3301C211.828 19.0697 212.216 18.7246 212.548 18.2949L213.651 19.1543C212.766 20.515 211.438 21.1953 209.667 21.1953ZM209.442 11.7227C208.713 11.7227 208.101 11.9896 207.606 12.5234C207.111 13.0508 206.805 13.793 206.688 14.75H211.981V14.6133C211.929 13.6953 211.682 12.9857 211.239 12.4844C210.796 11.9766 210.197 11.7227 209.442 11.7227ZM219.637 18.5488L222.254 10.4336H224.1L220.311 21H218.934L215.106 10.4336H216.951L219.637 18.5488ZM230.486 21.1953C229.054 21.1953 227.889 20.7266 226.99 19.7891C226.092 18.8451 225.642 17.5853 225.642 16.0098V15.6777C225.642 14.6296 225.841 13.6953 226.238 12.875C226.642 12.0482 227.202 11.4036 227.918 10.9414C228.641 10.4727 229.422 10.2383 230.262 10.2383C231.635 10.2383 232.703 10.6908 233.465 11.5957C234.226 12.5007 234.607 13.7962 234.607 15.4824V16.2344H227.449C227.475 17.276 227.778 18.1191 228.357 18.7637C228.943 19.4017 229.685 19.7207 230.584 19.7207C231.222 19.7207 231.762 19.5905 232.205 19.3301C232.648 19.0697 233.035 18.7246 233.367 18.2949L234.471 19.1543C233.585 20.515 232.257 21.1953 230.486 21.1953ZM230.262 11.7227C229.532 11.7227 228.92 11.9896 228.426 12.5234C227.931 13.0508 227.625 13.793 227.508 14.75H232.801V14.6133C232.749 13.6953 232.501 12.9857 232.058 12.4844C231.616 11.9766 231.017 11.7227 230.262 11.7227ZM239.07 21H237.263V6H239.07V21ZM241.892 15.6191C241.892 14.584 242.094 13.653 242.497 12.8262C242.907 11.9993 243.474 11.3613 244.196 10.9121C244.926 10.4629 245.756 10.2383 246.687 10.2383C248.125 10.2383 249.288 10.7363 250.173 11.7324C251.065 12.7285 251.511 14.0534 251.511 15.707V15.834C251.511 16.8626 251.312 17.7871 250.915 18.6074C250.525 19.4212 249.961 20.056 249.226 20.5117C248.497 20.9674 247.657 21.1953 246.706 21.1953C245.274 21.1953 244.112 20.6973 243.22 19.7012C242.334 18.7051 241.892 17.3867 241.892 15.7461V15.6191ZM243.708 15.834C243.708 17.0059 243.978 17.9466 244.519 18.6562C245.066 19.3659 245.795 19.7207 246.706 19.7207C247.624 19.7207 248.353 19.3626 248.894 18.6465C249.434 17.9238 249.704 16.9147 249.704 15.6191C249.704 14.4603 249.428 13.5228 248.874 12.8066C248.327 12.084 247.598 11.7227 246.687 11.7227C245.795 11.7227 245.075 12.0775 244.528 12.7871C243.982 13.4967 243.708 14.5124 243.708 15.834ZM263.102 15.834C263.102 17.4421 262.734 18.7376 261.999 19.7207C261.263 20.7038 260.267 21.1953 259.01 21.1953C257.728 21.1953 256.719 20.7884 255.983 19.9746V25.0625H254.176V10.4336H255.827L255.915 11.6055C256.65 10.694 257.673 10.2383 258.981 10.2383C260.251 10.2383 261.253 10.7168 261.989 11.6738C262.731 12.6309 263.102 13.9622 263.102 15.668V15.834ZM261.296 15.6289C261.296 14.4375 261.042 13.4967 260.534 12.8066C260.026 12.1165 259.329 11.7715 258.444 11.7715C257.35 11.7715 256.53 12.2565 255.983 13.2266V18.2754C256.523 19.2389 257.35 19.7207 258.464 19.7207C259.329 19.7207 260.016 19.3789 260.524 18.6953C261.038 18.0052 261.296 16.9831 261.296 15.6289ZM270.192 21.1953C268.759 21.1953 267.594 20.7266 266.696 19.7891C265.797 18.8451 265.348 17.5853 265.348 16.0098V15.6777C265.348 14.6296 265.547 13.6953 265.944 12.875C266.347 12.0482 266.907 11.4036 267.623 10.9414C268.346 10.4727 269.127 10.2383 269.967 10.2383C271.341 10.2383 272.409 10.6908 273.17 11.5957C273.932 12.5007 274.313 13.7962 274.313 15.4824V16.2344H267.155C267.181 17.276 267.483 18.1191 268.063 18.7637C268.649 19.4017 269.391 19.7207 270.289 19.7207C270.927 19.7207 271.468 19.5905 271.91 19.3301C272.353 19.0697 272.741 18.7246 273.073 18.2949L274.176 19.1543C273.291 20.515 271.963 21.1953 270.192 21.1953ZM269.967 11.7227C269.238 11.7227 268.626 11.9896 268.131 12.5234C267.636 13.0508 267.33 13.793 267.213 14.75H272.506V14.6133C272.454 13.6953 272.207 12.9857 271.764 12.4844C271.321 11.9766 270.722 11.7227 269.967 11.7227ZM281.92 12.0547C281.646 12.0091 281.35 11.9863 281.031 11.9863C279.846 11.9863 279.042 12.4909 278.619 13.5V21H276.812V10.4336H278.57L278.6 11.6543C279.192 10.7103 280.032 10.2383 281.119 10.2383C281.471 10.2383 281.738 10.2839 281.92 10.375V12.0547ZM290.142 18.1973C290.142 17.709 289.957 17.3314 289.585 17.0645C289.221 16.791 288.58 16.5566 287.662 16.3613C286.75 16.166 286.024 15.9316 285.484 15.6582C284.95 15.3848 284.553 15.0592 284.292 14.6816C284.039 14.304 283.912 13.8548 283.912 13.334C283.912 12.4681 284.276 11.7357 285.005 11.1367C285.741 10.5378 286.679 10.2383 287.818 10.2383C289.016 10.2383 289.986 10.5475 290.728 11.166C291.477 11.7845 291.851 12.5755 291.851 13.5391H290.035C290.035 13.0443 289.823 12.6178 289.4 12.2598C288.983 11.9017 288.456 11.7227 287.818 11.7227C287.16 11.7227 286.646 11.8659 286.275 12.1523C285.904 12.4388 285.718 12.8132 285.718 13.2754C285.718 13.7116 285.891 14.0404 286.236 14.2617C286.581 14.4831 287.203 14.6947 288.101 14.8965C289.006 15.0983 289.738 15.3392 290.298 15.6191C290.858 15.8991 291.272 16.2376 291.539 16.6348C291.812 17.0254 291.949 17.5039 291.949 18.0703C291.949 19.0143 291.571 19.7728 290.816 20.3457C290.061 20.9121 289.081 21.1953 287.876 21.1953C287.03 21.1953 286.281 21.0456 285.63 20.7461C284.979 20.4466 284.468 20.0299 284.097 19.4961C283.733 18.9557 283.55 18.373 283.55 17.748H285.357C285.389 18.3535 285.63 18.8353 286.08 19.1934C286.535 19.5449 287.134 19.7207 287.876 19.7207C288.56 19.7207 289.107 19.584 289.517 19.3105C289.934 19.0306 290.142 18.6595 290.142 18.1973Z" fill="#090C43"/>
</svg>
