<svg width="29" height="28" viewBox="0 0 29 28" fill="none" xmlns="http://www.w3.org/2000/svg">
<path d="M5.20594 7.17976L2.99949 5.23766L5.31168 2.96073L7.28197 5.13192C7.68134 4.82822 8.10053 4.55151 8.53675 4.30362L7.25377 1.68127L10.2744 0.447634L11.2508 3.19688C11.7385 3.06804 12.2342 2.97149 12.7346 2.90785L12.569 0H15.8399L15.6601 2.90785C16.1605 2.97167 16.6562 3.06822 17.144 3.19688L18.1203 0.447634L21.141 1.68127L19.8897 4.30362C20.3258 4.55173 20.745 4.82843 21.1445 5.13192L23.1148 2.96073L25.427 5.23766L23.2205 7.17976C23.5288 7.57275 23.8103 7.98607 24.0629 8.41692L26.7276 7.15509L27.9788 10.1299L25.1767 11.0921C25.3066 11.5715 25.4044 12.059 25.4693 12.5514L28.423 12.3892V15.6108L25.4693 15.4486C25.4047 15.9411 25.3069 16.4286 25.1767 16.9079L27.9683 17.8701L26.717 20.8449L24.0524 19.5831C23.7994 20.0137 23.518 20.427 23.21 20.8202L25.4164 22.7623L23.1042 25.0393L21.1339 22.8681C20.7344 23.1716 20.3152 23.4483 19.8792 23.6964L21.1621 26.3187L18.1415 27.5524L17.1652 24.8031C16.6774 24.9318 16.1817 25.0284 15.6813 25.0921L15.8469 28H12.576L12.7417 25.0921C12.2413 25.0282 11.7456 24.9317 11.2578 24.8031L10.2815 27.5524L7.26082 26.3187L8.5438 23.6964C8.10771 23.4483 7.68853 23.1716 7.28902 22.8681L5.31873 25.0393L3.00655 22.7623L5.21299 20.8202C4.90483 20.4272 4.6234 20.0138 4.37059 19.5831L1.70594 20.8449L0.45468 17.8701L3.24622 16.9079C3.11573 16.4286 3.01799 15.9411 2.95367 15.4486L0 15.6108V12.3857L2.95367 12.5478C3.01798 12.0554 3.11572 11.5678 3.24622 11.0886L0.45468 10.1264L1.70594 7.15156L4.38117 8.41692C4.62843 7.98675 4.90396 7.57345 5.20594 7.17976ZM7.32074 13.9965C7.29976 15.3629 7.68578 16.7048 8.42969 17.8512C9.1736 18.9976 10.2418 19.8968 11.4982 20.4343C12.7547 20.9718 14.1427 21.1234 15.4856 20.8697C16.8285 20.616 18.0655 19.9686 19.0393 19.0097C20.0131 18.0509 20.6796 16.824 20.9541 15.4852C21.2285 14.1464 21.0984 12.7562 20.5804 11.4916C20.0624 10.227 19.1798 9.14501 18.045 8.38346C16.9103 7.6219 15.5746 7.21517 14.208 7.215C13.3104 7.20803 12.4204 7.37792 11.5885 7.71495C10.7567 8.05198 9.99934 8.54957 9.3598 9.17929C8.72026 9.80901 8.21102 10.5585 7.86116 11.3851C7.51129 12.2116 7.32766 13.099 7.32074 13.9965Z" fill="#FF6900"/>
</svg>
