<svg xmlns="http://www.w3.org/2000/svg" width="648" height="648" viewBox="0 0 324 324">
  <defs>
    <style>
      .cls-1 {
        fill: #333;
        fill-rule: evenodd;
      }
    </style>
  </defs>
  <g id="chatfuel_logo.svg">
    <path class="cls-1" d="M2497.71,1787.65c16.2-6.34,26.1-9.96,36.9-13.58,10.8-4.53,20.7-3.62,31.5,1.81,68.39,37.13,144.89,7.24,178.18-48.9,8.1-13.59,15.3-16.3,22.5-11.78,8.1,4.53,8.1,12.68,0,27.17-39.59,67.02-124.19,96-197.08,65.21-16.2-7.25-30.6-8.15-45.9,0-8.1,4.52-18,7.24-27,9.96-21.59,6.34-30.59-1.81-26.99-25.36,1.8-12.68,5.4-24.45,9.9-36.22,5.4-13.59,5.4-26.27,0-39.85-41.4-108.67,39.59-222.78,153.88-220.07,48.6,0.91,88.2,21.74,119.69,58.87,9.9,11.77,10.8,19.92,3.6,25.36-6.3,5.43-14.4,3.62-24.29-7.25q-35.1-42.105-89.1-48.9c-72.89-9.06-143.99,48.9-148.49,123.16-1.8,22.64.9,45.28,11.7,65.21,8.1,15.39,7.2,29.88.9,44.37C2504.91,1765.01,2502.21,1774.07,2497.71,1787.65Z" transform="translate(-2459 -1496)"/>
  </g>
</svg>
