<svg width="44" height="44" viewBox="0 0 44 44" fill="none" xmlns="http://www.w3.org/2000/svg">
<path d="M15.5 4.69961C15.7 4.69961 15.8 4.69961 16 4.69961C17 4.59961 18 4.99961 18.5 5.99961L31.6 35.1996H37C38.3 35.1996 39.4 36.0996 39.4 37.2996C39.4 38.4996 38.3 39.3996 37 39.3996H29.9C28.9 39.3996 28 38.8996 27.7 38.0996L20.3 21.4996L11.6 37.9996C11.1 38.9996 9.69998 39.4996 8.39998 38.9996C7.19998 38.4996 6.69998 37.2996 7.19998 36.2996L17.7 16.1996L14.5 8.79961H6.99998C5.79998 8.79961 4.69998 7.99961 4.59998 6.89961V6.69961C4.59998 5.59961 5.69998 4.59961 6.99998 4.59961H15.5V4.69961Z" stroke="#A2A3B8" stroke-width="3" stroke-miterlimit="10"/>
<path fill-rule="evenodd" clip-rule="evenodd" d="M25.55 8.8498C26.15 8.8498 26.65 8.34981 26.65 7.74981C26.65 7.14981 26.15 6.6498 25.55 6.6498C24.95 6.5498 24.45 7.0498 24.45 7.6498C24.45 8.3498 24.95 8.8498 25.55 8.8498ZM25.55 13.4498C26.15 13.4498 26.65 12.9498 26.65 12.3498C26.65 11.7498 26.15 11.2498 25.55 11.2498C24.95 11.2498 24.45 11.7498 24.45 12.3498C24.45 12.8498 24.95 13.4498 25.55 13.4498ZM26.75 16.8498C26.75 17.4498 26.25 17.9498 25.65 17.9498C25.05 17.9498 24.55 17.4498 24.55 16.8498C24.55 16.2498 25.05 15.7498 25.65 15.7498C26.25 15.6498 26.75 16.2498 26.75 16.8498ZM25.55 22.5498C26.15 22.5498 26.65 22.0498 26.65 21.4498C26.65 20.8498 26.15 20.3498 25.55 20.3498C24.95 20.3498 24.45 20.8498 24.45 21.4498C24.45 22.0498 24.95 22.5498 25.55 22.5498ZM33.55 7.6498C33.55 8.2498 33.05 8.74981 32.45 8.74981C31.85 8.74981 31.35 8.2498 31.35 7.6498C31.35 7.0498 31.85 6.5498 32.45 6.5498C33.05 6.5498 33.55 7.0498 33.55 7.6498ZM32.45 13.4498C33.05 13.4498 33.55 12.9498 33.55 12.3498C33.55 11.7498 33.05 11.2498 32.45 11.2498C31.85 11.2498 31.35 11.7498 31.35 12.3498C31.35 12.8498 31.85 13.4498 32.45 13.4498ZM33.55 16.8498C33.55 17.4498 33.05 17.9498 32.45 17.9498C31.85 17.9498 31.35 17.4498 31.35 16.8498C31.35 16.2498 31.85 15.7498 32.45 15.7498C33.05 15.6498 33.55 16.2498 33.55 16.8498ZM32.45 22.5498C33.05 22.5498 33.55 22.0498 33.55 21.4498C33.55 20.8498 33.05 20.3498 32.45 20.3498C31.85 20.3498 31.35 20.8498 31.35 21.4498C31.35 22.0498 31.85 22.5498 32.45 22.5498Z" fill="#FE5E00"/>
<path fill-rule="evenodd" clip-rule="evenodd" d="M32.55 8.8498C33.15 8.8498 33.65 8.34981 33.65 7.74981C33.65 7.14981 33.15 6.6498 32.55 6.6498C31.95 6.5498 31.45 7.0498 31.45 7.6498C31.45 8.3498 31.95 8.8498 32.55 8.8498ZM32.55 13.4498C33.15 13.4498 33.65 12.9498 33.65 12.3498C33.65 11.7498 33.15 11.2498 32.55 11.2498C31.95 11.2498 31.45 11.7498 31.45 12.3498C31.45 12.8498 31.95 13.4498 32.55 13.4498ZM33.75 16.8498C33.75 17.4498 33.25 17.9498 32.65 17.9498C32.05 17.9498 31.55 17.4498 31.55 16.8498C31.55 16.2498 32.05 15.7498 32.65 15.7498C33.25 15.6498 33.75 16.2498 33.75 16.8498ZM32.55 22.5498C33.15 22.5498 33.65 22.0498 33.65 21.4498C33.65 20.8498 33.15 20.3498 32.55 20.3498C31.95 20.3498 31.45 20.8498 31.45 21.4498C31.45 22.0498 31.95 22.5498 32.55 22.5498ZM40.55 7.6498C40.55 8.2498 40.05 8.74981 39.45 8.74981C38.85 8.74981 38.35 8.2498 38.35 7.6498C38.35 7.0498 38.85 6.5498 39.45 6.5498C40.05 6.5498 40.55 7.0498 40.55 7.6498ZM39.45 13.4498C40.05 13.4498 40.55 12.9498 40.55 12.3498C40.55 11.7498 40.05 11.2498 39.45 11.2498C38.85 11.2498 38.35 11.7498 38.35 12.3498C38.35 12.8498 38.85 13.4498 39.45 13.4498ZM40.55 16.8498C40.55 17.4498 40.05 17.9498 39.45 17.9498C38.85 17.9498 38.35 17.4498 38.35 16.8498C38.35 16.2498 38.85 15.7498 39.45 15.7498C40.05 15.6498 40.55 16.2498 40.55 16.8498ZM39.45 22.5498C40.05 22.5498 40.55 22.0498 40.55 21.4498C40.55 20.8498 40.05 20.3498 39.45 20.3498C38.85 20.3498 38.35 20.8498 38.35 21.4498C38.35 22.0498 38.85 22.5498 39.45 22.5498Z" fill="#FE5E00"/>
</svg>
