<svg width="44" height="44" viewBox="0 0 44 44" fill="none" xmlns="http://www.w3.org/2000/svg">
<path d="M32.9911 38.0756H14.9333C10.5511 38.0756 7 34.4489 7 30.0667V12.0089C7 7.62667 10.5511 4 15.0089 4H32.9911C37.3733 4 41 7.55111 41 12.0089V29.9911C41 34.4489 37.3733 38.0756 32.9911 38.0756Z" stroke="#A5A7B8" stroke-width="3" stroke-miterlimit="10" stroke-linecap="round" stroke-linejoin="round"/>
<path d="M24 11.3C17.9054 11.3 13 15.2392 13 20.0703C13 23.2662 15.1554 26.0162 18.3514 27.577C18.4257 28.9148 17.8311 30.773 17.8311 30.773C17.8311 30.773 19.8378 30.6243 21.1014 28.5432C21.9932 28.7662 22.9595 28.8405 24 28.8405C30.0946 28.8405 35 24.9013 35 20.0703C35 15.2392 30.0946 11.3 24 11.3Z" stroke="#5879DA" stroke-width="2" stroke-miterlimit="10" stroke-linecap="round" stroke-linejoin="round"/>
<path fill-rule="evenodd" clip-rule="evenodd" d="M2.55001 28.85C3.15001 28.85 3.65001 28.35 3.65001 27.75C3.65001 27.15 3.15001 26.65 2.55001 26.65C1.95001 26.55 1.45001 27.05 1.45001 27.65C1.45001 28.35 1.95001 28.85 2.55001 28.85ZM2.55001 33.45C3.15001 33.45 3.65001 32.95 3.65001 32.35C3.65001 31.75 3.15001 31.25 2.55001 31.25C1.95001 31.25 1.45001 31.75 1.45001 32.35C1.45001 32.85 1.95001 33.45 2.55001 33.45ZM3.75001 36.85C3.75001 37.45 3.25001 37.95 2.65001 37.95C2.05001 37.95 1.55001 37.45 1.55001 36.85C1.55001 36.25 2.05001 35.75 2.65001 35.75C3.25001 35.65 3.75001 36.25 3.75001 36.85ZM2.55001 42.55C3.15001 42.55 3.65001 42.05 3.65001 41.45C3.65001 40.85 3.15001 40.35 2.55001 40.35C1.95001 40.35 1.45001 40.85 1.45001 41.45C1.45001 42.05 1.95001 42.55 2.55001 42.55ZM10.55 27.65C10.55 28.25 10.05 28.75 9.45001 28.75C8.85001 28.75 8.35001 28.25 8.35001 27.65C8.35001 27.05 8.85001 26.55 9.45001 26.55C10.05 26.55 10.55 27.05 10.55 27.65ZM9.45001 33.45C10.05 33.45 10.55 32.95 10.55 32.35C10.55 31.75 10.05 31.25 9.45001 31.25C8.85001 31.25 8.35001 31.75 8.35001 32.35C8.35001 32.85 8.85001 33.45 9.45001 33.45ZM10.55 36.85C10.55 37.45 10.05 37.95 9.45001 37.95C8.85001 37.95 8.35001 37.45 8.35001 36.85C8.35001 36.25 8.85001 35.75 9.45001 35.75C10.05 35.65 10.55 36.25 10.55 36.85ZM9.45001 42.55C10.05 42.55 10.55 42.05 10.55 41.45C10.55 40.85 10.05 40.35 9.45001 40.35C8.85001 40.35 8.35001 40.85 8.35001 41.45C8.35001 42.05 8.85001 42.55 9.45001 42.55Z" fill="#FE5E00"/>
</svg>
