<svg height="25" viewBox="0 0 20 25" width="20" xmlns="http://www.w3.org/2000/svg" xmlns:xlink="http://www.w3.org/1999/xlink"><mask id="a" fill="#fff"><path d="m0 .026h19.557v18.22h-19.557z" fill="#fff" fill-rule="evenodd"/></mask><g fill="#f2f1f2" fill-rule="evenodd"><path d="m10.79 2.088c1.578-2.078 3.769-2.088 3.769-2.088s.326 1.953-1.24 3.835c-1.672 2.009-3.572 1.68-3.572 1.68s-.357-1.58 1.045-3.427"/><path d="m9.946 1.14c.811 0 2.316-1.114 4.275-1.114 3.372 0 4.698 2.399 4.698 2.399s-2.594 1.325-2.594 4.545c0 3.63 3.232 4.882 3.232 4.882s-2.26 6.36-5.311 6.36c-1.402 0-2.491-.945-3.968-.945-1.505 0-2.998.98-3.971.98-2.787-.001-6.307-6.034-6.307-10.882 0-4.77 2.98-7.273 5.775-7.273 1.817 0 3.227 1.048 4.171 1.048" mask="url(#a)" transform="translate(0 5.743)"/></g></svg>