<svg xmlns="http://www.w3.org/2000/svg" xmlns:xlink="http://www.w3.org/1999/xlink" width="20" height="25" viewBox="0 0 20 25">
    <defs>
        <path id="a" d="M0 .026h19.557v18.22H0z"/>
    </defs>
    <g fill="none" fill-rule="evenodd">
        <path fill="#F2F1F2" d="M10.79 2.088C12.368.01 14.559 0 14.559 0s.326 1.953-1.24 3.835c-1.672 2.009-3.572 1.68-3.572 1.68s-.357-1.58 1.045-3.427"/>
        <g transform="translate(0 5.743)">
            <mask id="b" fill="#fff">
                <use xlink:href="#a"/>
            </mask>
            <path fill="#F2F1F2" d="M9.946 1.14c.811 0 2.316-1.114 4.275-1.114 3.372 0 4.698 2.399 4.698 2.399S16.325 3.75 16.325 6.97c0 3.63 3.232 4.882 3.232 4.882s-2.26 6.36-5.311 6.36c-1.402 0-2.491-.945-3.968-.945-1.505 0-2.998.98-3.971.98C3.52 18.246 0 12.213 0 7.365 0 2.595 2.98.092 5.775.092c1.817 0 3.227 1.048 4.171 1.048" mask="url(#b)"/>
        </g>
    </g>
</svg>
