<svg xmlns="http://www.w3.org/2000/svg" width="24" height="24" viewBox="0 0 24 24">
    <g fill="#F2F1F2" fill-rule="evenodd">
        <path d="M14.4 0H9.6v2.715a9.503 9.503 0 0 0-2.469 1.022l-1.919-1.92-3.394 3.395 1.919 1.92A9.503 9.503 0 0 0 2.715 9.6H0v4.8h2.715a9.503 9.503 0 0 0 1.022 2.469l-1.92 1.919 3.395 3.394 1.92-1.919c.76.45 1.59.795 2.468 1.022V24h4.8v-2.715a9.503 9.503 0 0 0 2.469-1.022l1.919 1.92 3.394-3.395-1.919-1.92c.45-.76.795-1.59 1.022-2.468H24V9.6h-2.715a9.503 9.503 0 0 0-1.022-2.469l1.92-1.919-3.395-3.394-1.92 1.919A9.503 9.503 0 0 0 14.4 2.715V0zm-.829 1v2.489l.59.153c.783.202 1.53.51 2.222.919l.524.31.43-.431 1.33-1.33 2.222 2.223-1.329 1.33-.43.43.31.524c.408.692.716 1.439.918 2.222l.153.59H23v3.142h-2.489l-.153.59a8.568 8.568 0 0 1-.919 2.222l-.31.525.431.43 1.329 1.329-2.222 2.222-1.33-1.329-.43-.43-.524.31a8.568 8.568 0 0 1-2.222.918l-.59.153V23H10.43v-2.489l-.59-.153a8.568 8.568 0 0 1-2.222-.919l-.524-.31-.43.431-1.33 1.329-2.222-2.222 1.329-1.33.43-.43-.31-.524a8.568 8.568 0 0 1-.918-2.222l-.153-.59H1V10.43h2.489l.153-.59c.202-.783.51-1.53.919-2.222l.31-.525-.431-.43L3.11 5.334 5.333 3.11l1.33 1.33.43.43.524-.31a8.568 8.568 0 0 1 2.222-.918l.59-.153V1h3.142z"/>
        <path d="M12 8a4 4 0 1 0 0 8 4 4 0 0 0 0-8m0 1c1.654 0 3 1.346 3 3s-1.346 3-3 3-3-1.346-3-3 1.346-3 3-3"/>
    </g>
</svg>
