<svg height="24" viewBox="0 0 21 24" width="21" xmlns="http://www.w3.org/2000/svg" xmlns:xlink="http://www.w3.org/1999/xlink"><defs><circle id="a" cx="4" cy="4" r="4"/><path id="b" d="m12.39 1.851c-1.31-1.156-2.997-1.851-4.835-1.851-4.172 0-7.555 3.582-7.555 8l4.962-.035c.59-1.543 1.454-2.865 2.594-3.965 1.225-1.184 2.837-1.9 4.833-2.149z"/><circle id="c" cx="6" cy="6" r="6"/><path id="d" d="m15 15v6"/><filter id="e" height="350%" width="1500%" x="-700%" y="-91.7%"><feMorphology in="SourceAlpha" operator="dilate" radius=".5" result="shadowSpreadOuter1"/><feOffset dy="2" in="shadowSpreadOuter1" result="shadowOffsetOuter1"/><feMorphology in="SourceAlpha" radius="1" result="shadowInner"/><feOffset dy="2" in="shadowInner" result="shadowInner"/><feComposite in="shadowOffsetOuter1" in2="shadowInner" operator="out" result="shadowOffsetOuter1"/><feGaussianBlur in="shadowOffsetOuter1" result="shadowBlurOuter1" stdDeviation="2"/><feColorMatrix in="shadowBlurOuter1" values="0 0 0 0 0 0 0 0 0 0 0 0 0 0 0 0 0 0 0.5 0"/></filter><mask id="f" fill="#fff"><use fill="#fff" fill-rule="evenodd" xlink:href="#a"/></mask><mask id="g" fill="#fff"><use fill="#fff" fill-rule="evenodd" xlink:href="#b"/></mask><mask id="h" fill="#fff"><use fill="#fff" fill-rule="evenodd" xlink:href="#c"/></mask></defs><g fill="none" fill-rule="evenodd"><g fill-rule="nonzero"><g transform="translate(3)"><use fill="#d8d8d8" xlink:href="#a"/><path d="m5.147-2.806 5.5 9h-11z" fill="#f2f1f2" mask="url(#f)" transform="matrix(.5 -.8660254 .8660254 .5 1.106453 5.304433)"/></g><g transform="translate(0 8)"><use fill="#d8d8d8" xlink:href="#b"/><path d="m10.247-5.253 4.5 9h-9z" fill="#f2f1f2" mask="url(#g)" transform="matrix(.5591929 -.82903757 .82903757 .5591929 5.141216 8.16322)"/></g><g transform="translate(9 12)"><use fill="#5879da" xlink:href="#c"/><path d="m8.192-3.308 6.5 13h-13z" fill="#90a6e6" mask="url(#h)" transform="matrix(.70710678 -.70710678 .70710678 .70710678 .142296 6.727534)"/></g></g><path d="m12 18h6" stroke="#f2f1f2" stroke-linecap="round"/><g fill-rule="nonzero" stroke-linecap="round"><use fill="#000" filter="url(#e)" xlink:href="#d"/><use stroke="#f2f1f2" xlink:href="#d"/></g></g></svg>