<svg xmlns="http://www.w3.org/2000/svg" xmlns:xlink="http://www.w3.org/1999/xlink" width="21" height="24" viewBox="0 0 21 24">
    <defs>
        <circle id="a" cx="4" cy="4" r="4"/>
        <path id="c" d="M12.39 1.851C11.08.695 9.393 0 7.555 0 3.383 0 0 3.582 0 8l4.962-.035C5.552 6.422 6.416 5.1 7.556 4c1.225-1.184 2.837-1.9 4.833-2.149z"/>
        <circle id="e" cx="6" cy="6" r="6"/>
        <path id="h" d="M15 15v6"/>
        <filter id="g" width="1500%" height="350%" x="-700%" y="-91.7%" filterUnits="objectBoundingBox">
            <feMorphology in="SourceAlpha" operator="dilate" radius=".5" result="shadowSpreadOuter1"/>
            <feOffset dy="2" in="shadowSpreadOuter1" result="shadowOffsetOuter1"/>
            <feMorphology in="SourceAlpha" radius="1" result="shadowInner"/>
            <feOffset dy="2" in="shadowInner" result="shadowInner"/>
            <feComposite in="shadowOffsetOuter1" in2="shadowInner" operator="out" result="shadowOffsetOuter1"/>
            <feGaussianBlur in="shadowOffsetOuter1" result="shadowBlurOuter1" stdDeviation="2"/>
            <feColorMatrix in="shadowBlurOuter1" values="0 0 0 0 0 0 0 0 0 0 0 0 0 0 0 0 0 0 0.5 0"/>
        </filter>
    </defs>
    <g fill="none" fill-rule="evenodd">
        <g transform="translate(3)">
            <mask id="b" fill="#fff">
                <use xlink:href="#a"/>
            </mask>
            <use fill="#D8D8D8" fill-rule="nonzero" xlink:href="#a"/>
            <path fill="#F2F1F2" fill-rule="nonzero" d="M5.147-2.806l5.5 9h-11z" mask="url(#b)" transform="rotate(-60 5.147 1.694)"/>
        </g>
        <g transform="translate(0 8)">
            <mask id="d" fill="#fff">
                <use xlink:href="#c"/>
            </mask>
            <use fill="#D8D8D8" fill-rule="nonzero" xlink:href="#c"/>
            <path fill="#F2F1F2" fill-rule="nonzero" d="M10.247-5.253l4.5 9h-9z" mask="url(#d)" transform="rotate(-56 10.247 -.753)"/>
        </g>
        <g transform="translate(9 12)">
            <mask id="f" fill="#fff">
                <use xlink:href="#e"/>
            </mask>
            <use fill="#5879DA" fill-rule="nonzero" xlink:href="#e"/>
            <path fill="#90A6E6" fill-rule="nonzero" d="M8.192-3.308l6.5 13h-13z" mask="url(#f)" transform="rotate(-45 8.192 3.192)"/>
        </g>
        <path stroke="#F2F1F2" stroke-linecap="round" d="M12 18h6"/>
        <g fill-rule="nonzero" stroke-linecap="round">
            <use fill="#000" filter="url(#g)" xlink:href="#h"/>
            <use stroke="#F2F1F2" xlink:href="#h"/>
        </g>
    </g>
</svg>
