<svg xmlns="http://www.w3.org/2000/svg" width="25" height="20" viewBox="0 0 25 20">
    <g fill="none" fill-rule="evenodd" stroke="#F2F1F2">
        <path fill-rule="nonzero" stroke-linecap="round" d="M20 12.898V19a1 1 0 0 1-1 1H1a1 1 0 0 1-1-1V6a1 1 0 0 1 1-1h11.363"/>
        <g fill-rule="nonzero" stroke-linecap="round" transform="translate(2 9)">
            <circle cx="4" cy="1.913" r="1.913"/>
            <path d="M7.92 7.023A4.001 4.001 0 0 0 .08 7.02"/>
        </g>
        <path fill-rule="nonzero" stroke-linecap="round" d="M12.5 9.5h1M12.5 12.5h4M12.5 15.5h5"/>
        <path d="M20.6 0h-2.2v1.244a4.356 4.356 0 0 0-1.132.469l-.88-.88-1.555 1.556.88.88c-.207.349-.365.728-.469 1.131H14v2.2h1.244c.104.403.262.782.469 1.132l-.88.88 1.556 1.555.88-.88c.349.207.728.365 1.131.469V11h2.2V9.756a4.356 4.356 0 0 0 1.132-.469l.88.88 1.555-1.556-.88-.88c.207-.349.365-.728.469-1.131H25V4.4h-1.244a4.356 4.356 0 0 0-.469-1.132l.88-.88L22.61.834l-.88.88a4.356 4.356 0 0 0-1.131-.469V0z"/>
        <path d="M19.5 3.667a1.833 1.833 0 1 0 0 3.666 1.833 1.833 0 0 0 0-3.666"/>
    </g>
</svg>
