<svg height="20" viewBox="0 0 25 20" width="25" xmlns="http://www.w3.org/2000/svg"><g fill="none" fill-rule="evenodd" stroke="#f2f1f2"><g fill-rule="nonzero" stroke-linecap="round"><path d="m20 12.898v6.102a1 1 0 0 1 -1 1h-18a1 1 0 0 1 -1-1v-13a1 1 0 0 1 1-1h11.363"/><g transform="translate(2 9)"><circle cx="4" cy="1.913" r="1.913"/><path d="m7.92 7.023a4.001 4.001 0 0 0 -7.84-.003"/></g><path d="m12.5 9.5h1m-1 3h4m-4 3h5"/></g><path d="m20.6 0h-2.2v1.244a4.356 4.356 0 0 0 -1.132.469l-.88-.88-1.555 1.556.88.88c-.207.349-.365.728-.469 1.131h-1.244v2.2h1.244c.104.403.262.782.469 1.132l-.88.88 1.556 1.555.88-.88c.349.207.728.365 1.131.469v1.244h2.2v-1.244a4.356 4.356 0 0 0 1.132-.469l.88.88 1.555-1.556-.88-.88c.207-.349.365-.728.469-1.131h1.244v-2.2h-1.244a4.356 4.356 0 0 0 -.469-1.132l.88-.88-1.557-1.554-.88.88a4.356 4.356 0 0 0 -1.131-.469v-1.245z"/><path d="m19.5 3.667a1.833 1.833 0 1 0 0 3.666 1.833 1.833 0 0 0 0-3.666"/></g></svg>