<svg width="12" height="12" viewBox="0 0 12 12" fill="none" xmlns="http://www.w3.org/2000/svg">
<path fill-rule="evenodd" clip-rule="evenodd" d="M4.39504 0.0100131C4.55257 -0.0321967 4.71449 0.061288 4.7567 0.218817L5.21526 1.9302C5.25747 2.08773 5.16399 2.24965 5.00646 2.29186C4.84893 2.33407 4.68701 2.24059 4.6448 2.08306L4.18623 0.371672C4.14402 0.214143 4.23751 0.0522228 4.39504 0.0100131ZM8.95297 5.99982C8.95297 7.63068 7.6309 8.95275 6.00004 8.95275C4.36918 8.95275 3.04711 7.63068 3.04711 5.99982C3.04711 4.36896 4.36918 3.04689 6.00004 3.04689C7.6309 3.04689 8.95297 4.36896 8.95297 5.99982ZM7.35524 9.91682C7.31303 9.75929 7.15111 9.6658 6.99358 9.70801C6.83605 9.75022 6.74257 9.91214 6.78478 10.0697L7.24334 11.7811C7.28555 11.9386 7.44747 12.0321 7.605 11.9899C7.76253 11.9477 7.85601 11.7857 7.8138 11.6282L7.35524 9.91682ZM10.385 1.61507C10.5003 1.73039 10.5003 1.91736 10.385 2.03268L9.13216 3.2855C9.01684 3.40082 8.82987 3.40082 8.71456 3.2855C8.59924 3.17018 8.59924 2.98321 8.71456 2.86789L9.96738 1.61507C10.0827 1.49975 10.2697 1.49975 10.385 1.61507ZM3.28567 9.13204C3.40099 9.01672 3.40099 8.82975 3.28567 8.71443C3.17035 8.59912 2.98338 8.59912 2.86806 8.71443L1.61524 9.96726C1.49992 10.0826 1.49992 10.2695 1.61524 10.3849C1.73056 10.5002 1.91753 10.5002 2.03284 10.3849L3.28567 9.13204ZM11.99 7.60507C11.9477 7.7626 11.7858 7.85608 11.6283 7.81387L9.91691 7.35531C9.75938 7.3131 9.66589 7.15118 9.7081 6.99365C9.75031 6.83612 9.91223 6.74264 10.0698 6.78485L11.7811 7.24341C11.9387 7.28562 12.0322 7.44754 11.99 7.60507ZM1.93048 5.21524C2.08801 5.25745 2.24993 5.16397 2.29214 5.00644C2.33435 4.84891 2.24086 4.68699 2.08333 4.64478L0.371947 4.18621C0.214418 4.144 0.0524975 4.23749 0.0102878 4.39502C-0.031922 4.55255 0.0615627 4.71447 0.219092 4.75668L1.93048 5.21524Z" fill="#6C7288"/>
</svg>
