<svg width="16" height="16" viewBox="0 0 16 16" fill="none" xmlns="http://www.w3.org/2000/svg">
<path fill-rule="evenodd" clip-rule="evenodd" d="M5.85988 0.0135441C6.06992 -0.0427356 6.28581 0.0819106 6.34209 0.291949L6.95351 2.5738C7.00979 2.78384 6.88514 2.99973 6.6751 3.05601C6.46507 3.11229 6.24917 2.98764 6.19289 2.77761L5.58147 0.495756C5.52519 0.285717 5.64984 0.0698237 5.85988 0.0135441ZM11.9371 8C11.9371 10.1745 10.1743 11.9372 7.99985 11.9372C5.82537 11.9372 4.0626 10.1745 4.0626 8C4.0626 5.82552 5.82537 4.06276 7.99985 4.06276C10.1743 4.06276 11.9371 5.82552 11.9371 8ZM9.80679 13.2224C9.75051 13.0124 9.53461 12.8877 9.32457 12.944C9.11454 13.0003 8.98989 13.2162 9.04617 13.4262L9.65759 15.7081C9.71387 15.9181 9.92976 16.0428 10.1398 15.9865C10.3498 15.9302 10.4745 15.7143 10.4182 15.5043L9.80679 13.2224ZM13.8464 2.1535C14.0002 2.30726 14.0002 2.55655 13.8464 2.71031L12.176 4.38074C12.0222 4.5345 11.7729 4.5345 11.6192 4.38074C11.4654 4.22698 11.4654 3.97769 11.6192 3.82393L13.2896 2.1535C13.4434 1.99974 13.6927 1.99974 13.8464 2.1535ZM4.38071 12.1761C4.53447 12.0223 4.53447 11.773 4.38071 11.6193C4.22695 11.4655 3.97766 11.4655 3.8239 11.6193L2.15347 13.2897C1.99971 13.4435 1.99971 13.6928 2.15347 13.8465C2.30723 14.0003 2.55652 14.0003 2.71028 13.8465L4.38071 12.1761ZM15.9864 10.1399C15.9301 10.35 15.7142 10.4746 15.5042 10.4183L13.2223 9.80692C13.0123 9.75064 12.8877 9.53475 12.9439 9.32471C13.0002 9.11467 13.2161 8.99003 13.4261 9.04631L15.708 9.65773C15.918 9.71401 16.0427 9.9299 15.9864 10.1399ZM2.57377 6.95364C2.78381 7.00991 2.9997 6.88527 3.05598 6.67523C3.11226 6.46519 2.98761 6.2493 2.77758 6.19302L0.495725 5.5816C0.285687 5.52532 0.0697932 5.64996 0.0135136 5.86C-0.0427661 6.07004 0.0818801 6.28594 0.291919 6.34222L2.57377 6.95364Z" fill="#005EF4"/>
</svg>
