<svg height="24" viewBox="0 0 24 24" width="24" xmlns="http://www.w3.org/2000/svg" xmlns:xlink="http://www.w3.org/1999/xlink"><mask id="a" fill="#fff"><path d="m11.84 0c-6.54 0-11.84 5.013-11.84 11.196 0 3.469 1.668 6.568 4.286 8.622v4.182l4.03-2.111c1.113.327 2.296.504 3.523.504 6.539 0 11.84-5.013 11.84-11.197 0-6.183-5.301-11.196-11.84-11.196z" fill="#fff" fill-rule="evenodd"/></mask><g fill="none" fill-rule="evenodd"><path d="m11.84 0c-6.54 0-11.84 5.013-11.84 11.196 0 3.469 1.668 6.568 4.286 8.622v4.182l4.03-2.111c1.113.327 2.296.504 3.523.504 6.539 0 11.84-5.013 11.84-11.197 0-6.183-5.301-11.196-11.84-11.196z" fill="#f2f1f2" mask="url(#a)"/><path d="m3.964 15 6-3.214 3.107 3.321 6.429-7.071-6 3.214-3.107-3.107z" fill="#162036"/></g></svg>