<svg xmlns="http://www.w3.org/2000/svg" xmlns:xlink="http://www.w3.org/1999/xlink" width="24" height="24" viewBox="0 0 24 24">
    <defs>
        <path id="a" d="M11.84 0C5.3 0 0 5.013 0 11.196c0 3.469 1.668 6.568 4.286 8.622V24l4.03-2.111c1.113.327 2.296.504 3.523.504 6.539 0 11.84-5.013 11.84-11.197C23.679 5.013 18.378 0 11.839 0z"/>
    </defs>
    <g fill="none" fill-rule="evenodd">
        <g>
            <mask id="b" fill="#fff">
                <use xlink:href="#a"/>
            </mask>
            <path fill="#F2F1F2" d="M11.84 0C5.3 0 0 5.013 0 11.196c0 3.469 1.668 6.568 4.286 8.622V24l4.03-2.111c1.113.327 2.296.504 3.523.504 6.539 0 11.84-5.013 11.84-11.197C23.679 5.013 18.378 0 11.839 0z" mask="url(#b)"/>
        </g>
        <path fill="#162036" d="M3.964 15l6-3.214 3.107 3.321L19.5 8.036l-6 3.214-3.107-3.107z"/>
    </g>
</svg>
