<svg width="245" height="67" viewBox="0 0 245 67" fill="none" xmlns="http://www.w3.org/2000/svg">
<path d="M32 32.8C40.4 32.8 47 39.8 47 48H32.3H31.7H17C17 39.6 23.6 32.8 32 32.8Z" fill="white" stroke="#A2A3B8" stroke-width="3" stroke-miterlimit="10" stroke-linecap="round"/>
<path d="M32.2 16.6C36.7 16.6 40.2 20.2 40.2 24.6C40.2 29.1 36.6 32.6 32.2 32.6H31.9C27.4 32.6 23.9 29 23.9 24.6C23.9 20.1 27.5 16.6 31.9 16.6" stroke="#A2A3B8" stroke-width="3" stroke-miterlimit="10" stroke-linecap="round"/>
<path fill-rule="evenodd" clip-rule="evenodd" d="M64 57.4C64 56.1 62.9 55 61.6 55H56.8V50.2C56.8 48.9 55.7 47.8 54.4 47.8C53.1 47.8 52 48.9 52 50.2V55H47.2C45.9 55 44.8 56.1 44.8 57.4C44.8 58.7 45.9 59.8 47.2 59.8H52V64.6C52 65.9 53.1 67 54.4 67C55.7 67 56.8 65.9 56.8 64.6V59.8H61.6C62.9 59.8 64 58.7 64 57.4Z" fill="#5879DA"/>
<path d="M41.9 58.5C40.4 59.1 38.8 59.6 37.1 60C30.4 61.4 23.6 60 17.9 56.3C12.2 52.6 8.40002 46.8 7.00002 40.1C5.60002 33.4 7.00002 26.6 10.7 20.9C14.4 15.2 20.3 11.4 26.9 10C28.6 9.7 30.3 9.5 32 9.5C37 9.5 41.8 11 46 13.7C51.7 17.5 55.6 23.2 56.9 29.9C58 35.1 57.3 40.3 55.4 44.9C56.4 45.1 57.3 45.6 58.1 46.3C60.3 41.1 61.1 35.2 59.9 29.3C58.4 21.8 54.1 15.4 47.7 11.2C41.4 7 33.8 5.6 26.3 7.1C18.9 8.6 12.4 12.9 8.20002 19.3C4.00002 25.6 2.50002 33.3 4.00002 40.7C5.50002 48.2 9.80002 54.6 16.2 58.8C20.9 61.9 26.3 63.5 31.9 63.5C33.8 63.5 35.7 63.3 37.6 62.9C39.6 62.5 41.5 61.9 43.2 61.1C42.6 60.4 42.1 59.5 41.9 58.5Z" fill="#A2A3B8"/>
<path fill-rule="evenodd" clip-rule="evenodd" d="M13.7 4.1C13.7 4.7 14.2 5.2 14.8 5.2C15.4 5.2 15.9 4.7 15.9 4.1C16 3.5 15.5 3 14.9 3C14.2 3 13.7 3.5 13.7 4.1ZM9.1 4.1C9.1 4.7 9.6 5.2 10.2 5.2C10.8 5.2 11.3 4.7 11.3 4.1C11.3 3.5 10.8 3 10.2 3C9.7 3 9.1 3.5 9.1 4.1ZM5.7 5.3C5.1 5.3 4.6 4.8 4.6 4.2C4.6 3.5 5.1 3 5.7 3C6.3 3 6.8 3.5 6.8 4.1C6.9 4.8 6.3 5.3 5.7 5.3ZM0 4.1C0 4.7 0.5 5.2 1.1 5.2C1.7 5.2 2.2 4.7 2.2 4.1C2.3 3.5 1.8 3 1.1 3C0.5 3 0 3.5 0 4.1ZM14.9 12.1C14.3 12.1 13.8 11.6 13.8 11C13.8 10.4 14.3 9.9 14.9 9.9C15.5 9.9 16 10.4 16 11C16 11.6 15.5 12.1 14.9 12.1ZM9.1 11C9.1 11.6 9.6 12.1 10.2 12.1C10.8 12.1 11.3 11.6 11.3 11C11.3 10.4 10.8 9.9 10.2 9.9C9.7 9.9 9.1 10.4 9.1 11ZM5.7 12.1C5.1 12.1 4.6 11.6 4.6 11C4.6 10.4 5.1 9.9 5.7 9.9C6.3 9.9 6.9 10.4 6.9 11C6.9 11.6 6.3 12.1 5.7 12.1ZM0 11C0 11.6 0.5 12.1 1.1 12.1C1.7 12.1 2.2 11.6 2.2 11C2.2 10.4 1.8 9.9 1.1 9.9C0.5 9.9 0 10.4 0 11Z" fill="#FE5E00"/>
<path fill-rule="evenodd" clip-rule="evenodd" d="M13.7 11C13.7 11.6 14.2 12.1 14.8 12.1C15.5 12.1 16 11.6 16 11C16 10.4 15.5 9.89999 14.9 9.89999C14.2 9.89999 13.7 10.4 13.7 11ZM9.1 11C9.1 11.6 9.6 12.1 10.2 12.1C10.8 12.1 11.3 11.6 11.3 11C11.3 10.4 10.8 9.89999 10.2 9.89999C9.7 9.89999 9.1 10.4 9.1 11ZM5.7 12.1C5.1 12.1 4.6 11.6 4.6 11C4.6 10.4 5.1 9.89999 5.7 9.89999C6.3 9.89999 6.9 10.4 6.9 11C6.9 11.6 6.3 12.1 5.7 12.1ZM0 11C0 11.6 0.5 12.1 1.1 12.1C1.7 12.1 2.2 11.6 2.2 11C2.2 10.4 1.7 9.89999 1.1 9.89999C0.5 9.89999 0 10.4 0 11ZM14.9 19C14.3 19 13.8 18.5 13.8 17.9C13.8 17.3 14.3 16.8 14.9 16.8C15.5 16.8 16 17.3 16 17.9C16 18.5 15.5 19 14.9 19ZM9.1 17.9C9.1 18.5 9.6 19 10.2 19C10.8 19 11.3 18.5 11.3 17.9C11.3 17.3 10.8 16.8 10.2 16.8C9.7 16.7 9.1 17.2 9.1 17.9ZM5.7 19C5.1 19 4.6 18.5 4.6 17.9C4.6 17.3 5.1 16.8 5.7 16.8C6.3 16.8 6.8 17.3 6.8 17.9C6.9 18.5 6.3 19 5.7 19ZM0 17.9C0 18.5 0.5 19 1.1 19C1.7 19 2.2 18.5 2.2 17.9C2.2 17.3 1.7 16.8 1.1 16.8C0.5 16.7 0 17.2 0 17.9Z" fill="#FE5E00"/>
<path d="M121 62.8C104.5 62.8 91 49.3 91 32.8C91 16.3 104.5 2.80002 121 2.80002C137.5 2.80002 151 16.3 151 32.8C151 49.3 137.5 62.8 121 62.8ZM121 5.80002C106.1 5.80002 94 17.9 94 32.8C94 47.7 106.1 59.8 121 59.8C135.9 59.8 148 47.7 148 32.8C148 17.9 135.9 5.80002 121 5.80002Z" fill="#A2A3B8"/>
<path fill-rule="evenodd" clip-rule="evenodd" d="M104.7 54.9C104.7 55.5 105.2 56 105.8 56C106.4 56 106.9 55.5 106.9 54.9C106.9 54.3 106.4 53.8 105.8 53.8C105.2 53.8 104.7 54.3 104.7 54.9ZM100.1 54.9C100.1 55.5 100.6 56 101.2 56C101.8 56 102.3 55.5 102.3 54.9C102.3 54.3 101.8 53.8 101.2 53.8C100.7 53.8 100.1 54.3 100.1 54.9ZM96.7 56.1C96.1 56.1 95.6 55.6 95.6 55C95.6 54.4 96.1 53.9 96.7 53.9C97.3 53.9 97.8 54.4 97.8 55C97.9 55.6 97.3 56.1 96.7 56.1ZM91 54.9C91 55.5 91.5 56 92.1 56C92.7 56 93.2 55.5 93.2 54.9C93.2 54.3 92.7 53.8 92.1 53.8C91.5 53.8 91 54.3 91 54.9ZM105.9 62.9C105.3 62.9 104.8 62.4 104.8 61.8C104.8 61.2 105.3 60.7 105.9 60.7C106.5 60.7 107 61.2 107 61.8C107 62.4 106.5 62.9 105.9 62.9ZM100.1 61.8C100.1 62.4 100.6 62.9 101.2 62.9C101.8 62.9 102.3 62.4 102.3 61.8C102.3 61.2 101.8 60.7 101.2 60.7C100.7 60.7 100.1 61.2 100.1 61.8ZM96.7 62.9C96.1 62.9 95.6 62.4 95.6 61.8C95.6 61.2 96.1 60.7 96.7 60.7C97.3 60.7 97.8 61.2 97.8 61.8C97.8 62.4 97.3 62.9 96.7 62.9ZM91 61.8C91 62.4 91.5 62.9 92.1 62.9C92.7 62.9 93.2 62.4 93.2 61.8C93.2 61.2 92.7 60.7 92.1 60.7C91.5 60.7 91 61.2 91 61.8Z" fill="#FE5E00"/>
<path fill-rule="evenodd" clip-rule="evenodd" d="M149.7 3.80001C149.7 4.40001 150.2 4.90001 150.8 4.90001C151.5 4.90001 152 4.40001 152 3.80001C152 3.20001 151.5 2.70001 150.9 2.70001C150.2 2.70001 149.7 3.20001 149.7 3.80001ZM145.1 3.80001C145.1 4.40001 145.6 4.90001 146.2 4.90001C146.8 4.90001 147.3 4.40001 147.3 3.80001C147.3 3.20001 146.8 2.70001 146.2 2.70001C145.7 2.70001 145.1 3.20001 145.1 3.80001ZM141.7 4.90001C141.1 4.90001 140.6 4.40001 140.6 3.80001C140.6 3.20001 141.1 2.70001 141.7 2.70001C142.3 2.70001 142.8 3.20001 142.8 3.80001C142.9 4.40001 142.3 4.90001 141.7 4.90001ZM136 3.80001C136 4.40001 136.5 4.90001 137.1 4.90001C137.7 4.90001 138.2 4.40001 138.2 3.80001C138.2 3.20001 137.7 2.70001 137.1 2.70001C136.5 2.70001 136 3.20001 136 3.80001ZM150.9 11.8C150.3 11.8 149.8 11.3 149.8 10.7C149.8 10.1 150.3 9.60001 150.9 9.60001C151.5 9.60001 152 10.1 152 10.7C152 11.3 151.5 11.8 150.9 11.8ZM145.1 10.7C145.1 11.3 145.6 11.8 146.2 11.8C146.8 11.8 147.3 11.3 147.3 10.7C147.3 10.1 146.8 9.60001 146.2 9.60001C145.7 9.50001 145.1 10 145.1 10.7ZM141.7 11.8C141.1 11.8 140.6 11.3 140.6 10.7C140.6 10.1 141.1 9.60001 141.7 9.60001C142.3 9.60001 142.8 10.1 142.8 10.7C142.9 11.3 142.3 11.8 141.7 11.8ZM136 10.7C136 11.3 136.5 11.8 137.1 11.8C137.7 11.8 138.2 11.3 138.2 10.7C138.2 10.1 137.7 9.60001 137.1 9.60001C136.5 9.50001 136 10 136 10.7Z" fill="#FE5E00"/>
<path d="M105.1 33.8V30.9C105.7 30.9 106.1 30.8 106.4 30.6C106.7 30.4 107 30.2 107.2 29.9C107.4 29.6 107.6 29.1 107.7 28.6C107.8 28.2 107.8 27.5 107.8 26.6C107.8 25 107.9 23.9 108 23.3C108.1 22.7 108.4 22.2 108.8 21.8C109.2 21.4 109.7 21.1 110.5 20.9C111 20.8 111.8 20.7 112.8 20.7H113.4V23.6C112.5 23.6 111.9 23.7 111.7 23.8C111.4 23.9 111.3 24.1 111.1 24.3C111 24.5 110.9 24.9 110.9 25.4C110.9 25.9 110.9 26.9 110.8 28.3C110.8 29.1 110.7 29.8 110.5 30.3C110.3 30.8 110.1 31.2 109.8 31.5C109.5 31.8 109.1 32.2 108.6 32.5C109.1 32.8 109.5 33.1 109.8 33.5C110.1 33.9 110.3 34.3 110.5 34.8C110.7 35.3 110.8 36 110.8 36.9C110.9 38.3 110.9 39.1 110.9 39.5C110.9 40 111 40.4 111.1 40.6C111.2 40.8 111.4 41 111.7 41.1C112 41.2 112.5 41.3 113.4 41.3V44.2H112.8C111.7 44.2 110.9 44.1 110.3 43.9C109.7 43.7 109.2 43.4 108.8 43C108.4 42.6 108.1 42.1 108 41.5C107.9 40.9 107.8 40 107.8 38.7C107.8 37.2 107.7 36.2 107.6 35.8C107.4 35.1 107.1 34.7 106.8 34.4C106.4 34 105.8 33.9 105.1 33.8Z" fill="#5879DA"/>
<path d="M136.8 33.8C136.2 33.8 135.8 33.9 135.5 34.1C135.2 34.2 134.9 34.5 134.7 34.8C134.5 35.1 134.3 35.6 134.2 36.1C134.1 36.5 134.1 37.2 134.1 38.1C134.1 39.7 134 40.8 133.9 41.4C133.8 42 133.5 42.5 133.1 42.9C132.7 43.3 132.2 43.6 131.4 43.8C130.9 43.9 130.1 44 129.1 44H128.5V41.1C129.4 41.1 129.9 41 130.2 40.9C130.5 40.8 130.7 40.6 130.8 40.4C130.9 40.2 131 39.8 131 39.3C131 38.8 131 37.9 131.1 36.5C131.1 35.7 131.3 35 131.4 34.5C131.6 34 131.8 33.6 132.1 33.2C132.4 32.8 132.8 32.5 133.2 32.3C132.6 31.9 132.2 31.5 131.9 31.2C131.5 30.7 131.3 30 131.1 29.1C131 28.5 130.9 27.3 130.9 25.3C130.9 24.7 130.8 24.3 130.7 24.1C130.6 23.9 130.4 23.7 130.2 23.6C129.9 23.5 129.3 23.4 128.4 23.4V20.5H129C130.1 20.5 130.9 20.6 131.5 20.8C132.1 21 132.6 21.3 133 21.7C133.4 22.1 133.7 22.6 133.8 23.2C133.9 23.8 134 24.7 134 26C134 27.5 134.1 28.5 134.2 28.9C134.4 29.6 134.7 30 135 30.3C135.4 30.6 135.9 30.7 136.7 30.8V33.8H136.8Z" fill="#5879DA"/>
<path d="M115 34.8C116.105 34.8 117 33.9046 117 32.8C117 31.6954 116.105 30.8 115 30.8C113.895 30.8 113 31.6954 113 32.8C113 33.9046 113.895 34.8 115 34.8Z" fill="#A2A3B8"/>
<path d="M121 34.8C122.105 34.8 123 33.9046 123 32.8C123 31.6954 122.105 30.8 121 30.8C119.895 30.8 119 31.6954 119 32.8C119 33.9046 119.895 34.8 121 34.8Z" fill="#A2A3B8"/>
<path d="M127 34.8C128.105 34.8 129 33.9046 129 32.8C129 31.6954 128.105 30.8 127 30.8C125.895 30.8 125 31.6954 125 32.8C125 33.9046 125.895 34.8 127 34.8Z" fill="#A2A3B8"/>
<path d="M212.3 55.1V60.8C212.3 62.4 213.3 63.7 215.2 63.7C217.1 63.7 218.3 63.3 218.3 63.3C230.7 60.6 240 49.6 240 36.4C240 21.2 227.7 8.90002 212.5 8.90002C197.3 8.90002 185 21.2 185 36.4C185 45.3 189.3 53.3 195.9 58.3" stroke="#A2A3B8" stroke-width="3" stroke-miterlimit="10" stroke-linecap="round"/>
<path d="M214.8 32V25.6C214.8 24.7 215.5 24 216.4 24H218.3C219.2 24 219.9 24.7 219.9 25.6V32" fill="#5879DA"/>
<path d="M205.1 32V25.6C205.1 24.7 205.8 24 206.7 24H208.6C209.5 24 210.2 24.7 210.2 25.6V32" fill="#5879DA"/>
<path d="M222.5 34.6405V46.8027C222.5 48.8459 220.968 50.5 219.077 50.5H205.833C204.032 50.5 202.5 48.9432 202.5 46.9V32.5H222.41C222.5 32.5 222.5 34.3486 222.5 34.6405Z" stroke="#5879DA" stroke-width="3" stroke-miterlimit="10"/>
<path d="M214.4 46.1C216.7 46.1 218.6 44.2 218.6 41.9V37.2" fill="white"/>
<path d="M214.4 46.1C216.7 46.1 218.6 44.2 218.6 41.9V37.2" stroke="#FF720B" stroke-width="2.2684" stroke-miterlimit="10" stroke-linecap="round"/>
<path fill-rule="evenodd" clip-rule="evenodd" d="M217.7 4.80001C217.7 5.40001 218.2 5.90001 218.8 5.90001C219.4 5.90001 219.9 5.40001 219.9 4.80001C220 4.20001 219.5 3.70001 218.9 3.70001C218.2 3.70001 217.7 4.20001 217.7 4.80001ZM213.1 4.80001C213.1 5.40001 213.6 5.90001 214.2 5.90001C214.8 5.90001 215.3 5.40001 215.3 4.80001C215.3 4.20001 214.8 3.70001 214.2 3.70001C213.7 3.70001 213.1 4.20001 213.1 4.80001ZM209.7 6.00001C209.1 6.00001 208.6 5.50001 208.6 4.90001C208.6 4.30001 209.1 3.80001 209.7 3.80001C210.3 3.80001 210.8 4.30001 210.8 4.90001C210.9 5.50001 210.3 6.00001 209.7 6.00001ZM204 4.80001C204 5.40001 204.5 5.90001 205.1 5.90001C205.7 5.90001 206.2 5.40001 206.2 4.80001C206.2 4.20001 205.7 3.70001 205.1 3.70001C204.5 3.70001 204 4.20001 204 4.80001ZM218.9 12.8C218.3 12.8 217.8 12.3 217.8 11.7C217.8 11.1 218.3 10.6 218.9 10.6C219.5 10.6 220 11.1 220 11.7C220 12.3 219.5 12.8 218.9 12.8ZM213.1 11.7C213.1 12.3 213.6 12.8 214.2 12.8C214.8 12.8 215.3 12.3 215.3 11.7C215.3 11.1 214.8 10.6 214.2 10.6C213.7 10.6 213.1 11.1 213.1 11.7ZM209.7 12.8C209.1 12.8 208.6 12.3 208.6 11.7C208.6 11.1 209.1 10.6 209.7 10.6C210.3 10.6 210.8 11.1 210.8 11.7C210.9 12.3 210.3 12.8 209.7 12.8ZM204 11.7C204 12.3 204.5 12.8 205.1 12.8C205.7 12.8 206.2 12.3 206.2 11.7C206.2 11.1 205.7 10.6 205.1 10.6C204.5 10.6 204 11.1 204 11.7Z" fill="#FE5E00"/>
<path fill-rule="evenodd" clip-rule="evenodd" d="M217.7 11.8C217.7 12.4 218.2 12.9 218.8 12.9C219.4 12.9 219.9 12.4 219.9 11.8C220 11.2 219.5 10.7 218.9 10.7C218.2 10.7 217.7 11.2 217.7 11.8ZM213.1 11.8C213.1 12.4 213.6 12.9 214.2 12.9C214.8 12.9 215.3 12.4 215.3 11.8C215.3 11.2 214.8 10.7 214.2 10.7C213.7 10.7 213.1 11.2 213.1 11.8ZM209.7 13C209.1 13 208.6 12.5 208.6 11.9C208.6 11.3 209.1 10.8 209.7 10.8C210.3 10.8 210.8 11.3 210.8 11.9C210.9 12.5 210.3 13 209.7 13ZM204 11.8C204 12.4 204.5 12.9 205.1 12.9C205.7 12.9 206.2 12.4 206.2 11.8C206.2 11.2 205.7 10.7 205.1 10.7C204.5 10.7 204 11.2 204 11.8ZM218.9 19.8C218.3 19.8 217.8 19.3 217.8 18.7C217.8 18.1 218.3 17.6 218.9 17.6C219.5 17.6 220 18.1 220 18.7C220 19.3 219.5 19.8 218.9 19.8ZM213.1 18.7C213.1 19.3 213.6 19.8 214.2 19.8C214.8 19.8 215.3 19.3 215.3 18.7C215.3 18.1 214.8 17.6 214.2 17.6C213.7 17.6 213.1 18.1 213.1 18.7ZM209.7 19.8C209.1 19.8 208.6 19.3 208.6 18.7C208.6 18.1 209.1 17.6 209.7 17.6C210.3 17.6 210.8 18.1 210.8 18.7C210.9 19.3 210.3 19.8 209.7 19.8ZM204 18.7C204 19.3 204.5 19.8 205.1 19.8C205.7 19.8 206.2 19.3 206.2 18.7C206.2 18.1 205.7 17.6 205.1 17.6C204.5 17.6 204 18.1 204 18.7Z" fill="#FE5E00"/>
<rect x="206.201" y="53.0403" width="12" height="3" rx="1.5" fill="#5879DA"/>
</svg>
