<svg width="44" height="44" viewBox="0 0 44 44" fill="none" xmlns="http://www.w3.org/2000/svg">
<path d="M6.5 26.0159V7.5H37.5V25.6722C37.5 28.9388 35.8217 31.9763 33.0562 33.7149L23.6749 39.6127C22.1439 40.5752 20.1854 40.5277 18.7029 39.4921L10.5598 33.804C8.01572 32.0269 6.5 29.1192 6.5 26.0159Z" stroke="#A2A3B8" stroke-width="3"/>
<path d="M22 30C26.4183 30 30 26.4183 30 22C30 17.5817 26.4183 14 22 14C17.5817 14 14 17.5817 14 22C14 26.4183 17.5817 30 22 30Z" stroke="#5879DA" stroke-width="2"/>
<path fill-rule="evenodd" clip-rule="evenodd" d="M19.0729 24.5686L17 22.4957L18.4142 21.0815L20.4871 23.1544L24.7298 18.9118L26.144 20.326L20.4871 25.9828L19.8284 25.3241L19.0729 24.5686Z" fill="#5879DA"/>
<path fill-rule="evenodd" clip-rule="evenodd" d="M12 12C12 12.552 12.4477 13 13 13C13.5523 13 14 12.552 14 12C14 11.448 13.5523 11 13 11C12.4477 11 12 11.448 12 12ZM8 12C8 12.552 8.4477 13 9 13C9.5523 13 10 12.552 10 12C10 11.448 9.5523 11 9 11C8.4477 11 8 11.448 8 12ZM5 13C4.4477 13 4 12.552 4 12C4 11.448 4.4477 11 5 11C5.5523 11 6 11.448 6 12C6 12.552 5.5523 13 5 13ZM0 12C0 12.552 0.4477 13 1 13C1.5523 13 2 12.552 2 12C2 11.448 1.5523 11 1 11C0.4477 11 0 11.448 0 12ZM13 19C12.4477 19 12 18.552 12 18C12 17.448 12.4477 17 13 17C13.5523 17 14 17.448 14 18C14 18.552 13.5523 19 13 19ZM8 18C8 18.552 8.4477 19 9 19C9.5523 19 10 18.552 10 18C10 17.448 9.5523 17 9 17C8.4477 17 8 17.448 8 18ZM5 19C4.4477 19 4 18.552 4 18C4 17.448 4.4477 17 5 17C5.5523 17 6 17.448 6 18C6 18.552 5.5523 19 5 19ZM0 18C0 18.552 0.4477 19 1 19C1.5523 19 2 18.552 2 18C2 17.448 1.5523 17 1 17C0.4477 17 0 17.448 0 18Z" fill="#FE5E00"/>
</svg>
