<svg width="44" height="44" viewBox="0 0 44 44" fill="none" xmlns="http://www.w3.org/2000/svg">
<path d="M5 8H25C26.3807 8 27.5 9.119 27.5 10.5V31.448V34.5C27.5 35.881 26.3807 37 25 37H22.4118H5C3.6193 37 2.5 35.881 2.5 34.5V31.448V10.5C2.5 9.119 3.6193 8 5 8Z" stroke="#A5A7B8" stroke-width="3"/>
<path fill-rule="evenodd" clip-rule="evenodd" d="M36 15.5C36 16.052 36.4477 16.5 37 16.5C37.5523 16.5 38 16.052 38 15.5C38 14.948 37.5523 14.5 37 14.5C36.4477 14.5 36 14.948 36 15.5ZM32 15.5C32 16.052 32.4477 16.5 33 16.5C33.5523 16.5 34 16.052 34 15.5C34 14.948 33.5523 14.5 33 14.5C32.4477 14.5 32 14.948 32 15.5ZM29 16.5C28.4477 16.5 28 16.052 28 15.5C28 14.948 28.4477 14.5 29 14.5C29.5523 14.5 30 14.948 30 15.5C30 16.052 29.5523 16.5 29 16.5ZM24 15.5C24 16.052 24.4477 16.5 25 16.5C25.5523 16.5 26 16.052 26 15.5C26 14.948 25.5523 14.5 25 14.5C24.4477 14.5 24 14.948 24 15.5ZM37 22.5C36.4477 22.5 36 22.052 36 21.5C36 20.948 36.4477 20.5 37 20.5C37.5523 20.5 38 20.948 38 21.5C38 22.052 37.5523 22.5 37 22.5ZM32 21.5C32 22.052 32.4477 22.5 33 22.5C33.5523 22.5 34 22.052 34 21.5C34 20.948 33.5523 20.5 33 20.5C32.4477 20.5 32 20.948 32 21.5ZM29 22.5C28.4477 22.5 28 22.052 28 21.5C28 20.948 28.4477 20.5 29 20.5C29.5523 20.5 30 20.948 30 21.5C30 22.052 29.5523 22.5 29 22.5ZM24 21.5C24 22.052 24.4477 22.5 25 22.5C25.5523 22.5 26 22.052 26 21.5C26 20.948 25.5523 20.5 25 20.5C24.4477 20.5 24 20.948 24 21.5Z" fill="#FE5E00"/>
<path fill-rule="evenodd" clip-rule="evenodd" d="M36 21.5C36 22.052 36.4477 22.5 37 22.5C37.5523 22.5 38 22.052 38 21.5C38 20.948 37.5523 20.5 37 20.5C36.4477 20.5 36 20.948 36 21.5ZM32 21.5C32 22.052 32.4477 22.5 33 22.5C33.5523 22.5 34 22.052 34 21.5C34 20.948 33.5523 20.5 33 20.5C32.4477 20.5 32 20.948 32 21.5ZM29 22.5C28.4477 22.5 28 22.052 28 21.5C28 20.948 28.4477 20.5 29 20.5C29.5523 20.5 30 20.948 30 21.5C30 22.052 29.5523 22.5 29 22.5ZM24 21.5C24 22.052 24.4477 22.5 25 22.5C25.5523 22.5 26 22.052 26 21.5C26 20.948 25.5523 20.5 25 20.5C24.4477 20.5 24 20.948 24 21.5ZM37 28.5C36.4477 28.5 36 28.052 36 27.5C36 26.948 36.4477 26.5 37 26.5C37.5523 26.5 38 26.948 38 27.5C38 28.052 37.5523 28.5 37 28.5ZM32 27.5C32 28.052 32.4477 28.5 33 28.5C33.5523 28.5 34 28.052 34 27.5C34 26.948 33.5523 26.5 33 26.5C32.4477 26.5 32 26.948 32 27.5ZM29 28.5C28.4477 28.5 28 28.052 28 27.5C28 26.948 28.4477 26.5 29 26.5C29.5523 26.5 30 26.948 30 27.5C30 28.052 29.5523 28.5 29 28.5ZM24 27.5C24 28.052 24.4477 28.5 25 28.5C25.5523 28.5 26 28.052 26 27.5C26 26.948 25.5523 26.5 25 26.5C24.4477 26.5 24 26.948 24 27.5Z" fill="#FE5E00"/>
<path d="M19 15.5H11C10.4477 15.5 10 15.9477 10 16.5C10 17.0523 10.4477 17.5 11 17.5H19C19.5523 17.5 20 17.0523 20 16.5C20 15.9477 19.5523 15.5 19 15.5Z" fill="#5879DA"/>
<path d="M19 21.5H11C10.4477 21.5 10 21.9477 10 22.5C10 23.0523 10.4477 23.5 11 23.5H19C19.5523 23.5 20 23.0523 20 22.5C20 21.9477 19.5523 21.5 19 21.5Z" fill="#5879DA"/>
<path d="M19 27.5H11C10.4477 27.5 10 27.9477 10 28.5C10 29.0523 10.4477 29.5 11 29.5H19C19.5523 29.5 20 29.0523 20 28.5C20 27.9477 19.5523 27.5 19 27.5Z" fill="#5879DA"/>
</svg>
