<svg width="44" height="44" viewBox="0 0 44 44" fill="none" xmlns="http://www.w3.org/2000/svg">
<path d="M25.5 1C15.8505 1 8 8.4585 8 17.625C8 22.0787 9.904 26.3531 13.25 29.4751V37.0801L20.3901 33.5117C22.0684 34 23.785 34.25 25.5 34.25C35.1495 34.25 43 26.7915 43 17.625C43 8.4585 35.1495 1 25.5 1ZM25.5 4.5C33.2192 4.5 39.5 10.3887 39.5 17.625C39.5 24.8612 33.2192 30.75 25.5 30.75C24.1192 30.75 22.7274 30.5474 21.3677 30.1519L20.0518 29.769L18.8247 30.3809L16.75 31.4199V29.4751V27.9541L15.6357 26.9185C13.0072 24.465 11.5 21.076 11.5 17.625C11.5 10.3887 17.7808 4.5 25.5 4.5ZM23.75 13.25L15 22L22.875 18.5L27.25 22L36 13.25L28.125 16.75L23.75 13.25Z" fill="#A5A7B8"/>
<path d="M23.9208 13.2927L15.1708 22.0427L23.0458 18.5427L27.4208 22.0427L36.1708 13.2927L28.2958 16.7927L23.9208 13.2927Z" fill="#5879DA"/>
<path fill-rule="evenodd" clip-rule="evenodd" d="M10 29C10 29.552 10.4477 30 11 30C11.5523 30 12 29.552 12 29C12 28.448 11.5523 28 11 28C10.4477 28 10 28.448 10 29ZM7 30C6.4477 30 6 29.552 6 29C6 28.448 6.4477 28 7 28C7.5523 28 8 28.448 8 29C8 29.552 7.5523 30 7 30ZM2 29C2 29.552 2.4477 30 3 30C3.5523 30 4 29.552 4 29C4 28.448 3.5523 28 3 28C2.4477 28 2 28.448 2 29ZM10 35C10 35.552 10.4477 36 11 36C11.5523 36 12 35.552 12 35C12 34.448 11.5523 34 11 34C10.4477 34 10 34.448 10 35ZM7 36C6.4477 36 6 35.552 6 35C6 34.448 6.4477 34 7 34C7.5523 34 8 34.448 8 35C8 35.552 7.5523 36 7 36ZM2 35C2 35.552 2.4477 36 3 36C3.5523 36 4 35.552 4 35C4 34.448 3.5523 34 3 34C2.4477 34 2 34.448 2 35Z" fill="#FE5E00"/>
<path fill-rule="evenodd" clip-rule="evenodd" d="M10 35C10 35.552 10.4477 36 11 36C11.5523 36 12 35.552 12 35C12 34.448 11.5523 34 11 34C10.4477 34 10 34.448 10 35ZM7 36C6.4477 36 6 35.552 6 35C6 34.448 6.4477 34 7 34C7.5523 34 8 34.448 8 35C8 35.552 7.5523 36 7 36ZM2 35C2 35.552 2.4477 36 3 36C3.5523 36 4 35.552 4 35C4 34.448 3.5523 34 3 34C2.4477 34 2 34.448 2 35ZM15 42C14.4477 42 14 41.552 14 41C14 40.448 14.4477 40 15 40C15.5523 40 16 40.448 16 41C16 41.552 15.5523 42 15 42ZM10 41C10 41.552 10.4477 42 11 42C11.5523 42 12 41.552 12 41C12 40.448 11.5523 40 11 40C10.4477 40 10 40.448 10 41ZM7 42C6.4477 42 6 41.552 6 41C6 40.448 6.4477 40 7 40C7.5523 40 8 40.448 8 41C8 41.552 7.5523 42 7 42ZM2 41C2 41.552 2.4477 42 3 42C3.5523 42 4 41.552 4 41C4 40.448 3.5523 40 3 40C2.4477 40 2 40.448 2 41Z" fill="#FE5E00"/>
</svg>
