<svg width="30" height="32" viewBox="0 0 30 32" fill="none" xmlns="http://www.w3.org/2000/svg">
<path d="M29 29.004C29 29.5344 28.7893 30.0431 28.4142 30.4182C28.0391 30.7933 27.5304 31.004 27 31.004H3C2.46957 31.004 1.96086 30.7933 1.58579 30.4182C1.21071 30.0431 1 29.5344 1 29.004V3.004C1 2.47357 1.21071 1.96486 1.58579 1.58979C1.96086 1.21472 2.46957 1.004 3 1.004H23.06C23.5822 1.00406 24.0838 1.2084 24.4573 1.57333L28.3973 5.416C28.5882 5.60242 28.7399 5.82516 28.8434 6.07109C28.9469 6.31702 29.0001 6.58118 29 6.848V29.004Z" stroke="#292B33" stroke-width="2" stroke-linecap="round" stroke-linejoin="round"/>
<path d="M13 11.004H12C11.5067 10.9705 11.02 11.1329 10.6456 11.4559C10.2712 11.7788 10.0392 12.2364 10 12.7293V14.392C9.99194 14.6886 9.90523 14.9777 9.74873 15.2298C9.59224 15.4819 9.37158 15.6879 9.10933 15.8267L7 17.04L9.10933 18.252C9.3714 18.391 9.59191 18.597 9.74838 18.8491C9.90484 19.1011 9.99167 19.3901 10 19.6867V21.3507C10.0392 21.8435 10.2712 22.3009 10.6457 22.6237C11.0201 22.9465 11.5068 23.1085 12 23.0747H13" stroke="#292B33" stroke-width="2" stroke-linecap="round" stroke-linejoin="round"/>
<path d="M17 11.004H18C18.4934 10.9702 18.9803 11.1324 19.3548 11.4554C19.7292 11.7785 19.9611 12.2363 20 12.7293V14.392C20.0081 14.6886 20.0948 14.9777 20.2513 15.2298C20.4078 15.4819 20.6284 15.6879 20.8907 15.8267L23 17.04L20.8907 18.252C20.6286 18.391 20.4081 18.597 20.2516 18.8491C20.0952 19.1011 20.0083 19.3901 20 19.6867V21.3507C19.9608 21.8435 19.7288 22.3009 19.3543 22.6237C18.9799 22.9465 18.4932 23.1085 18 23.0747H17" stroke="#292B33" stroke-width="2" stroke-linecap="round" stroke-linejoin="round"/>
</svg>
