<svg width="33" height="32" viewBox="0 0 33 32" fill="none" xmlns="http://www.w3.org/2000/svg">
<path d="M1.83333 24.1693L16.5 28.1693" stroke="currentColor" stroke-width="2" stroke-linecap="round" stroke-linejoin="round"/>
<path d="M16.5 28.1693L31.1667 24.1693" stroke="currentColor" stroke-width="2" stroke-linecap="round" stroke-linejoin="round"/>
<path d="M1.83333 24.1693L9.15733 22.2507" stroke="currentColor" stroke-width="2" stroke-linecap="round" stroke-linejoin="round"/>
<path d="M1.83333 30.2507V24.336" stroke="currentColor" stroke-width="2" stroke-linecap="round" stroke-linejoin="round"/>
<path d="M31.1667 24.336V30.2507" stroke="currentColor" stroke-width="2" stroke-linecap="round" stroke-linejoin="round"/>
<path d="M16.5 30.9173V28.1693" stroke="currentColor" stroke-width="2" stroke-linecap="round" stroke-linejoin="round"/>
<path d="M21.1667 8.08267C21.1667 10.66 20.3893 17.416 16.5 17.416C12.6107 17.416 11.8333 10.6667 11.8333 8.08267C11.8333 3.41601 16.5 1.08267 16.5 1.08267C16.5 1.08267 21.1667 3.41601 21.1667 8.08267Z" stroke="currentColor" stroke-width="2" stroke-linecap="round" stroke-linejoin="round"/>
<path d="M16.5 8.25067C16.6841 8.25067 16.8333 8.10143 16.8333 7.91733C16.8333 7.73324 16.6841 7.584 16.5 7.584C16.3159 7.584 16.1667 7.73324 16.1667 7.91733C16.1667 8.10143 16.3159 8.25067 16.5 8.25067Z" stroke="currentColor" stroke-width="2" stroke-linecap="round" stroke-linejoin="round"/>
<path d="M13.8467 23.8413V22.4973C13.9536 21.861 14.2858 21.2844 14.7826 20.8726C15.2793 20.4608 15.9076 20.2414 16.5527 20.2543C17.1978 20.2673 17.8168 20.5117 18.2966 20.9431C18.7765 21.3744 19.0853 21.9639 19.1667 22.604V23.8413" stroke="currentColor" stroke-width="2" stroke-linecap="round" stroke-linejoin="round"/>
<path d="M13.4107 16.2147L12.3333 16.7547C11.7242 17.078 11.1662 17.4896 10.6773 17.976C10.5603 18.1015 10.4088 18.1896 10.2419 18.2293C10.075 18.269 9.90004 18.2585 9.73907 18.1991C9.5781 18.1397 9.43827 18.0341 9.33714 17.8954C9.23601 17.7568 9.17809 17.5914 9.17066 17.42C9.05637 16.4209 9.26918 15.4117 9.77716 14.5438C10.2851 13.6759 11.0609 12.9962 11.988 12.6067" stroke="currentColor" stroke-width="2" stroke-linecap="round" stroke-linejoin="round"/>
<path d="M19.5893 16.2147L20.6667 16.7547C21.2758 17.078 21.8338 17.4896 22.3227 17.976C22.4397 18.1015 22.5911 18.1896 22.7581 18.2293C22.925 18.269 23.0999 18.2585 23.2609 18.1991C23.4219 18.1397 23.5617 18.0341 23.6628 17.8954C23.764 17.7568 23.8219 17.5914 23.8293 17.42C23.9436 16.4209 23.7308 15.4117 23.2228 14.5438C22.7148 13.6759 21.9391 12.9962 21.012 12.6067" stroke="currentColor" stroke-width="2" stroke-linecap="round" stroke-linejoin="round"/>
<path d="M31.1667 24.1693L23.8427 22.2507" stroke="currentColor" stroke-width="2" stroke-linecap="round" stroke-linejoin="round"/>
</svg>
