<svg width="44" height="44" viewBox="0 0 44 44" fill="none" xmlns="http://www.w3.org/2000/svg">
<mask id="mask0" mask-type="alpha" maskUnits="userSpaceOnUse" x="0" y="0" width="44" height="44">
<path d="M44 0H0V44H44V0Z" fill="#C4C4C4"/>
</mask>
<g mask="url(#mask0)">
<path fill-rule="evenodd" clip-rule="evenodd" d="M25.9849 5.33459C23.7954 3.41889 20.5293 3.40029 18.3147 5.28689C12.4099 10.3173 9 17.6912 9 25.4482V26.3042L1 35.1154V41V44H4H9H12L32 43.9997L35 44H40H43V41V35.1154L35 26.3042V25.201C35 17.5888 31.7138 10.3471 25.9849 5.33459ZM35 30.7671V40.9997L40 41V36.2741L35 30.7671ZM32 25.201C32 18.4539 29.0873 12.0352 24.0095 7.59239C22.9418 6.65829 21.3443 6.64699 20.2602 7.57059C15.0235 12.0318 12 18.5714 12 25.4482V27.4629V40.9997H32V27.4629V25.201ZM4 36.2741L9 30.7671V40.9997L4 41V36.2741Z" fill="#A5A7B8"/>
<path fill-rule="evenodd" clip-rule="evenodd" d="M37 2C37.5523 2 38 1.5523 38 1C38 0.4477 37.5523 0 37 0C36.4477 0 36 0.4477 36 1C36 1.5523 36.4477 2 37 2ZM37 6C37.5523 6 38 5.5523 38 5C38 4.4477 37.5523 4 37 4C36.4477 4 36 4.4477 36 5C36 5.5523 36.4477 6 37 6ZM38 9C38 9.5523 37.5523 10 37 10C36.4477 10 36 9.5523 36 9C36 8.4477 36.4477 8 37 8C37.5523 8 38 8.4477 38 9ZM37 14C37.5523 14 38 13.5523 38 13C38 12.4477 37.5523 12 37 12C36.4477 12 36 12.4477 36 13C36 13.5523 36.4477 14 37 14ZM44 1C44 1.5523 43.5523 2 43 2C42.4477 2 42 1.5523 42 1C42 0.4477 42.4477 0 43 0C43.5523 0 44 0.4477 44 1ZM43 6C43.5523 6 44 5.5523 44 5C44 4.4477 43.5523 4 43 4C42.4477 4 42 4.4477 42 5C42 5.5523 42.4477 6 43 6ZM44 9C44 9.5523 43.5523 10 43 10C42.4477 10 42 9.5523 42 9C42 8.4477 42.4477 8 43 8C43.5523 8 44 8.4477 44 9ZM43 14C43.5523 14 44 13.5523 44 13C44 12.4477 43.5523 12 43 12C42.4477 12 42 12.4477 42 13C42 13.5523 42.4477 14 43 14Z" fill="#FE5E00"/>
<path d="M19.5 25C19.5 23.6193 20.6193 22.5 22 22.5C23.3807 22.5 24.5 23.6193 24.5 25V42.5H19.5V25Z" stroke="#5879DA" stroke-width="3"/>
</g>
</svg>
