<svg width="44" height="44" viewBox="0 0 44 44" fill="none" xmlns="http://www.w3.org/2000/svg">
<path d="M12.4397 33.4796C16.8006 33.4796 20.2732 37.1137 20.2732 41.3938H12.6012H12.2782H4.6062C4.6062 37.0329 8.07879 33.4796 12.4397 33.4796Z" fill="white" stroke="#A2A3B8" stroke-width="3" stroke-miterlimit="10" stroke-linecap="round"/>
<path d="M12.5205 25C14.8624 25 16.7199 26.8574 16.7199 29.1994C16.7199 31.5414 14.8624 33.3988 12.5205 33.3988H12.359C10.017 33.3988 8.15955 31.5414 8.15955 29.1994C8.15955 26.8574 10.017 25 12.359 25" fill="white"/>
<path d="M12.5205 25C14.8624 25 16.7199 26.8574 16.7199 29.1994C16.7199 31.5414 14.8624 33.3988 12.5205 33.3988H12.359C10.017 33.3988 8.15955 31.5414 8.15955 29.1994C8.15955 26.8574 10.017 25 12.359 25" stroke="#A2A3B8" stroke-width="3" stroke-miterlimit="10" stroke-linecap="round"/>
<path fill-rule="evenodd" clip-rule="evenodd" d="M5.93934 1.93934C6.52513 1.35355 7.47487 1.35355 8.06066 1.93934L16.0277 9.90635C16.6135 10.4921 16.6135 11.4419 16.0277 12.0277C15.4419 12.6135 14.4921 12.6135 13.9064 12.0277L5.93934 4.06066C5.35355 3.47487 5.35355 2.52513 5.93934 1.93934Z" fill="#5879DA"/>
<path fill-rule="evenodd" clip-rule="evenodd" d="M16.0277 1.93934C16.6135 2.52513 16.6135 3.47487 16.0277 4.06066L8.06066 12.0277C7.47487 12.6135 6.52513 12.6135 5.93934 12.0277C5.35355 11.4419 5.35355 10.4921 5.93934 9.90635L13.9064 1.93934C14.4921 1.35355 15.4419 1.35355 16.0277 1.93934Z" fill="#5879DA"/>
<path fill-rule="evenodd" clip-rule="evenodd" d="M29.9522 32.5059C30.5348 31.917 31.4845 31.9119 32.0735 32.4945L40.1271 40.4615C40.716 41.0441 40.7212 41.9938 40.1385 42.5828C39.5559 43.1717 38.6062 43.1768 38.0173 42.5942L29.9636 34.6272C29.3747 34.0446 29.3696 33.0949 29.9522 32.5059Z" fill="#5879DA"/>
<path fill-rule="evenodd" clip-rule="evenodd" d="M40.1385 32.5059C40.7212 33.0949 40.716 34.0446 40.1271 34.6272L32.0735 42.5942C31.4845 43.1768 30.5348 43.1717 29.9522 42.5828C29.3696 41.9938 29.3747 41.0441 29.9636 40.4615L38.0173 32.4945C38.6062 31.9119 39.5559 31.917 40.1385 32.5059Z" fill="#5879DA"/>
<path fill-rule="evenodd" clip-rule="evenodd" d="M11 11.25C11.4142 11.25 11.75 11.5858 11.75 12V12.44C11.75 12.8542 11.4142 13.19 11 13.19C10.5858 13.19 10.25 12.8542 10.25 12.44V12C10.25 11.5858 10.5858 11.25 11 11.25ZM11 15.21C11.4142 15.21 11.75 15.5458 11.75 15.96V16.4C11.75 16.5488 11.766 16.6946 11.7967 16.8367C11.8843 17.2416 11.6271 17.6408 11.2223 17.7284C10.8174 17.8159 10.4182 17.5587 10.3307 17.1539C10.2777 16.9091 10.25 16.657 10.25 16.4V15.96C10.25 15.5458 10.5858 15.21 11 15.21ZM13.8488 19.7054C13.8974 19.2941 14.2703 19 14.6817 19.0487C14.8481 19.0683 15.0185 19.0786 15.1921 19.0786H15.7127C16.1269 19.0786 16.4627 19.4144 16.4627 19.8286C16.4627 20.2428 16.1269 20.5786 15.7127 20.5786H15.1921C14.9596 20.5786 14.7303 20.5649 14.5056 20.5383C14.0942 20.4897 13.8002 20.1168 13.8488 19.7054ZM19.1269 19.8286C19.1269 19.4144 19.4626 19.0786 19.8769 19.0786H20.9179C21.3321 19.0786 21.6679 19.4144 21.6679 19.8286C21.6679 20.2428 21.3321 20.5786 20.9179 20.5786H19.8769C19.4626 20.5786 19.1269 20.2428 19.1269 19.8286ZM24.3321 19.8286C24.3321 19.4144 24.6679 19.0786 25.0821 19.0786H26.1231C26.5374 19.0786 26.8731 19.4144 26.8731 19.8286C26.8731 20.2428 26.5374 20.5786 26.1231 20.5786H25.0821C24.6679 20.5786 24.3321 20.2428 24.3321 19.8286ZM29.5373 19.8286C29.5373 19.4144 29.8731 19.0786 30.2873 19.0786H30.8079C31.0404 19.0786 31.2697 19.0923 31.4944 19.1188C31.9058 19.1675 32.1998 19.5404 32.1512 19.9517C32.1026 20.3631 31.7297 20.6571 31.3183 20.6085C31.1519 20.5888 30.9815 20.5786 30.8079 20.5786H30.2873C29.8731 20.5786 29.5373 20.2428 29.5373 19.8286ZM34.7777 21.9288C35.1826 21.8412 35.5818 22.0984 35.6693 22.5032C35.7223 22.7481 35.75 23.0002 35.75 23.2571V23.9314C35.75 24.3456 35.4142 24.6814 35 24.6814C34.5858 24.6814 34.25 24.3456 34.25 23.9314V23.2571C34.25 23.1083 34.234 22.9625 34.2033 22.8204C34.1157 22.4156 34.3729 22.0164 34.7777 21.9288ZM35 28.5757C35.4142 28.5757 35.75 28.9115 35.75 29.3257V30C35.75 30.4142 35.4142 30.75 35 30.75C34.5858 30.75 34.25 30.4142 34.25 30V29.3257C34.25 28.9115 34.5858 28.5757 35 28.5757Z" fill="#F37321"/>
<path fill-rule="evenodd" clip-rule="evenodd" d="M34.6558 4.1062C33.045 4.1062 31.7393 5.41196 31.7393 7.0227C31.7393 8.63343 33.045 9.93919 34.6558 9.93919C36.2665 9.93919 37.5722 8.63343 37.5722 7.0227C37.5722 5.41196 36.2665 4.1062 34.6558 4.1062ZM28.7393 7.0227C28.7393 3.75511 31.3882 1.1062 34.6558 1.1062C37.9233 1.1062 40.5722 3.75511 40.5722 7.0227C40.5722 10.2903 37.9233 12.9392 34.6558 12.9392C31.3882 12.9392 28.7393 10.2903 28.7393 7.0227Z" fill="#F37321"/>
</svg>
