<svg width="44" height="44" viewBox="0 0 44 44" fill="none" xmlns="http://www.w3.org/2000/svg">
<path d="M15 2.25H39C39.4142 2.25 39.75 2.58579 39.75 3V40C39.75 40.4142 39.4142 40.75 39 40.75H15C14.5858 40.75 14.25 40.4142 14.25 40V3C14.25 2.58579 14.5858 2.25 15 2.25Z" fill="white" stroke="#A5A7B8" stroke-width="2.5" stroke-miterlimit="10" stroke-linecap="round" stroke-linejoin="round"/>
<path d="M18.2441 4.40234L16.7227 5.60352L18.2441 6.80469" stroke="#A2A3B8" stroke-width="1.5" stroke-miterlimit="10" stroke-linecap="round" stroke-linejoin="round"/>
<path d="M14.2402 9.04688H40.2402" stroke="#A2A3B8" stroke-width="1.5" stroke-miterlimit="10" stroke-linecap="round" stroke-linejoin="round"/>
<path d="M28.8145 17.6563H18.7246C17.4434 17.6563 16.4824 16.6152 16.4824 15.4141C16.4824 14.1328 17.5234 13.1719 18.7246 13.1719H28.8945C30.1758 13.1719 31.1367 14.2129 31.1367 15.4141C31.1367 16.6152 30.0957 17.6563 28.8145 17.6563Z" fill="#5879DA"/>
<path d="M34.1797 25.0234H24.0098C22.7285 25.0234 21.7676 23.9824 21.7676 22.7812C21.7676 21.5 22.8086 20.5391 24.0098 20.5391H34.1797C35.4609 20.5391 36.4219 21.5801 36.4219 22.7812C36.4219 23.9824 35.4609 25.0234 34.1797 25.0234Z" fill="#A2A3B8"/>
<path d="M28.8145 32.3105H18.7246C17.4434 32.3105 16.4824 31.2695 16.4824 30.0684C16.4824 28.7871 17.5234 27.8262 18.7246 27.8262H28.8945C30.1758 27.8262 31.1367 28.8672 31.1367 30.0684C31.1367 31.2695 30.0957 32.3105 28.8145 32.3105Z" fill="#5879DA"/>
<path fill-rule="evenodd" clip-rule="evenodd" d="M15 19C15 19.552 15.4477 20 16 20C16.5523 20 17 19.552 17 19C17 18.448 16.5523 18 16 18C15.4477 18 15 18.448 15 19ZM11 19C11 19.552 11.4477 20 12 20C12.5523 20 13 19.552 13 19C13 18.448 12.5523 18 12 18C11.4477 18 11 18.448 11 19ZM8 20C7.4477 20 7 19.552 7 19C7 18.448 7.4477 18 8 18C8.5523 18 9 18.448 9 19C9 19.552 8.5523 20 8 20ZM3 19C3 19.552 3.4477 20 4 20C4.5523 20 5 19.552 5 19C5 18.448 4.5523 18 4 18C3.4477 18 3 18.448 3 19ZM16 26C15.4477 26 15 25.552 15 25C15 24.448 15.4477 24 16 24C16.5523 24 17 24.448 17 25C17 25.552 16.5523 26 16 26ZM11 25C11 25.552 11.4477 26 12 26C12.5523 26 13 25.552 13 25C13 24.448 12.5523 24 12 24C11.4477 24 11 24.448 11 25ZM8 26C7.4477 26 7 25.552 7 25C7 24.448 7.4477 24 8 24C8.5523 24 9 24.448 9 25C9 25.552 8.5523 26 8 26ZM3 25C3 25.552 3.4477 26 4 26C4.5523 26 5 25.552 5 25C5 24.448 4.5523 24 4 24C3.4477 24 3 24.448 3 25Z" fill="#FE5E00"/>
<path fill-rule="evenodd" clip-rule="evenodd" d="M15 25C15 25.552 15.4477 26 16 26C16.5523 26 17 25.552 17 25C17 24.448 16.5523 24 16 24C15.4477 24 15 24.448 15 25ZM11 25C11 25.552 11.4477 26 12 26C12.5523 26 13 25.552 13 25C13 24.448 12.5523 24 12 24C11.4477 24 11 24.448 11 25ZM8 26C7.4477 26 7 25.552 7 25C7 24.448 7.4477 24 8 24C8.5523 24 9 24.448 9 25C9 25.552 8.5523 26 8 26ZM3 25C3 25.552 3.4477 26 4 26C4.5523 26 5 25.552 5 25C5 24.448 4.5523 24 4 24C3.4477 24 3 24.448 3 25ZM16 32C15.4477 32 15 31.552 15 31C15 30.448 15.4477 30 16 30C16.5523 30 17 30.448 17 31C17 31.552 16.5523 32 16 32ZM11 31C11 31.552 11.4477 32 12 32C12.5523 32 13 31.552 13 31C13 30.448 12.5523 30 12 30C11.4477 30 11 30.448 11 31ZM8 32C7.4477 32 7 31.552 7 31C7 30.448 7.4477 30 8 30C8.5523 30 9 30.448 9 31C9 31.552 8.5523 32 8 32ZM3 31C3 31.552 3.4477 32 4 32C4.5523 32 5 31.552 5 31C5 30.448 4.5523 30 4 30C3.4477 30 3 30.448 3 31Z" fill="#FE5E00"/>
</svg>
