<svg width="44" height="44" viewBox="0 0 44 44" fill="none" xmlns="http://www.w3.org/2000/svg">
<path fill-rule="evenodd" clip-rule="evenodd" d="M21.5 26.1468L18.3102 39.7566L19.4386 39.246C20.7489 38.6531 22.2511 38.6531 23.5614 39.246L24.6898 39.7566L21.5 26.1468ZM23.4472 21.3082C22.9648 19.25 20.0351 19.25 19.5527 21.3082L14.9262 41.048C14.5477 42.6631 16.1867 44.0104 17.698 43.3265L20.6754 41.9792C21.1995 41.742 21.8004 41.742 22.3245 41.9792L25.302 43.3265C26.8133 44.0105 28.4523 42.6631 28.0737 41.048L23.4472 21.3082Z" fill="#A2A3B8"/>
<path d="M26.8009 7.60128C28.2095 8.96568 29.001 10.8171 29.001 12.7477C29.001 14.6784 28.2095 16.5298 26.8009 17.8942C26.2147 18.462 26.2142 19.3832 26.7997 19.9516C27.3853 20.5201 28.3352 20.5206 28.9215 19.9528C30.8935 18.0426 32.0016 15.4506 32.0016 12.7477C32.0016 10.0449 30.8935 7.45285 28.9215 5.54269C28.3352 4.97486 27.3853 4.97538 26.7997 5.54384C26.2142 6.1123 26.2147 7.03345 26.8009 7.60128Z" fill="#5879DA"/>
<path d="M16.1991 17.8797C14.7905 16.5153 13.999 14.6638 13.999 12.7332C13.999 10.8026 14.7905 8.95115 16.1991 7.58675C16.7853 7.01892 16.7858 6.09777 16.2003 5.52931C15.6147 4.96085 14.6647 4.96034 14.0785 5.52817C12.1065 7.43833 10.9984 10.0303 10.9984 12.7332C10.9984 15.4361 12.1065 18.0281 14.0785 19.9382C14.6647 20.5061 15.6147 20.5056 16.2003 19.9371C16.7858 19.3686 16.7853 18.4475 16.1991 17.8797Z" fill="#5879DA"/>
<path d="M31.0461 3.48339C36.3173 8.59639 36.3173 16.8846 31.0461 21.9975C30.4603 22.5658 30.4604 23.4869 31.0464 24.055C31.6324 24.623 32.5823 24.6229 33.1681 24.0547C39.6107 17.8055 39.6107 7.67548 33.1681 1.42626C32.5823 0.858033 31.6324 0.857894 31.0464 1.42595C30.4604 1.99401 30.4603 2.91516 31.0461 3.48339Z" fill="#5879DA"/>
<path d="M11.954 21.9975C6.68279 16.8846 6.68279 8.59639 11.954 3.48339C12.5398 2.91516 12.5396 1.99401 11.9536 1.42595C11.3677 0.857894 10.4177 0.858033 9.83192 1.42626C3.38936 7.67548 3.38936 17.8055 9.83192 24.0547C10.4177 24.6229 11.3677 24.623 11.9536 24.055C12.5396 23.4869 12.5398 22.5658 11.954 21.9975Z" fill="#5879DA"/>
<path fill-rule="evenodd" clip-rule="evenodd" d="M16.9991 12.7405C16.9991 15.1509 19.0143 17.1049 21.5 17.1049C23.9858 17.1049 26.0009 15.1509 26.0009 12.7405C26.0009 10.33 23.9858 8.37598 21.5 8.37598C19.0143 8.37598 16.9991 10.33 16.9991 12.7405ZM23.0003 12.7405C23.0003 13.544 22.3286 14.1953 21.5 14.1953C20.6714 14.1953 19.9997 13.544 19.9997 12.7405C19.9997 11.937 20.6714 11.2856 21.5 11.2856C22.3286 11.2856 23.0003 11.937 23.0003 12.7405Z" fill="#5879DA"/>
<path fill-rule="evenodd" clip-rule="evenodd" d="M24 36C24 35.448 23.5523 35 23 35C22.4477 35 22 35.448 22 36C22 36.552 22.4477 37 23 37C23.5523 37 24 36.552 24 36ZM28 36C28 35.448 27.5523 35 27 35C26.4477 35 26 35.448 26 36C26 36.552 26.4477 37 27 37C27.5523 37 28 36.552 28 36ZM31 35C31.5523 35 32 35.448 32 36C32 36.552 31.5523 37 31 37C30.4477 37 30 36.552 30 36C30 35.448 30.4477 35 31 35ZM36 36C36 35.448 35.5523 35 35 35C34.4477 35 34 35.448 34 36C34 36.552 34.4477 37 35 37C35.5523 37 36 36.552 36 36ZM23 29C23.5523 29 24 29.448 24 30C24 30.552 23.5523 31 23 31C22.4477 31 22 30.552 22 30C22 29.448 22.4477 29 23 29ZM28 30C28 29.448 27.5523 29 27 29C26.4477 29 26 29.448 26 30C26 30.552 26.4477 31 27 31C27.5523 31 28 30.552 28 30ZM31 29C31.5523 29 32 29.448 32 30C32 30.552 31.5523 31 31 31C30.4477 31 30 30.552 30 30C30 29.448 30.4477 29 31 29ZM36 30C36 29.448 35.5523 29 35 29C34.4477 29 34 29.448 34 30C34 30.552 34.4477 31 35 31C35.5523 31 36 30.552 36 30Z" fill="#FE5E00"/>
</svg>
