<svg width="44" height="44" viewBox="0 0 44 44" fill="none" xmlns="http://www.w3.org/2000/svg">
<path d="M27.2 33.1C26.8 33.1 26.4 33 26 32.7C26.2 33.6 26 34.5 25.3 35.2L21.2 39.3C20.7 39.8 20 40.1 19.3 40.1C18.6 40.1 17.9 39.8 17.4 39.3C16.8 38.7 16.6 37.9 16.7 37.2C16.4 37.3 16 37.4 15.7 37.4C15 37.4 14.3 37.1 13.8 36.6C12.9 35.7 12.8 34.3 13.4 33.3C13 33.6 12.5 33.7 12 33.7C11.3 33.7 10.6 33.4 10.1 32.9C9.59999 32.4 9.29999 31.7 9.29999 31C9.29999 30.5 9.39999 30 9.69999 29.6C9.29999 29.9 8.79999 30 8.29999 30C7.59999 30 6.89999 29.7 6.39999 29.2C5.39999 28.2 5.39999 26.5 6.39999 25.5L8.19999 23.7L6.59999 22L4.79999 23.8C3.89999 24.7 3.29999 26 3.29999 27.3C3.29999 28.6 3.79999 29.9 4.79999 30.8C5.39999 31.5 6.19999 31.9 7.09999 32.1C7.29999 33 7.79999 33.8 8.39999 34.4C9.19999 35.3 9.99999 35.8 10.8 36C11 36.9 11.5 37.7 12.1 38.3C12.8 39 13.8 39.5 14.8 39.7C15 40.2 15.3 40.6 15.7 41C16.6 41.9 17.9 42.5 19.2 42.5C20.5 42.5 21.8 42 22.7 41L26.8 36.9C27.7 36 28.3 34.7 28.3 33.4C28.3 33.2 28.3 32.9 28.2 32.7C28 33 27.6 33.1 27.2 33.1Z" fill="#A2A3B8"/>
<path d="M37.8 20.5L28 10.7L23.4 6.1C20.9 3.5 17.5 2 13.9 2C10.6 2 7.50002 3.2 5.10002 5.5C-0.199979 10.4 -0.499979 18.6 4.40002 23.9L5.90002 25.5L7.90002 23.5L6.50002 22C2.70002 17.9 3.00002 11.4 7.10002 7.6C9.10002 5.8 11.5 4.9 14 4.9C16.7 4.9 19.5 6 21.5 8.2L26.1 12.8L35.9 22.6C36.7 23.4 36.7 24.6 35.9 25.3C35.5 25.7 35 25.9 34.5 25.9C34 25.9 33.5 25.7 33.1 25.3L27 19.2L26 20.1L32.1 26.2C32.9 27 32.9 28.2 32.1 28.9C31.7 29.3 31.2 29.5 30.7 29.5C30.2 29.5 29.7 29.3 29.3 28.9L23.2 22.8L22.3 23.7L28.4 29.8C29.2 30.6 29.2 31.8 28.4 32.5C28 32.9 27.5 33.1 27 33.1C26.5 33.1 26 32.9 25.6 32.5H25.3L25.6 34.5L24.4 35.3H24.9C25.6 35.6 26.3 35.8 27.1 35.8C28.4 35.8 29.6 35.3 30.5 34.4C31.2 33.7 31.6 32.9 31.8 32C32.7 31.8 33.5 31.4 34.2 30.7C34.9 30 35.3 29.2 35.5 28.3C36.4 28.1 37.2 27.7 37.9 27C38.8 26.1 39.3 24.9 39.3 23.6C39.2 22.6 38.7 21.4 37.8 20.5Z" fill="#5879DA"/>
<path d="M25.6 31.3C25 30.7 24.1 30.3 23.2 30.3C23.1 30.3 23 30.3 22.9 30.3C22.9 30.2 22.9 30.1 22.9 30C22.9 29.1 22.6 28.3 21.9 27.6C21.3 27 20.4 26.6 19.5 26.6C19.4 26.6 19.3 26.6 19.2 26.6C19.2 26.5 19.2 26.4 19.2 26.3C19.2 25.4 18.9 24.6 18.2 23.9C17.6 23.3 16.7 22.9 15.8 22.9C15.7 22.9 15.6 22.9 15.5 22.9C15.5 22.8 15.5 22.7 15.5 22.6C15.5 21.7 15.2 20.9 14.5 20.2C13.9 19.6 13 19.2 12.1 19.2C11.2 19.2 10.4 19.5 9.69998 20.2L5.59998 24.3C4.99998 24.9 4.59998 25.8 4.59998 26.7C4.59998 27.6 4.89998 28.4 5.59998 29.1C6.19998 29.7 7.09998 30.1 7.99998 30.1C8.09998 30.1 8.19998 30.1 8.29998 30.1C8.29998 30.2 8.29998 30.3 8.29998 30.4C8.29998 31.3 8.59998 32.1 9.29998 32.8C9.89998 33.4 10.8 33.8 11.7 33.8C11.8 33.8 11.9 33.8 12 33.8C12 33.9 12 34 12 34.1C12 35 12.3 35.8 13 36.5C13.6 37.1 14.5 37.5 15.4 37.5C15.5 37.5 15.6 37.5 15.7 37.5C15.6 38.5 15.9 39.5 16.7 40.2C17.3 40.8 18.2 41.2 19.1 41.2C20 41.2 20.8 40.9 21.5 40.2L24.2 37.5L25.1 36.6L25.6 36.1C26.9 34.7 26.9 32.6 25.6 31.3ZM8.19998 28.8C7.69998 28.8 7.19998 28.6 6.79998 28.2C5.99998 27.4 5.99998 26.2 6.79998 25.5L10.9 21.4C11.3 21 11.8 20.8 12.3 20.8C12.8 20.8 13.3 21 13.7 21.4C14.3 22 14.4 23 14 23.7C13.9 23.8 13.7 23.9 13.6 24L9.49998 28.1C9.39998 28.2 9.29998 28.4 9.19998 28.5C8.89998 28.7 8.59998 28.8 8.19998 28.8ZM11.9 32.4C11.4 32.4 10.9 32.2 10.5 31.8C9.89998 31.2 9.79998 30.2 10.2 29.5C10.3 29.4 10.5 29.3 10.6 29.2L14.7 25.1C14.8 25 14.9 24.8 15 24.7C15.3 24.5 15.6 24.5 15.9 24.5C16.4 24.5 16.9 24.7 17.3 25.1C17.9 25.7 18 26.7 17.6 27.4C17.5 27.5 17.3 27.6 17.2 27.7L13.1 31.8C13 31.9 12.9 32.1 12.8 32.2C12.5 32.3 12.2 32.4 11.9 32.4ZM15.5 36.1C15 36.1 14.5 35.9 14.1 35.5C13.5 34.9 13.4 33.9 13.8 33.2C13.9 33.1 14.1 33 14.2 32.9L18.3 28.8C18.4 28.7 18.5 28.5 18.6 28.4C18.9 28.2 19.2 28.2 19.5 28.2C20 28.2 20.5 28.4 20.9 28.8C21.5 29.4 21.6 30.4 21.2 31.1C21.1 31.2 20.9 31.3 20.8 31.4L16.7 35.5C16.6 35.6 16.5 35.8 16.4 35.9C16.2 36 15.8 36.1 15.5 36.1ZM24.6 35L24.1 35.5L23.2 36.4L20.5 39.1C20.1 39.5 19.6 39.7 19.1 39.7C18.6 39.7 18.1 39.5 17.7 39.1C17.1 38.5 17 37.5 17.4 36.8C17.5 36.7 17.7 36.6 17.8 36.5L21.9 32.4C22 32.3 22.1 32.1 22.2 32C22.5 31.8 22.8 31.8 23.1 31.8C23.6 31.8 24.1 32 24.5 32.4C25.4 33.1 25.4 34.3 24.6 35Z" fill="#A2A3B8"/>
<path d="M36.7 8.09999C34.7 5.89999 32 4.79999 29.2 4.79999C28.4 4.79999 27.7 4.89999 26.9 5.09999C26.4 5.19999 25.8 5.29999 25.1 5.59999C23.3 6.19999 21.7 7.99999 21.7 7.99999C19.5 9.99999 16.1 13.3 16.1 13.3C15.2 14.2 15.2 15.7 16.1 16.6C16.6 17.1 17.2 17.3 17.8 17.3C18.4 17.3 19 17.1 19.5 16.6C19.5 16.6 25.5 10.9 26.2 10.3C27.1 9.39999 29.6 12.1 29.6 12.1L37.9 20.4C40.2 16.6 39.9 11.5 36.7 8.09999Z" fill="white"/>
<path d="M38.7 6.2C36.3 3.5 32.8 2 29.2 2C25.9 2 22.8 3.2 20.4 5.5L17.4 8.4C15.9 9.8 14.5 11.1 14.2 11.4C13.2 12.4 12.7 13.6 12.7 15C12.7 16.4 13.2 17.6 14.2 18.6C15.2 19.6 16.4 20.1 17.8 20.1C19.1 20.1 20.4 19.6 21.3 18.7C23.4 16.7 27.4 12.9 27.9 12.5C28.1 12.3 28.4 11.9 28.6 11.5C27.8 10.8 26.6 10 26 10.5C25.8 10.6 25.4 11.1 24.7 11.7L24.6 11.8C24.3 12.1 24 12.4 23.7 12.7C23.5 12.9 23.2 13.1 23 13.4C22.6 13.7 22.3 14.1 21.9 14.4C21.9 14.4 21.9 14.4 21.8 14.5C21.4 14.8 21.1 15.2 20.8 15.5C20.8 15.5 20.8 15.5 20.7 15.6C20.2 16.1 19.8 16.4 19.6 16.7C19.4 16.9 19.3 16.9 19.3 16.9C18.8 17.4 18.2 17.6 17.6 17.6C17 17.6 16.4 17.4 15.9 16.9C15 16 15 14.5 15.9 13.6C15.9 13.6 16 13.5 16.1 13.4L16.2 13.3C16.3 13.2 16.3 13.2 16.4 13.1C16.5 13 16.6 12.9 16.7 12.8C17.6 11.9 18.6 11 19.6 10L22.3 7.5C24.3 5.7 26.7 4.8 29.2 4.8C31.9 4.8 34.7 5.9 36.7 8.1C39.9 11.6 40.2 16.7 37.8 20.5C38.7 21.4 39.1 22.4 39.2 23.3C41 21.1 42.1 18.4 42.2 15.5C42.3 12 41.1 8.7 38.7 6.2Z" fill="#A2A3B8"/>
<path d="M24.6 11.8C24.6 11.8 25.8 10.6 26.2 10.3C26.5 10 27.1 9.9 27.5 10.2C27.8 10.5 28.8 11.5 28.8 11.5L26.7 13.5L24.6 11.8Z" fill="#A2A3B8"/>
<path fill-rule="evenodd" clip-rule="evenodd" d="M39.7 35.1C39.7 35.7 40.2 36.2 40.8 36.2C41.4 36.2 41.9 35.7 41.9 35.1C42 34.5 41.5 34 40.9 34C40.2 34 39.7 34.5 39.7 35.1ZM35.1 35.1C35.1 35.7 35.6 36.2 36.2 36.2C36.8 36.2 37.3 35.7 37.3 35.1C37.3 34.5 36.8 34 36.2 34C35.7 34 35.1 34.5 35.1 35.1ZM31.7 36.3C31.1 36.3 30.6 35.8 30.6 35.2C30.6 34.6 31.1 34.1 31.7 34.1C32.3 34.1 32.8 34.6 32.8 35.2C32.9 35.8 32.3 36.3 31.7 36.3ZM26 35.1C26 35.7 26.5 36.2 27.1 36.2C27.7 36.2 28.2 35.7 28.2 35.1C28.2 34.5 27.7 34 27.1 34C26.5 34 26 34.5 26 35.1ZM40.9 43.1C40.3 43.1 39.8 42.6 39.8 42C39.8 41.4 40.3 40.9 40.9 40.9C41.5 40.9 42 41.4 42 42C42 42.6 41.5 43.1 40.9 43.1ZM35.1 42C35.1 42.6 35.6 43.1 36.2 43.1C36.8 43.1 37.3 42.6 37.3 42C37.3 41.4 36.8 40.9 36.2 40.9C35.7 40.9 35.1 41.4 35.1 42ZM31.7 43.1C31.1 43.1 30.6 42.6 30.6 42C30.6 41.4 31.1 40.9 31.7 40.9C32.3 40.9 32.8 41.4 32.8 42C32.9 42.6 32.3 43.1 31.7 43.1ZM26 42C26 42.6 26.5 43.1 27.1 43.1C27.7 43.1 28.2 42.6 28.2 42C28.2 41.4 27.7 40.9 27.1 40.9C26.5 40.9 26 41.4 26 42Z" fill="#FE5E00"/>
</svg>
