<svg width="33" height="32" viewBox="0 0 33 32" fill="none" xmlns="http://www.w3.org/2000/svg">
<path d="M29.5 25H15.5L7.5 31V25H3.5C2.96957 25 2.46086 24.7893 2.08579 24.4142C1.71071 24.0391 1.5 23.5304 1.5 23V3C1.5 2.46957 1.71071 1.96086 2.08579 1.58579C2.46086 1.21071 2.96957 1 3.5 1H29.5C30.0304 1 30.5391 1.21071 30.9142 1.58579C31.2893 1.96086 31.5 2.46957 31.5 3V23C31.5 23.5304 31.2893 24.0391 30.9142 24.4142C30.5391 24.7893 30.0304 25 29.5 25Z" stroke="#292B33" stroke-width="2" stroke-linecap="round" stroke-linejoin="round"/>
<path d="M13.344 9.66667C13.0984 9.16676 12.7176 8.74569 12.2449 8.45122C11.7721 8.15674 11.2263 8.00065 10.6693 8.00065C10.1124 8.00065 9.56653 8.15674 9.09378 8.45122C8.62102 8.74569 8.24025 9.16676 7.99466 9.66667" stroke="#292B33" stroke-width="2" stroke-linecap="round" stroke-linejoin="round"/>
<path d="M25.336 9.66667C25.0904 9.16676 24.7096 8.74569 24.2369 8.45122C23.7641 8.15674 23.2183 8.00065 22.6613 8.00065C22.1044 8.00065 21.5585 8.15674 21.0858 8.45122C20.613 8.74569 20.2323 9.16676 19.9867 9.66667" stroke="#292B33" stroke-width="2" stroke-linecap="round" stroke-linejoin="round"/>
<path d="M11.5027 17C12.9141 18.2869 14.7553 19.0002 16.6653 19.0002C18.5754 19.0002 20.4166 18.2869 21.828 17" stroke="#292B33" stroke-width="2" stroke-linecap="round" stroke-linejoin="round"/>
</svg>
