<svg width="44" height="44" viewBox="0 0 44 44" fill="none" xmlns="http://www.w3.org/2000/svg">
<path fill-rule="evenodd" clip-rule="evenodd" d="M27 3C27 3.552 27.4477 4 28 4C28.5523 4 29 3.552 29 3C29 2.448 28.5523 2 28 2C27.4477 2 27 2.448 27 3ZM23 3C23 3.552 23.4477 4 24 4C24.5523 4 25 3.552 25 3C25 2.448 24.5523 2 24 2C23.4477 2 23 2.448 23 3ZM20 4C19.4477 4 19 3.552 19 3C19 2.448 19.4477 2 20 2C20.5523 2 21 2.448 21 3C21 3.552 20.5523 4 20 4ZM15 3C15 3.552 15.4477 4 16 4C16.5523 4 17 3.552 17 3C17 2.448 16.5523 2 16 2C15.4477 2 15 2.448 15 3ZM23 9C23 9.552 23.4477 10 24 10C24.5523 10 25 9.552 25 9C25 8.448 24.5523 8 24 8C23.4477 8 23 8.448 23 9ZM20 10C19.4477 10 19 9.552 19 9C19 8.448 19.4477 8 20 8C20.5523 8 21 8.448 21 9C21 9.552 20.5523 10 20 10Z" fill="#FE5E00"/>
<rect x="9.08929" y="20.0893" width="24.8214" height="20.4286" rx="1.5" fill="white" stroke="#A2A3B8" stroke-width="3"/>
<path d="M17.6322 27.0089C17.6322 27.5819 17.1677 28.0464 16.5947 28.0464C16.0217 28.0464 15.5572 27.5819 15.5572 27.0089C15.5572 26.4359 16.0217 25.9714 16.5947 25.9714C17.1677 25.9714 17.6322 26.4359 17.6322 27.0089Z" fill="white" stroke="#5879DA"/>
<path d="M16.5947 28.7786C15.6262 28.7786 14.825 27.9774 14.825 27.0089C14.825 26.0404 15.6262 25.2393 16.5947 25.2393C17.5632 25.2393 18.3643 26.0404 18.3643 27.0089C18.3643 27.9774 17.5632 28.7786 16.5947 28.7786ZM16.5947 25.6304C15.9065 25.6304 15.2161 26.1937 15.2161 27.0089C15.2161 27.7976 15.806 28.3875 16.5947 28.3875C17.3833 28.3875 17.9732 27.7976 17.9732 27.0089C17.9732 26.2203 17.3833 25.6304 16.5947 25.6304Z" fill="#666666" stroke="#5879DA"/>
<path d="M26.9304 27.0089C26.9304 27.5819 26.4659 28.0464 25.8929 28.0464C25.3199 28.0464 24.8554 27.5819 24.8554 27.0089C24.8554 26.4359 25.3199 25.9714 25.8929 25.9714C26.4659 25.9714 26.9304 26.4359 26.9304 27.0089Z" fill="white" stroke="#5879DA"/>
<path d="M25.8929 28.7786C24.9244 28.7786 24.1232 27.9774 24.1232 27.0089C24.1232 26.0404 24.9244 25.2393 25.8929 25.2393C26.8614 25.2393 27.6625 26.0404 27.6625 27.0089C27.6625 27.9774 26.8614 28.7786 25.8929 28.7786ZM25.8929 25.6304C25.2048 25.6304 24.5143 26.1937 24.5143 27.0089C24.5143 27.7976 25.1042 28.3875 25.8929 28.3875C26.6815 28.3875 27.2714 27.7976 27.2714 27.0089C27.2714 26.1937 26.581 25.6304 25.8929 25.6304Z" fill="#666666" stroke="#5879DA"/>
<path d="M15.4232 34.9161H27.1375" stroke="#A2A3B8" stroke-width="1.8431" stroke-miterlimit="10"/>
<path d="M21.0349 16.7342V18.5992H22.3944V16.7342C23.3962 16.4473 24.1832 15.5148 24.1832 14.4388C24.1832 13.076 23.1099 12 21.7504 12C20.3909 12 19.3176 13.076 19.3176 14.4388C19.3176 15.5148 20.0332 16.3755 21.0349 16.7342ZM21.7504 13.3629C22.3229 13.3629 22.7522 13.7933 22.7522 14.3671C22.7522 14.9409 22.3229 15.3713 21.7504 15.3713C21.178 15.3713 20.7487 14.9409 20.7487 14.3671C20.7487 13.865 21.178 13.3629 21.7504 13.3629Z" fill="#A2A3B8"/>
<path d="M39.5672 28.3545C38.4939 28.3545 37.5637 29.0718 37.2775 30.076H35.1309V31.4389H37.2775C37.5637 32.4431 38.4939 33.1604 39.5672 33.1604C40.9267 33.1604 42 32.0845 42 30.7216C42 29.3587 40.9267 28.3545 39.5672 28.3545ZM39.5672 31.7975C38.9948 31.7975 38.5654 31.3672 38.5654 30.7933C38.5654 30.2195 38.9948 29.7891 39.5672 29.7891C40.1396 29.7891 40.5689 30.2195 40.5689 30.7933C40.5689 31.3672 40.1396 31.7975 39.5672 31.7975Z" fill="#A2A3B8"/>
<path d="M7.86911 30.076H5.72251C5.4363 29.0718 4.50611 28.3545 3.43281 28.3545C2.0733 28.3545 1 29.4304 1 30.7933C1 32.1562 2.0733 33.2321 3.43281 33.2321C4.50611 33.2321 5.4363 32.5148 5.72251 31.5106H7.86911V30.076ZM3.43281 31.7975C2.86038 31.7975 2.43106 31.3672 2.43106 30.7933C2.43106 30.2195 2.86038 29.7891 3.43281 29.7891C4.00524 29.7891 4.43456 30.2195 4.43456 30.7933C4.43456 31.3672 4.00524 31.7975 3.43281 31.7975Z" fill="#A2A3B8"/>
</svg>
