<svg width="32" height="32" viewBox="0 0 32 32" fill="none" xmlns="http://www.w3.org/2000/svg">
<path d="M6 24H5C3.93913 24 2.92172 23.5786 2.17157 22.8284C1.42143 22.0783 1 21.0609 1 20V16C1 14.9391 1.42143 13.9217 2.17157 13.1716C2.92172 12.4214 3.93913 12 5 12H6C6.26522 12 6.51957 12.1054 6.70711 12.2929C6.89464 12.4804 7 12.7348 7 13V23C7 23.2652 6.89464 23.5196 6.70711 23.7071C6.51957 23.8946 6.26522 24 6 24Z" stroke="#292B33" stroke-width="2" stroke-linecap="round" stroke-linejoin="round"/>
<path d="M27 24H26C25.7348 24 25.4804 23.8946 25.2929 23.7071C25.1054 23.5196 25 23.2652 25 23V13C25 12.7348 25.1054 12.4804 25.2929 12.2929C25.4804 12.1054 25.7348 12 26 12H27C28.0609 12 29.0783 12.4214 29.8284 13.1716C30.5786 13.9217 31 14.9391 31 16V20C31 21.0609 30.5786 22.0783 29.8284 22.8284C29.0783 23.5786 28.0609 24 27 24Z" stroke="#292B33" stroke-width="2" stroke-linecap="round" stroke-linejoin="round"/>
<path d="M5 12C5 9.08262 6.15893 6.28473 8.22183 4.22183C10.2847 2.15893 13.0826 1 16 1V1C18.9174 1 21.7153 2.15893 23.7782 4.22183C25.8411 6.28473 27 9.08262 27 12" stroke="#292B33" stroke-width="2" stroke-linecap="round" stroke-linejoin="round"/>
<path d="M20 29H23C24.0609 29 25.0783 28.5786 25.8284 27.8284C26.5786 27.0783 27 26.0609 27 25V24" stroke="#292B33" stroke-width="2" stroke-linecap="round" stroke-linejoin="round"/>
<path d="M18 31H16C15.4696 31 14.9609 30.7893 14.5858 30.4142C14.2107 30.0391 14 29.5304 14 29C14 28.4696 14.2107 27.9609 14.5858 27.5858C14.9609 27.2107 15.4696 27 16 27H18C18.5304 27 19.0391 27.2107 19.4142 27.5858C19.7893 27.9609 20 28.4696 20 29C20 29.5304 19.7893 30.0391 19.4142 30.4142C19.0391 30.7893 18.5304 31 18 31Z" stroke="#292B33" stroke-width="2" stroke-linecap="round" stroke-linejoin="round"/>
<path d="M12 11C12.0001 10.2667 12.2019 9.54756 12.5831 8.92116C12.9643 8.29476 13.5104 7.78521 14.1617 7.44821C14.813 7.1112 15.5444 6.95971 16.2759 7.01029C17.0074 7.06087 17.711 7.31157 18.3097 7.735C18.9084 8.15842 19.3792 8.73828 19.6706 9.41119C19.962 10.0841 20.0628 10.8242 19.962 11.5505C19.8613 12.2768 19.5628 12.9615 19.0992 13.5296C18.6356 14.0978 18.0247 14.5276 17.3333 14.772C16.9432 14.9099 16.6055 15.1654 16.3667 15.5033C16.1279 15.8412 15.9998 16.2449 16 16.6587V17" stroke="#292B33" stroke-width="2" stroke-linecap="round" stroke-linejoin="round"/>
<path d="M16 21C15.9011 21 15.8044 21.0293 15.7222 21.0843C15.64 21.1392 15.5759 21.2173 15.5381 21.3087C15.5002 21.4 15.4903 21.5006 15.5096 21.5975C15.5289 21.6945 15.5765 21.7836 15.6464 21.8536C15.7164 21.9235 15.8055 21.9711 15.9025 21.9904C15.9994 22.0097 16.1 21.9998 16.1913 21.9619C16.2827 21.9241 16.3608 21.86 16.4157 21.7778C16.4707 21.6956 16.5 21.5989 16.5 21.5C16.5 21.3674 16.4473 21.2402 16.3536 21.1464C16.2598 21.0527 16.1326 21 16 21Z" stroke="#292B33" stroke-width="2" stroke-linecap="round" stroke-linejoin="round"/>
</svg>
