<svg width="44" height="44" viewBox="0 0 44 44" fill="none" xmlns="http://www.w3.org/2000/svg">
<path fill-rule="evenodd" clip-rule="evenodd" d="M38 37C37.448 37 37 37.4477 37 38C37 38.5523 37.448 39 38 39C38.552 39 39 38.5523 39 38C39 37.4477 38.552 37 38 37ZM38 33C37.448 33 37 33.4477 37 34C37 34.5523 37.448 35 38 35C38.552 35 39 34.5523 39 34C39 33.4477 38.552 33 38 33ZM37 30C37 29.4477 37.448 29 38 29C38.552 29 39 29.4477 39 30C39 30.5523 38.552 31 38 31C37.448 31 37 30.5523 37 30ZM38 25C37.448 25 37 25.4477 37 26C37 26.5523 37.448 27 38 27C38.552 27 39 26.5523 39 26C39 25.4477 38.552 25 38 25ZM31 38C31 37.4477 31.448 37 32 37C32.552 37 33 37.4477 33 38C33 38.5523 32.552 39 32 39C31.448 39 31 38.5523 31 38ZM32 33C31.448 33 31 33.4477 31 34C31 34.5523 31.448 35 32 35C32.552 35 33 34.5523 33 34C33 33.4477 32.552 33 32 33ZM31 30C31 29.4477 31.448 29 32 29C32.552 29 33 29.4477 33 30C33 30.5523 32.552 31 32 31C31.448 31 31 30.5523 31 30ZM32 25C31.448 25 31 25.4477 31 26C31 26.5523 31.448 27 32 27C32.552 27 33 26.5523 33 26C33 25.4477 32.552 25 32 25Z" fill="#FE5E00"/>
<path d="M23 41.5H6.2C4.52819 41.5 3.5 40.3698 3.5 39.1818V4.81818C3.5 3.63022 4.52819 2.5 6.2 2.5H23C24.6718 2.5 25.7 3.63022 25.7 4.81818V39.1818C25.7 40.2505 24.5406 41.5 23 41.5Z" fill="white" stroke="#A2A3B8" stroke-width="3" stroke-miterlimit="10" stroke-linecap="round"/>
<path d="M11.7916 7.55209H18.0937" stroke="#A2A3B8" stroke-width="1.5" stroke-miterlimit="10" stroke-linecap="round" stroke-linejoin="round"/>
<path d="M14.4688 35.6354C14.4688 35.3387 14.7032 35.1042 15 35.1042C15.2968 35.1042 15.5312 35.3387 15.5312 35.6354C15.5312 35.9322 15.2968 36.1667 15 36.1667C14.7032 36.1667 14.4688 35.9322 14.4688 35.6354Z" fill="#A2A3B8" stroke="#A2A3B8"/>
<path d="M23.9596 18.2038L23.8718 18.1171L23.8075 18.0748C23.7959 18.062 23.7873 18.0522 23.773 18.0358C23.7648 18.0265 23.7548 18.015 23.7413 17.9996C23.7123 17.9667 23.6626 17.9105 23.6039 17.8526C23.1846 17.4385 22.7001 17.2913 22.2175 17.2913C22.0173 17.2913 21.806 17.3223 21.6064 17.3829C21.5296 17.4063 21.4333 17.4403 21.3286 17.4907C21.6056 16.9365 21.8139 16.3517 21.8831 15.7818L21.8923 15.7067V15.631C21.8923 15.6268 21.8923 15.6214 21.8924 15.6149C21.8935 15.5268 21.8973 15.2327 21.77 14.9069C21.6616 14.5259 21.5874 14.0276 21.5874 13.6239C21.5874 12.4399 22.1012 11.0492 22.9597 9.95465C23.8265 8.84946 24.873 8.2505 25.8252 8.2505H37.563H37.5738L37.5847 8.25032C38.4803 8.2348 39.505 8.81734 40.3745 9.95487C41.2307 11.075 41.75 12.5076 41.75 13.7243C41.75 15.181 41.2659 16.7408 40.494 17.8867C39.8495 18.8182 38.8607 19.75 37.2073 19.75H27.1972C25.5899 19.75 24.6826 18.9177 23.9596 18.2038Z" fill="white" stroke="#5879DA" stroke-width="2.5"/>
<path d="M28.1494 15.2154C28.7842 15.2154 29.2989 14.7195 29.2989 14.1077C29.2989 13.4959 28.7842 13 28.1494 13C27.5146 13 27 13.4959 27 14.1077C27 14.7195 27.5146 15.2154 28.1494 15.2154Z" fill="#A2A3B8"/>
<path d="M31.933 15.2154C32.5678 15.2154 33.0824 14.7195 33.0824 14.1077C33.0824 13.4959 32.5678 13 31.933 13C31.2982 13 30.7836 13.4959 30.7836 14.1077C30.7836 14.7195 31.2982 15.2154 31.933 15.2154Z" fill="#A2A3B8"/>
<path d="M35.7164 15.2154C36.3513 15.2154 36.8659 14.7195 36.8659 14.1077C36.8659 13.4959 36.3513 13 35.7164 13C35.0816 13 34.567 13.4959 34.567 14.1077C34.567 14.7195 35.0816 15.2154 35.7164 15.2154Z" fill="#A2A3B8"/>
</svg>
