<svg width="44" height="44" viewBox="0 0 44 44" fill="none" xmlns="http://www.w3.org/2000/svg">
<path d="M25 39.5C27.4853 39.5 29.5 37.4853 29.5 35C29.5 32.5147 27.4853 30.5 25 30.5C22.5147 30.5 20.5 32.5147 20.5 35C20.5 37.4853 22.5147 39.5 25 39.5Z" stroke="#A5A7B8" stroke-width="3"/>
<path d="M6 29V21C6 12.163 13.1634 5 22 5C30.8366 5 38 12.163 38 21V27.912C38 28.59 37.6561 29.223 37.0865 29.591L29.5 34.5" stroke="#A5A7B8" stroke-width="3"/>
<path d="M6 34C8.20914 34 10 32.2091 10 30C10 27.7909 8.20914 26 6 26C3.79086 26 2 27.7909 2 30C2 32.2091 3.79086 34 6 34Z" fill="#5879DA"/>
<path fill-rule="evenodd" clip-rule="evenodd" d="M13 11C13 11.552 13.4477 12 14 12C14.5523 12 15 11.552 15 11C15 10.448 14.5523 10 14 10C13.4477 10 13 10.448 13 11ZM9 11C9 11.552 9.4477 12 10 12C10.5523 12 11 11.552 11 11C11 10.448 10.5523 10 10 10C9.4477 10 9 10.448 9 11ZM6 12C5.4477 12 5 11.552 5 11C5 10.448 5.4477 10 6 10C6.5523 10 7 10.448 7 11C7 11.552 6.5523 12 6 12ZM1 11C1 11.552 1.4477 12 2 12C2.5523 12 3 11.552 3 11C3 10.448 2.5523 10 2 10C1.4477 10 1 10.448 1 11ZM14 18C13.4477 18 13 17.552 13 17C13 16.448 13.4477 16 14 16C14.5523 16 15 16.448 15 17C15 17.552 14.5523 18 14 18ZM9 17C9 17.552 9.4477 18 10 18C10.5523 18 11 17.552 11 17C11 16.448 10.5523 16 10 16C9.4477 16 9 16.448 9 17ZM6 18C5.4477 18 5 17.552 5 17C5 16.448 5.4477 16 6 16C6.5523 16 7 16.448 7 17C7 17.552 6.5523 18 6 18ZM1 17C1 17.552 1.4477 18 2 18C2.5523 18 3 17.552 3 17C3 16.448 2.5523 16 2 16C1.4477 16 1 16.448 1 17Z" fill="#FE5E00"/>
<path fill-rule="evenodd" clip-rule="evenodd" d="M42 17C42 17.552 42.4477 18 43 18C43.5523 18 44 17.552 44 17C44 16.448 43.5523 16 43 16C42.4477 16 42 16.448 42 17ZM38 17C38 17.552 38.4477 18 39 18C39.5523 18 40 17.552 40 17C40 16.448 39.5523 16 39 16C38.4477 16 38 16.448 38 17ZM35 18C34.4477 18 34 17.552 34 17C34 16.448 34.4477 16 35 16C35.5523 16 36 16.448 36 17C36 17.552 35.5523 18 35 18ZM30 17C30 17.552 30.4477 18 31 18C31.5523 18 32 17.552 32 17C32 16.448 31.5523 16 31 16C30.4477 16 30 16.448 30 17ZM43 24C42.4477 24 42 23.552 42 23C42 22.448 42.4477 22 43 22C43.5523 22 44 22.448 44 23C44 23.552 43.5523 24 43 24ZM38 23C38 23.552 38.4477 24 39 24C39.5523 24 40 23.552 40 23C40 22.448 39.5523 22 39 22C38.4477 22 38 22.448 38 23ZM35 24C34.4477 24 34 23.552 34 23C34 22.448 34.4477 22 35 22C35.5523 22 36 22.448 36 23C36 23.552 35.5523 24 35 24ZM30 23C30 23.552 30.4477 24 31 24C31.5523 24 32 23.552 32 23C32 22.448 31.5523 22 31 22C30.4477 22 30 22.448 30 23Z" fill="#FE5E00"/>
</svg>
