<svg id="desktop" xmlns="http://www.w3.org/2000/svg" viewBox="0 0 47 72"><defs><style>.cls-1,.cls-2{fill:#fff;}.cls-1,.cls-3{stroke:#162036;}.cls-1,.cls-2,.cls-3{stroke-linecap:round;stroke-linejoin:round;stroke-width:1.5px;}.cls-2{stroke:#ff720b;}.cls-3{fill:none;}</style></defs><title>icon</title><polyline class="cls-1" points="23.23 25.09 38.88 25.1 38.85 51 23.38 50.98"/><line class="cls-1" x1="44.02" y1="39.26" x2="39.62" y2="39.25"/><ellipse class="cls-2" cx="43.96" cy="39.26" rx="2.04" ry="2.12"/><polyline class="cls-1" points="23.8 25.09 8.15 25.07 8.13 50.97 23.6 50.98"/><line class="cls-1" x1="2.98" y1="39.21" x2="7.38" y2="39.22"/><ellipse class="cls-2" cx="3.04" cy="39.21" rx="2.04" ry="2.12"/><line class="cls-1" x1="23.75" y1="20.44" x2="23.75" y2="25.01"/><ellipse class="cls-2" cx="23.81" cy="19.12" rx="2.04" ry="2.12"/><ellipse class="cls-1" cx="18.12" cy="34.17" rx="1.8" ry="1.87"/><ellipse class="cls-1" cx="28.89" cy="34.18" rx="1.8" ry="1.87"/><rect class="cls-1" x="15.92" y="40.06" width="15.35" height="5.58" transform="translate(0.05 -0.02) rotate(0.06)"/><line class="cls-3" x1="20.69" y1="40.25" x2="20.68" y2="44.79"/><line class="cls-3" x1="26.31" y1="40.26" x2="26.31" y2="44.8"/></svg>