<svg xmlns="http://www.w3.org/2000/svg" width="32" height="57" viewBox="0 0 32 57">
    <g fill="none" fill-rule="evenodd">
        <path fill="#FFF" d="M25.85 55.9l-19.975-.02a4.999 4.999 0 0 1-4.993-5.003L.928 5.893A4.998 4.998 0 0 1 5.932.9l19.974.021a4.998 4.998 0 0 1 4.993 5.002l-.046 44.984A4.998 4.998 0 0 1 25.85 55.9"/>
        <path stroke="#162036" stroke-linecap="round" stroke-width="1.5" d="M25.85 55.9l-19.975-.02a4.999 4.999 0 0 1-4.993-5.003L.928 5.893A4.998 4.998 0 0 1 5.932.9l19.974.021a4.998 4.998 0 0 1 4.993 5.002l-.046 44.984A4.998 4.998 0 0 1 25.85 55.9z"/>
        <path stroke="#FF720B" stroke-linecap="round" stroke-linejoin="round" stroke-width="1.5" d="M17.286 50.676a1.418 1.418 0 1 1-2.837-.003 1.418 1.418 0 0 1 2.837.003zM11.606 5.777l8.614.01"/>
        <path fill="#FFF" d="M11.919 30.849c-.575-.001-1.21-.213-1.941-.65a.746.746 0 0 0-.796.018 3.059 3.059 0 0 1-1.68.488c-.102 0-.2-.003-.292-.012.584-.658.98-1.608 1.084-2.477a.77.77 0 0 0-.03-.313 4.271 4.271 0 0 1-.174-1.22c.003-2.16 1.759-3.982 3.835-3.982l8.57.008c2.042.002 3.832 1.909 3.83 4.078-.003 2.168-1.794 4.07-3.834 4.07l-8.572-.008z"/>
        <path fill="#162036" d="M11.924 21.95c-2.52 0-4.581 2.211-4.584 4.73 0 .477.073 1.012.209 1.446-.131 1.096-.858 2.44-1.754 2.631-.491.105.434.698 1.709.698.652 0 1.397-.155 2.09-.61.683.406 1.476.752 2.324.752l8.569.01h.003c2.52 0 4.582-2.3 4.585-4.819.003-2.522-2.057-4.826-4.58-4.829l-8.567-.009h-.004zm.003 1.5l8.568.01c1.643.001 3.082 1.555 3.08 3.326-.002 1.77-1.443 3.321-3.087 3.321l-8.568-.01c-.435 0-.946-.177-1.558-.543a1.51 1.51 0 0 0-1.592.037l-.071.044c.172-.44.287-.896.339-1.33a1.5 1.5 0 0 0-.057-.629 3.573 3.573 0 0 1-.141-.995c.002-1.72 1.443-3.23 3.084-3.23h.003z"/>
        <path fill="#FF720B" d="M13.974 26.778a.894.894 0 1 1-1.789 0 .894.894 0 0 1 1.789 0M16.925 26.781a.894.894 0 1 1-1.788 0 .894.894 0 0 1 1.788 0M19.876 26.784a.894.894 0 1 1-1.788 0 .894.894 0 0 1 1.788 0"/>
    </g>
</svg>
