<svg xmlns="http://www.w3.org/2000/svg" width="49" height="35" viewBox="0 0 49 35">
    <g fill="none" fill-rule="evenodd">
        <path fill="#FFF" d="M24.169 8.992l15.299.016-.025 24.427-15.13-.015"/>
        <path stroke="#162036" stroke-linecap="round" stroke-linejoin="round" stroke-width="1.5" d="M24.169 8.992l15.299.016-.025 24.427-15.13-.015"/>
        <path fill="#FFF" d="M44.502 22.358l-4.309-.005"/>
        <path stroke="#162036" stroke-linecap="round" stroke-linejoin="round" stroke-width="1.5" d="M44.502 22.358l-4.309-.005"/>
        <path fill="#FFF" d="M47.435 22.361a1.999 1.999 0 1 1-3.997-.005 1.999 1.999 0 0 1 3.997.005"/>
        <path stroke="#FF720B" stroke-linecap="round" stroke-linejoin="round" stroke-width="1.5" d="M47.435 22.361a1.999 1.999 0 1 1-3.997-.005 1.999 1.999 0 0 1 3.997.005z"/>
        <path fill="#FFF" d="M24.729 8.993l-15.3-.016-.025 24.428 15.13.016"/>
        <path stroke="#162036" stroke-linecap="round" stroke-linejoin="round" stroke-width="1.5" d="M24.729 8.993l-15.3-.016-.025 24.428 15.13.016"/>
        <path fill="#FFF" d="M4.37 22.317l4.308.005"/>
        <path stroke="#162036" stroke-linecap="round" stroke-linejoin="round" stroke-width="1.5" d="M4.37 22.317l4.308.005"/>
        <path fill="#FFF" d="M1.435 22.314a1.997 1.997 0 1 0 3.995.006 1.997 1.997 0 0 0-3.994-.006"/>
        <path stroke="#FF720B" stroke-linecap="round" stroke-linejoin="round" stroke-width="1.5" d="M1.435 22.314a1.997 1.997 0 1 0 3.995.006 1.997 1.997 0 0 0-3.994-.006z"/>
        <path fill="#FFF" d="M24.682 4.61l-.004 4.308"/>
        <path stroke="#162036" stroke-linecap="round" stroke-linejoin="round" stroke-width="1.5" d="M24.682 4.61l-.004 4.308"/>
        <path fill="#FFF" d="M26.74 3.365a1.997 1.997 0 0 1-2 1.996 1.998 1.998 0 1 1 2-1.996"/>
        <path stroke="#FF720B" stroke-linecap="round" stroke-linejoin="round" stroke-width="1.5" d="M26.74 3.365a1.997 1.997 0 0 1-2 1.996 1.998 1.998 0 1 1 2-1.996z"/>
        <path fill="#FFF" d="M20.94 17.565a1.76 1.76 0 1 1-3.523-.004 1.761 1.761 0 1 1 3.522.004"/>
        <path stroke="#162036" stroke-linecap="round" stroke-linejoin="round" stroke-width="1.5" d="M20.94 17.565a1.76 1.76 0 1 1-3.523-.004 1.761 1.761 0 1 1 3.522.004z"/>
        <path fill="#FFF" d="M31.463 17.576a1.76 1.76 0 1 1-3.522-.004 1.761 1.761 0 1 1 3.522.004"/>
        <path stroke="#162036" stroke-linecap="round" stroke-linejoin="round" stroke-width="1.5" d="M31.463 17.576a1.76 1.76 0 1 1-3.522-.004 1.761 1.761 0 1 1 3.522.004z"/>
        <path fill="#FFF" d="M32.035 28.388l-15.012-.016.005-5.263 15.013.015z"/>
        <path stroke="#162036" stroke-linecap="round" stroke-linejoin="round" stroke-width="1.5" d="M32.035 28.388l-15.012-.016.005-5.263 15.013.015zM21.683 23.3l-.004 4.279M27.186 23.306l-.006 4.279"/>
    </g>
</svg>
