<svg viewBox="0 0 47 72" xmlns="http://www.w3.org/2000/svg"><g stroke-linecap="round" stroke-linejoin="round" stroke-width="1.5"><g fill="#fff"><path d="m23.23 25.09 15.65.01-.03 25.9-15.47-.02" stroke="#162036"/><path d="m44.02 39.26-4.4-.01" stroke="#162036"/><ellipse cx="43.96" cy="39.26" rx="2.04" ry="2.12" stroke="#ff720b"/><path d="m23.8 25.09-15.65-.02-.02 25.9 15.47.01" stroke="#162036"/><path d="m2.98 39.21 4.4.01" stroke="#162036"/><ellipse cx="3.04" cy="39.21" rx="2.04" ry="2.12" stroke="#ff720b"/><path d="m23.75 20.44v4.57" stroke="#162036"/><ellipse cx="23.81" cy="19.12" rx="2.04" ry="2.12" stroke="#ff720b"/><ellipse cx="18.12" cy="34.17" rx="1.8" ry="1.87" stroke="#162036"/><ellipse cx="28.89" cy="34.18" rx="1.8" ry="1.87" stroke="#162036"/><path d="m15.92 40.06h15.35v5.58h-15.35z" stroke="#162036" transform="matrix(.99999945 .0010472 -.0010472 .99999945 .05 -.02)"/></g><path d="m20.69 40.25-.01 4.54" fill="none" stroke="#162036"/><path d="m26.31 40.26v4.54" fill="none" stroke="#162036"/></g></svg>