<svg xmlns="http://www.w3.org/2000/svg" width="47" height="48" viewBox="0 0 47 48">
    <g fill="none" fill-rule="evenodd">
        <path fill="#FFF" d="M23.85 6.35c-.118-1.673 2.692-3.47 3.429-3.988C29.236.889 31.27.7 33.253 1.37c2.985 1.013 4.61 4.174 3.632 7.06a5.333 5.333 0 0 1-1.211 1.993 6.377 6.377 0 0 1 3.382.202c3.264 1.107 5.043 4.562 3.974 7.717a5.895 5.895 0 0 1-2.8 3.3c3.868.828 6.466 4.445 5.854 8.268-.457 2.854-2.58 5.04-5.262 5.79a8.31 8.31 0 0 1 .379 4.114c-.748 4.679-5.277 7.844-10.115 7.069-3.564-.57-6.3-3.12-7.195-6.293-.884-4.1.377-30.622-.04-34.241"/>
        <path stroke="#FF720B" stroke-linecap="round" stroke-width="1.5" d="M23.85 6.35c-.118-1.673 2.692-3.47 3.429-3.988C29.236.889 31.27.7 33.253 1.37c2.985 1.013 4.61 4.174 3.632 7.06a5.333 5.333 0 0 1-1.211 1.993 6.377 6.377 0 0 1 3.382.202c3.264 1.107 5.043 4.562 3.974 7.717a5.895 5.895 0 0 1-2.8 3.3c3.868.828 6.466 4.445 5.854 8.268-.457 2.854-2.58 5.04-5.262 5.79a8.31 8.31 0 0 1 .379 4.114c-.748 4.679-5.277 7.844-10.115 7.069-3.564-.57-6.3-3.12-7.195-6.293-.884-4.1.377-30.622-.04-34.241z"/>
        <path fill="#FFF" d="M35.674 10.424s-.441.098-2.254.829c-2.577 1.039-5.082-1.606-5.082-1.606"/>
        <path stroke="#FF720B" stroke-linecap="round" stroke-width="1.5" d="M35.674 10.424s-.441.098-2.254.829c-2.577 1.039-5.082-1.606-5.082-1.606"/>
        <path fill="#FFF" d="M33.901 18.94s-1.56 3.006.032 6.15c0 0-4.747.18-4.828 3.93"/>
        <path stroke="#FF720B" stroke-linecap="round" stroke-linejoin="round" stroke-width="1.5" d="M33.901 18.94s-1.56 3.006.032 6.15c0 0-4.747.18-4.828 3.93"/>
        <path fill="#FFF" d="M40.822 35.7s-4.165 1.593-7.466-2.868"/>
        <path stroke="#FF720B" stroke-linecap="round" stroke-width="1.5" d="M40.822 35.7s-4.165 1.593-7.466-2.868"/>
        <path fill="#FFF" d="M23.41 5.749c-.487-1.044-2.587-2.735-3.31-3.272-1.43-1.256-3.5-1.753-5.499-1.13-3.009.937-4.713 4.056-3.807 6.967a5.34 5.34 0 0 0 1.161 2.022 6.372 6.372 0 0 0-3.386.118c-3.29 1.024-5.155 4.434-4.165 7.615a5.895 5.895 0 0 0 2.716 3.369c-3.886.73-6.573 4.284-6.057 8.12.386 2.864 2.453 5.103 5.117 5.918a8.304 8.304 0 0 0-.482 4.104c.632 4.696 5.081 7.973 9.936 7.318 3.577-.481 6.376-2.961 7.35-6.111.676-4.85.974-30.92.426-35.038"/>
        <path stroke="#162036" stroke-linecap="round" stroke-width="1.5" d="M23.41 5.749c-.487-1.044-2.587-2.735-3.31-3.272-1.43-1.256-3.5-1.753-5.499-1.13-3.009.937-4.713 4.056-3.807 6.967a5.34 5.34 0 0 0 1.161 2.022 6.372 6.372 0 0 0-3.386.118c-3.29 1.024-5.155 4.434-4.165 7.615a5.895 5.895 0 0 0 2.716 3.369c-3.886.73-6.573 4.284-6.057 8.12.386 2.864 2.453 5.103 5.117 5.918a8.304 8.304 0 0 0-.482 4.104c.632 4.696 5.081 7.973 9.936 7.318 3.577-.481 6.376-2.961 7.35-6.111.676-4.85.974-30.92.426-35.038z"/>
        <g>
            <path fill="#FFF" d="M11.955 10.28s.471.318 1.905 1.647c3.942 3.654 2.697 6.217 2.697 6.217"/>
            <path stroke="#162036" stroke-linecap="round" stroke-width="1.5" d="M11.955 10.28s.471.318 1.905 1.647c3.942 3.654 2.697 6.217 2.697 6.217"/>
        </g>
        <g>
            <path fill="#FFF" d="M14.732 24.589s4.154.4 4.76 3.119c0 0 .45-4.38 3.973-4.346"/>
            <path stroke="#162036" stroke-linecap="round" stroke-linejoin="round" stroke-width="1.5" d="M14.732 24.589s4.154.4 4.76 3.119c0 0 .45-4.38 3.973-4.346"/>
        </g>
        <g>
            <path fill="#FFF" d="M6.18 35.42s4.153-4.457 7.596-.673"/>
            <path stroke="#162036" stroke-linecap="round" stroke-width="1.5" d="M6.18 35.42s4.153-4.457 7.596-.673"/>
        </g>
    </g>
</svg>
