<svg viewBox="0 0 47 72" xmlns="http://www.w3.org/2000/svg"><g stroke-linecap="round" stroke-width="1.5"><rect fill="#fff" height="56.98" rx="5.25" stroke="#162036" stroke-miterlimit="10" width="31.95" x="7.52" y="7.51"/><path d="m25 59.08a1.52 1.52 0 1 1 -1.51-1.47 1.49 1.49 0 0 1 1.51 1.47z" fill="none" stroke="#ff720b" stroke-linejoin="round"/><path d="m18.93 12.55 9.19.01" fill="none" stroke="#ff720b" stroke-linejoin="round"/></g><path d="m19.27 38.56a4.25 4.25 0 0 1 -2.11-.68.79.79 0 0 0 -.37-.1.78.78 0 0 0 -.41.12 3.35 3.35 0 0 1 -1.82.52h-.38a4.84 4.84 0 0 0 1.17-2.59.74.74 0 0 0 0-.33 4.17 4.17 0 0 1 3.95-5.41h9.14a4 4 0 0 1 2.91 1.3 4.23 4.23 0 0 1 -2.92 7.2z" fill="#fff"/><path d="m19.27 30.82h9.14a3.32 3.32 0 0 1 2.37 1.07 3.59 3.59 0 0 1 1 2.44 3.53 3.53 0 0 1 -3.39 3.49h-9.12a3.56 3.56 0 0 1 -1.73-.58 1.53 1.53 0 0 0 -.75-.2 1.5 1.5 0 0 0 -.81.24 3.07 3.07 0 0 1 -.31.17 6 6 0 0 0 .43-1.54 1.59 1.59 0 0 0 -.07-.65 3.66 3.66 0 0 1 -.15-1 3.5 3.5 0 0 1 3.39-3.4m0-1.5a4.91 4.91 0 0 0 -4.66 6.4c-.14 1.13-.92 2.52-1.87 2.72-.53.11.46.73 1.82.73a4.08 4.08 0 0 0 2.23-.64 5 5 0 0 0 2.48.78h9.13a5 5 0 0 0 0-10h-9.13z" fill="#162036"/><ellipse cx="20.5" cy="34.32" fill="#ff720b" rx=".95" ry=".93"/><ellipse cx="23.65" cy="34.32" fill="#ff720b" rx=".95" ry=".93"/><ellipse cx="26.8" cy="34.32" fill="#ff720b" rx=".95" ry=".93"/></svg>