<svg xmlns="http://www.w3.org/2000/svg" width="24" height="18" viewBox="0 0 24 18">
    <g fill="none" fill-rule="evenodd" stroke="#F2F1F2">
        <g fill-rule="nonzero">
            <path stroke-linecap="round" stroke-linejoin="round" d="M19.148 6.741H23v3.852h-3.852zM19.148 0H23v3.852h-3.852zM19.148 13.481H23v3.852h-3.852z"/>
            <path stroke-linecap="square" d="M14.652 8.667h4M14.333 15.407h4.574M14.333 1.926h4.574M14.333 15.167V1.926"/>
        </g>
        <path d="M3.432 4.5a2.924 2.924 0 0 1 1.077-.775c.253-.106.51-.204.768-.3a.815.815 0 0 1 .402-.048.694.694 0 0 1 .4.203c.138.137.23.3.308.471.108.237.178.484.255.73.069.218.139.436.177.66.035.198.05.395.013.592a.846.846 0 0 1-.449.62c-.143.076-.3.13-.449.198-.146.066-.302.106-.455.153-.185.057-.343.15-.446.31a.876.876 0 0 0-.128.44c-.01.213.024.422.076.63.092.37.236.725.397 1.074.153.33.319.655.511.968.161.261.337.513.559.735.132.132.276.249.45.327a.81.81 0 0 0 .667.01c.043-.017.087-.035.127-.059.18-.107.378-.18.573-.256.111-.044.224-.087.341-.113.293-.065.564.004.813.169.204.135.372.304.513.495.172.232.334.471.499.708.116.168.222.34.303.525.06.133.104.269.112.412a.565.565 0 0 1-.296.548c-.097.06-.206.103-.312.15-.166.072-.332.143-.5.212-.307.127-.632.2-.97.227a3.46 3.46 0 0 1-.956-.059 3.889 3.889 0 0 1-.855-.277 4.957 4.957 0 0 1-1.35-.931 7.582 7.582 0 0 1-.974-1.137 11.59 11.59 0 0 1-.84-1.4 13.722 13.722 0 0 1-.6-1.32 8.723 8.723 0 0 1-.465-1.601 5.37 5.37 0 0 1-.085-1.283c.016-.271.071-.592.167-.904.115-.374.321-.764.622-1.104z"/>
    </g>
</svg>
