<svg height="24" viewBox="0 0 24 24" width="24" xmlns="http://www.w3.org/2000/svg" xmlns:xlink="http://www.w3.org/1999/xlink"><mask id="a" fill="#fff"><path d="m0 .011h23.922v23.283h-23.922z" fill="#fff" fill-rule="evenodd"/></mask><path d="m18.822 12.534h-2.795a.565.565 0 0 1 -.565-.564v-4.332c0-.312.253-.565.565-.565h2.708a.565.565 0 0 1 0 1.13h-2.144v1.037h1.74a.564.564 0 1 1 0 1.129h-1.74v1.036h2.23a.565.565 0 1 1 0 1.13zm-4.115-.475a.565.565 0 0 1 -1.022.331l-2.033-2.8v2.469a.565.565 0 1 1 -1.13 0v-4.209a.565.565 0 0 1 1.022-.332l2.034 2.801v-2.592a.564.564 0 1 1 1.129 0zm-5.105 0a.565.565 0 0 1 -1.129 0v-4.332a.564.564 0 1 1 1.13 0v4.332zm-2.152.58h-2.064a.565.565 0 0 1 -.565-.565v-4.332a.565.565 0 1 1 1.13 0v3.767h1.499a.565.565 0 0 1 0 1.13zm16.416-3.649-.007-.061v-.003-.003l-.029-.23-.019-.16-.006-.047h-.011c-.292-1.656-1.094-3.232-2.336-4.576-1.235-1.338-2.84-2.395-4.642-3.056a14.089 14.089 0 0 0 -4.866-.854c-2.278 0-4.49.535-6.395 1.548-3.676 1.953-5.844 5.543-5.524 9.146.166 1.865.897 3.64 2.113 5.133 1.144 1.406 2.692 2.54 4.477 3.28 1.097.455 2.182.67 3.331.897l.135.027c.316.062.4.148.423.182.04.063.02.188.003.257l-.046.19c-.123.502-.25 1.023-.15 1.596.114.66.526 1.037 1.129 1.038.648 0 1.386-.435 1.874-.723l.065-.038c1.165-.684 2.262-1.456 3.088-2.051 1.806-1.304 3.854-2.781 5.39-4.693 1.546-1.925 2.274-4.4 2.003-6.798z" fill="#f2f1f2" fill-rule="evenodd" mask="url(#a)"/></svg>