<svg xmlns="http://www.w3.org/2000/svg" xmlns:xlink="http://www.w3.org/1999/xlink" width="24" height="24" viewBox="0 0 24 24">
    <defs>
        <path id="a" d="M0 .011h23.922v23.283H0z"/>
    </defs>
    <g fill="none" fill-rule="evenodd">
        <mask id="b" fill="#fff">
            <use xlink:href="#a"/>
        </mask>
        <path fill="#F2F1F2" d="M18.822 12.534h-2.795a.565.565 0 0 1-.565-.564V7.638c0-.312.253-.565.565-.565h2.708a.565.565 0 0 1 0 1.13h-2.144V9.24h1.74a.564.564 0 1 1 0 1.129h-1.74v1.036h2.23a.565.565 0 1 1 0 1.13zm-4.115-.475a.565.565 0 0 1-1.022.331l-2.033-2.8v2.469a.565.565 0 1 1-1.13 0V7.85a.565.565 0 0 1 1.022-.332l2.034 2.801V7.727a.564.564 0 1 1 1.129 0v4.332zm-5.105 0a.565.565 0 0 1-1.129 0V7.727a.564.564 0 1 1 1.13 0v4.332zm-2.152.58H5.386a.565.565 0 0 1-.565-.565V7.742a.565.565 0 1 1 1.13 0v3.767H7.45a.565.565 0 0 1 0 1.13zM23.866 8.99l-.007-.061v-.003-.003l-.029-.23-.019-.16-.006-.047h-.011C23.502 6.83 22.7 5.254 21.458 3.91c-1.235-1.338-2.84-2.395-4.642-3.056A14.089 14.089 0 0 0 11.95 0C9.672 0 7.46.535 5.555 1.548 1.879 3.501-.289 7.091.031 10.694c.166 1.865.897 3.64 2.113 5.133 1.144 1.406 2.692 2.54 4.477 3.28 1.097.455 2.182.67 3.331.897l.135.027c.316.062.4.148.423.182.04.063.02.188.003.257l-.046.19c-.123.502-.25 1.023-.15 1.596.114.66.526 1.037 1.129 1.038.648 0 1.386-.435 1.874-.723l.065-.038c1.165-.684 2.262-1.456 3.088-2.051 1.806-1.304 3.854-2.781 5.39-4.693 1.546-1.925 2.274-4.4 2.003-6.798z" mask="url(#b)"/>
    </g>
</svg>
