<svg enable-background="new 0 0 392.8 122.8" viewBox="0 0 392.8 122.8" xmlns="http://www.w3.org/2000/svg"><g fill="#ff720b"><path d="m46.4 27.3v-5.2l-4.3.2c-.1-.5-.2-.9-.3-1.4l4.1-1.4-2.1-4.8-3.9 1.8c-.3-.4-.6-.8-.8-1.2l3.2-2.8-3.8-3.6-2.9 3.1c-.4-.3-.8-.6-1.2-.8l1.9-3.7-5-2-1.4 4c-.5-.1-.9-.2-1.5-.3l.2-4.2h-5.4l.2 4.2c-.5.1-.9.2-1.5.3l-1.4-4-5 2 1.9 3.7c-.4.3-.8.5-1.2.8l-2.9-3.1-3.8 3.7 3.2 2.8c-.3.4-.6.8-.9 1.2l-3.9-1.8-2.1 4.8 4.1 1.4c-.1.5-.2.9-.3 1.4l-4.4-.2v5.1l4.3-.2c.1.5.2 1 .4 1.4l-4.1 1.4 2.1 4.8 3.9-1.9c.3.4.6.8.9 1.2l-3.2 2.8 3.8 3.7 2.9-3.1c.4.3.8.6 1.2.8l-1.9 3.7 5 2 1.4-3.9c.5.1 1 .2 1.5.3l-.2 4.2h5.4l-.2-4.2c.5-.1 1-.2 1.5-.3l1.4 3.9 5.1-2-2-3.6c.4-.2.8-.5 1.2-.8l2.9 3.1 3.8-3.7-3.2-2.7c.3-.4.6-.8.8-1.2l3.8 1.8 2.1-4.8-4-1.3c.1-.5.2-.9.3-1.4zm-10.7-2.6c-.2 5.4-4.8 9.6-10.2 9.3-5.1-.2-9.1-4.3-9.3-9.3.1-5.3 4.5-9.5 9.8-9.4 5.2 0 9.6 4.1 9.7 9.4z"/><path d="m72.3 32.3h6.7v4h-11.4v-23.4h4.7z"/><path d="m88 12.9h4.7v23.3h-4.7z"/><path d="m111.9 37.5-10.5-24.6h5l5.5 13.9h.1l5.6-13.9h5.1l-10.7 24.6z"/><path d="m136.1 16.9v5.1h7.5v4h-7.5v6.3h7.8v4h-12.5v-23.4h12.5v4z"/><path d="m166.7 14.2c-1.9-1.2-4.1-1.2-6.2-1.2h-4.1v23.3h2.8v-10.3h2c2.1.2 4.2-.4 6-1.6 1.5-1.2 2.4-3.1 2.4-5 0-2.1-1.1-4.1-2.9-5.2zm-5.6 9.4h-1.9v-8.3h1c3.3 0 6.5.3 6.5 4.1.1 3.3-2.6 4.2-5.6 4.2z"/><path d="m179.4 12.9h13v2.4h-10.2v7h9.9v2.4h-9.9v9.2h10.2v2.3h-13z"/><path d="m209.8 25.8c3.9-.3 6.3-2.8 6.3-6.4 0-5.3-4.4-6.4-9.2-6.4h-3.6v23.3h2.8v-10.3h.7l7.6 10.2h3.4zm-3.7-2.1v-8.4h.8c3.4 0 6.4.4 6.4 4.2 0 3.6-3.2 4.2-6.4 4.2z"/><path d="m238.6 17.5c-.8-1.6-2.5-2.6-4.3-2.5-2.2 0-4.2 1.5-4.2 3.6s2.2 2.9 3.9 3.7l1.7.7c3.3 1.3 6 2.8 6 6.5 0 4.1-3.5 7.2-7.9 7.2-3.7.2-7-2.4-7.8-6l2.7-.7c.4 2.5 2.5 4.3 5 4.3 2.7 0 5.1-1.9 5.1-4.5s-2.3-3.6-4.6-4.7l-1.6-.6c-2.9-1.2-5.5-2.6-5.5-5.9 0-3.6 3.3-5.9 7-5.9 2.7-.1 5.2 1.3 6.5 3.6z"/><path d="m263.3 12.5c-7.2 0-13.1 5.4-13.1 12.1s5.9 12 13.1 12 13.1-5.3 13.1-12-5.9-12.1-13.1-12.1zm0 21.7c-5.7 0-10.3-4.4-10.3-9.6s4.5-9.6 10.3-9.6 10.3 4.3 10.3 9.6-4.5 9.6-10.3 9.6z"/><path d="m287.3 11.9 19.6 19.1v-18.1h2.8v24.4l-19.6-19v17.9h-2.8z"/></g><g enable-background="new" fill="#fff"><path d="m65 57h8.1v37.8h18.1v6.8h-26.2z"/><path d="m105.5 60.3c0 2.4-1.8 4.4-4.6 4.4-2.7 0-4.5-1.9-4.5-4.4s1.8-4.4 4.5-4.4c2.9 0 4.6 1.9 4.6 4.4zm-8.5 41.2v-32.2h8.1v32.2z"/></g><path d="m118.8 69.3 5.2 16.3c.9 2.8 1.6 5.4 2.2 8.1h.2c.6-2.6 1.3-5.2 2.2-8.1l5-16.3h8.5l-12.2 32.2h-7.9l-11.8-32.2z" fill="#fff"/><g enable-background="new" fill="#fff"><path d="m151.8 87.7c.2 5.8 4.7 8.3 9.8 8.3 3.7 0 6.4-.5 8.8-1.5l1.2 5.6c-2.7 1.1-6.5 2-11.1 2-10.3 0-16.4-6.4-16.4-16.3 0-8.9 5.4-17.3 15.6-17.3 10.3 0 13.7 8.6 13.7 15.7 0 1.5-.1 2.7-.3 3.4zm14-5.6c.1-3-1.2-7.9-6.6-7.9-5 0-7.1 4.6-7.4 7.9z"/><path d="m204.9 81.8h-16.7v13.1h18.6v6.7h-26.6v-44.6h25.7v6.7h-17.7v11.5h16.6z"/><path d="m213.6 78.9c0-3.7-.1-6.8-.3-9.6h7.1l.4 4.8h.2c1.4-2.5 4.8-5.6 10.1-5.6 5.6 0 11.3 3.6 11.3 13.8v19.1h-8.1v-18.2c0-4.6-1.7-8.1-6.1-8.1-3.2 0-5.4 2.3-6.3 4.8-.3.7-.3 1.7-.3 2.6v18.9h-8.1v-22.5z"/><path d="m280.2 69.4c-.1 2.2-.3 4.8-.3 9.3v18.2c0 6.7-1.4 11.6-4.7 14.6s-7.9 3.9-12.3 3.9c-4.1 0-8.4-.9-11.1-2.6l1.8-6.1c2 1.2 5.4 2.4 9.3 2.4 5.2 0 9.2-2.8 9.2-9.7v-2.8h-.1c-1.8 2.8-5.1 4.8-9.3 4.8-7.9 0-13.6-6.6-13.6-15.7 0-10.6 6.8-17 14.5-17 4.8 0 7.7 2.4 9.2 5h.1l.3-4.3zm-8.4 12.9c0-.7-.1-1.5-.3-2.2-.9-3-3.1-5.2-6.5-5.2-4.5 0-7.9 4-7.9 10.5 0 5.5 2.7 9.9 7.8 9.9 3 0 5.6-2 6.5-4.9.2-.9.3-2 .3-2.9v-5.2z"/><path d="m306.5 101.6-.5-3.6h-.2c-2 2.5-5.3 4.3-9.4 4.3-6.4 0-10-4.7-10-9.6 0-8.1 7.1-12.2 18.9-12.2v-.5c0-2.1-.9-5.6-6.5-5.6-3.1 0-6.4 1-8.6 2.4l-1.6-5.3c2.4-1.5 6.5-2.8 11.5-2.8 10.2 0 13.2 6.5 13.2 13.6v11.6c0 2.9.1 5.8.5 7.7zm-1.1-15.8c-5.7-.1-11.1 1.1-11.1 6 0 3.2 2 4.6 4.6 4.6 3.2 0 5.6-2.1 6.3-4.4.2-.6.3-1.3.3-1.8z"/><path d="m350.9 69.4c-.1 2.2-.3 4.8-.3 9.3v18.2c0 6.7-1.4 11.6-4.7 14.6s-7.9 3.9-12.3 3.9c-4.1 0-8.4-.9-11.1-2.6l1.8-6.1c2 1.2 5.4 2.4 9.3 2.4 5.2 0 9.2-2.8 9.2-9.7v-2.8h-.1c-1.8 2.8-5.1 4.8-9.3 4.8-7.9 0-13.6-6.6-13.6-15.7 0-10.6 6.8-17 14.5-17 4.8 0 7.7 2.4 9.2 5h.1l.3-4.3zm-8.3 12.9c0-.7-.1-1.5-.3-2.2-.9-3-3.1-5.2-6.5-5.2-4.5 0-7.9 4-7.9 10.5 0 5.5 2.7 9.9 7.8 9.9 3 0 5.6-2 6.5-4.9.2-.9.3-2 .3-2.9v-5.2z"/><path d="m365 87.7c.2 5.8 4.7 8.3 9.8 8.3 3.7 0 6.4-.5 8.8-1.5l1.2 5.6c-2.7 1.1-6.5 2-11.1 2-10.3 0-16.4-6.4-16.4-16.3 0-8.9 5.4-17.3 15.6-17.3 10.3 0 13.7 8.6 13.7 15.7 0 1.5-.1 2.7-.3 3.4zm14-5.6c.1-3-1.2-7.9-6.6-7.9-5 0-7.1 4.6-7.4 7.9z"/></g></svg>