<svg width="294" height="28" viewBox="0 0 294 28" fill="none" xmlns="http://www.w3.org/2000/svg">
<path d="M5.20594 7.17976L2.99949 5.23766L5.31168 2.96073L7.28197 5.13192C7.68134 4.82822 8.10053 4.55151 8.53675 4.30362L7.25377 1.68127L10.2744 0.447634L11.2508 3.19688C11.7385 3.06804 12.2342 2.97149 12.7346 2.90785L12.569 0H15.8399L15.6601 2.90785C16.1605 2.97167 16.6562 3.06822 17.144 3.19688L18.1203 0.447634L21.141 1.68127L19.8897 4.30362C20.3258 4.55173 20.745 4.82843 21.1445 5.13192L23.1148 2.96073L25.427 5.23766L23.2205 7.17976C23.5288 7.57275 23.8103 7.98607 24.0629 8.41692L26.7276 7.15509L27.9788 10.1299L25.1767 11.0921C25.3066 11.5715 25.4044 12.059 25.4693 12.5514L28.423 12.3892V15.6108L25.4693 15.4486C25.4047 15.9411 25.3069 16.4286 25.1767 16.9079L27.9683 17.8701L26.717 20.8449L24.0524 19.5831C23.7994 20.0137 23.518 20.427 23.21 20.8202L25.4164 22.7623L23.1042 25.0393L21.1339 22.8681C20.7344 23.1716 20.3152 23.4483 19.8792 23.6964L21.1621 26.3187L18.1415 27.5524L17.1652 24.8031C16.6774 24.9318 16.1817 25.0284 15.6813 25.0921L15.8469 28H12.576L12.7417 25.0921C12.2413 25.0282 11.7456 24.9317 11.2578 24.8031L10.2815 27.5524L7.26082 26.3187L8.5438 23.6964C8.10771 23.4483 7.68853 23.1716 7.28902 22.8681L5.31873 25.0393L3.00655 22.7623L5.21299 20.8202C4.90483 20.4272 4.6234 20.0138 4.37059 19.5831L1.70594 20.8449L0.45468 17.8701L3.24622 16.9079C3.11573 16.4286 3.01799 15.9411 2.95367 15.4486L0 15.6108V12.3857L2.95367 12.5478C3.01798 12.0554 3.11572 11.5678 3.24622 11.0886L0.45468 10.1264L1.70594 7.15156L4.38117 8.41692C4.62843 7.98675 4.90396 7.57345 5.20594 7.17976ZM7.32074 13.9965C7.29976 15.3629 7.68578 16.7048 8.42969 17.8512C9.1736 18.9976 10.2418 19.8968 11.4982 20.4343C12.7547 20.9718 14.1427 21.1234 15.4856 20.8697C16.8285 20.616 18.0655 19.9686 19.0393 19.0097C20.0131 18.0509 20.6796 16.824 20.9541 15.4852C21.2285 14.1464 21.0984 12.7562 20.5804 11.4916C20.0624 10.227 19.1798 9.14501 18.045 8.38346C16.9103 7.6219 15.5746 7.21517 14.208 7.215C13.3104 7.20803 12.4204 7.37792 11.5885 7.71495C10.7567 8.05198 9.99934 8.54957 9.3598 9.17929C8.72026 9.80901 8.21102 10.5585 7.86116 11.3851C7.51129 12.2116 7.32766 13.099 7.32074 13.9965ZM164.447 6.73565L175.374 17.5529V7.29607H176.935V21.1339L166.009 10.3343V20.5383H164.447V6.73565ZM145.368 13.9119C145.368 16.8973 147.93 19.3892 151.11 19.3892C154.289 19.3892 156.848 16.8973 156.848 13.9119C156.848 10.9265 154.321 8.43102 151.11 8.43102C147.899 8.43102 145.368 10.9124 145.368 13.9119ZM158.409 13.9295C158.409 17.7397 155.103 20.7603 151.11 20.7603C147.116 20.7603 143.81 17.7397 143.81 13.9295C143.81 10.1193 147.116 7.06344 151.11 7.06344C155.103 7.06344 158.409 10.1405 158.409 13.933V13.9295ZM137.282 9.87613C136.726 8.96324 136.056 8.43454 134.868 8.43454C133.624 8.43454 132.545 9.27694 132.545 10.4894C132.545 11.6314 133.79 12.1566 134.738 12.5619L135.668 12.9496C137.49 13.7039 139.031 14.5639 139.031 16.6717C139.031 18.9909 137.06 20.7638 134.628 20.7638C132.38 20.7638 130.709 19.3927 130.265 17.3379L131.788 16.9325C131.874 17.6177 132.209 18.2474 132.728 18.7022C133.248 19.157 133.917 19.4052 134.607 19.3998C136.112 19.3998 137.487 18.3107 137.487 16.8197C137.487 15.3288 136.204 14.7472 134.903 14.1868L134.05 13.8343C132.415 13.1294 131.005 12.3434 131.005 10.4471C131.005 8.39225 132.845 7.07402 134.924 7.07402C135.658 7.05698 136.382 7.23907 137.02 7.60092C137.658 7.96276 138.186 8.49082 138.548 9.1289L137.282 9.87613ZM119.162 13.4255H119.638C121.4 13.4255 123.184 13.1083 123.184 11.0534C123.184 8.87512 121.492 8.66365 119.617 8.66365H119.152L119.162 13.4255ZM119.162 20.5383H117.601V7.29607H119.638C122.296 7.29607 124.763 7.96223 124.763 10.9476C124.763 12.9849 123.406 14.423 121.238 14.5992L125.7 20.5383H123.786L119.557 14.7261H119.166L119.162 20.5383ZM104.284 7.29607H111.531V8.66365H105.842V12.6007H111.376V13.9718H105.842V19.1707H111.531V20.5418H104.284V7.29607ZM93.0055 13.3726H94.0629C95.79 13.3726 97.2563 12.8792 97.2563 10.9829C97.2563 8.82226 95.4164 8.66365 93.5977 8.66365H93.0232L93.0055 13.3726ZM93.0055 20.5383H91.4406V7.29607H93.7457C94.9512 7.29607 96.213 7.33132 97.2175 8.00101C97.7108 8.33388 98.1134 8.7843 98.389 9.31164C98.6647 9.83898 98.8048 10.4267 98.7966 11.0217C98.8012 11.5656 98.6836 12.1035 98.4524 12.5959C98.2211 13.0882 97.8822 13.5223 97.4607 13.8661C96.5126 14.6027 95.3071 14.7437 94.137 14.7437H93.002L93.0055 20.5383ZM80.1616 9.54481V12.4597H84.3348V14.7085H80.1616V18.2931H84.497V20.5418H77.5393V7.29607H84.497V9.54481H80.1616ZM66.641 15.1843L69.8449 7.31017H72.6647L66.6939 21.2749L60.7759 7.29607H63.5957L66.641 15.1843ZM55.9119 20.5418H53.2895V7.29607H55.9119V20.5418ZM44.5624 18.2931H48.2739V20.5418H41.9295V7.29607H44.5624V18.2931Z" fill="#FF6900"/>
<path d="M191.818 21V6.78125H195.831C197.068 6.78125 198.162 7.05469 199.113 7.60156C200.063 8.14844 200.795 8.92643 201.31 9.93555C201.831 10.9447 202.094 12.1035 202.101 13.4121V14.3203C202.101 15.6615 201.84 16.8366 201.32 17.8457C200.805 18.8548 200.066 19.6296 199.103 20.1699C198.146 20.7103 197.029 20.987 195.753 21H191.818ZM193.693 8.32422V19.4668H195.665C197.111 19.4668 198.234 19.0176 199.034 18.1191C199.842 17.2207 200.245 15.9414 200.245 14.2812V13.4512C200.245 11.8366 199.864 10.5833 199.103 9.69141C198.348 8.79297 197.273 8.33724 195.88 8.32422H193.693ZM209.444 21.1953C208.012 21.1953 206.846 20.7266 205.948 19.7891C205.05 18.8451 204.6 17.5853 204.6 16.0098V15.6777C204.6 14.6296 204.799 13.6953 205.196 12.875C205.6 12.0482 206.16 11.4036 206.876 10.9414C207.598 10.4727 208.38 10.2383 209.22 10.2383C210.593 10.2383 211.661 10.6908 212.423 11.5957C213.184 12.5007 213.565 13.7962 213.565 15.4824V16.2344H206.407C206.433 17.276 206.736 18.1191 207.315 18.7637C207.901 19.4017 208.643 19.7207 209.542 19.7207C210.18 19.7207 210.72 19.5905 211.163 19.3301C211.606 19.0697 211.993 18.7246 212.325 18.2949L213.429 19.1543C212.543 20.515 211.215 21.1953 209.444 21.1953ZM209.22 11.7227C208.49 11.7227 207.878 11.9896 207.384 12.5234C206.889 13.0508 206.583 13.793 206.466 14.75H211.759V14.6133C211.707 13.6953 211.459 12.9857 211.016 12.4844C210.574 11.9766 209.975 11.7227 209.22 11.7227ZM219.414 18.5488L222.032 10.4336H223.877L220.088 21H218.711L214.883 10.4336H216.729L219.414 18.5488ZM230.264 21.1953C228.831 21.1953 227.666 20.7266 226.768 19.7891C225.869 18.8451 225.42 17.5853 225.42 16.0098V15.6777C225.42 14.6296 225.618 13.6953 226.016 12.875C226.419 12.0482 226.979 11.4036 227.695 10.9414C228.418 10.4727 229.199 10.2383 230.039 10.2383C231.413 10.2383 232.48 10.6908 233.242 11.5957C234.004 12.5007 234.385 13.7962 234.385 15.4824V16.2344H227.227C227.253 17.276 227.555 18.1191 228.135 18.7637C228.721 19.4017 229.463 19.7207 230.361 19.7207C230.999 19.7207 231.54 19.5905 231.982 19.3301C232.425 19.0697 232.813 18.7246 233.145 18.2949L234.248 19.1543C233.363 20.515 232.035 21.1953 230.264 21.1953ZM230.039 11.7227C229.31 11.7227 228.698 11.9896 228.203 12.5234C227.708 13.0508 227.402 13.793 227.285 14.75H232.578V14.6133C232.526 13.6953 232.279 12.9857 231.836 12.4844C231.393 11.9766 230.794 11.7227 230.039 11.7227ZM238.847 21H237.041V6H238.847V21ZM241.669 15.6191C241.669 14.584 241.871 13.653 242.275 12.8262C242.685 11.9993 243.251 11.3613 243.974 10.9121C244.703 10.4629 245.533 10.2383 246.464 10.2383C247.903 10.2383 249.065 10.7363 249.95 11.7324C250.842 12.7285 251.288 14.0534 251.288 15.707V15.834C251.288 16.8626 251.09 17.7871 250.693 18.6074C250.302 19.4212 249.739 20.056 249.003 20.5117C248.274 20.9674 247.434 21.1953 246.484 21.1953C245.051 21.1953 243.889 20.6973 242.997 19.7012C242.112 18.7051 241.669 17.3867 241.669 15.7461V15.6191ZM243.486 15.834C243.486 17.0059 243.756 17.9466 244.296 18.6562C244.843 19.3659 245.572 19.7207 246.484 19.7207C247.402 19.7207 248.131 19.3626 248.671 18.6465C249.211 17.9238 249.482 16.9147 249.482 15.6191C249.482 14.4603 249.205 13.5228 248.652 12.8066C248.105 12.084 247.376 11.7227 246.464 11.7227C245.572 11.7227 244.853 12.0775 244.306 12.7871C243.759 13.4967 243.486 14.5124 243.486 15.834ZM262.88 15.834C262.88 17.4421 262.512 18.7376 261.776 19.7207C261.04 20.7038 260.044 21.1953 258.788 21.1953C257.505 21.1953 256.496 20.7884 255.761 19.9746V25.0625H253.954V10.4336H255.604L255.692 11.6055C256.428 10.694 257.45 10.2383 258.759 10.2383C260.028 10.2383 261.031 10.7168 261.766 11.6738C262.509 12.6309 262.88 13.9622 262.88 15.668V15.834ZM261.073 15.6289C261.073 14.4375 260.819 13.4967 260.311 12.8066C259.804 12.1165 259.107 11.7715 258.221 11.7715C257.128 11.7715 256.307 12.2565 255.761 13.2266V18.2754C256.301 19.2389 257.128 19.7207 258.241 19.7207C259.107 19.7207 259.794 19.3789 260.302 18.6953C260.816 18.0052 261.073 16.9831 261.073 15.6289ZM269.969 21.1953C268.537 21.1953 267.371 20.7266 266.473 19.7891C265.575 18.8451 265.125 17.5853 265.125 16.0098V15.6777C265.125 14.6296 265.324 13.6953 265.721 12.875C266.125 12.0482 266.685 11.4036 267.401 10.9414C268.123 10.4727 268.905 10.2383 269.745 10.2383C271.118 10.2383 272.186 10.6908 272.948 11.5957C273.709 12.5007 274.09 13.7962 274.09 15.4824V16.2344H266.932C266.958 17.276 267.261 18.1191 267.84 18.7637C268.426 19.4017 269.168 19.7207 270.067 19.7207C270.705 19.7207 271.245 19.5905 271.688 19.3301C272.131 19.0697 272.518 18.7246 272.85 18.2949L273.954 19.1543C273.068 20.515 271.74 21.1953 269.969 21.1953ZM269.745 11.7227C269.015 11.7227 268.403 11.9896 267.909 12.5234C267.414 13.0508 267.108 13.793 266.991 14.75H272.284V14.6133C272.232 13.6953 271.984 12.9857 271.541 12.4844C271.099 11.9766 270.5 11.7227 269.745 11.7227ZM281.697 12.0547C281.424 12.0091 281.128 11.9863 280.809 11.9863C279.624 11.9863 278.82 12.4909 278.396 13.5V21H276.59V10.4336H278.348L278.377 11.6543C278.969 10.7103 279.809 10.2383 280.896 10.2383C281.248 10.2383 281.515 10.2839 281.697 10.375V12.0547Z" fill="#090C43"/>
</svg>
