<svg width="152" height="24" viewBox="0 0 152 24" fill="none" xmlns="http://www.w3.org/2000/svg">
<path d="M4.46223 6.15408L2.571 4.48943L4.55287 2.53776L6.24169 4.39879C6.58401 4.13848 6.94331 3.90129 7.31722 3.68882L6.21752 1.44109L8.80664 0.383686L9.6435 2.74018C10.0616 2.62975 10.4865 2.54699 10.9154 2.49245L10.7734 0H13.577L13.423 2.49245C13.8519 2.54714 14.2768 2.6299 14.6949 2.74018L15.5317 0.383686L18.1208 1.44109L17.0483 3.68882C17.4221 3.90148 17.7814 4.13866 18.1239 4.39879L19.8127 2.53776L21.7946 4.48943L19.9033 6.15408C20.1676 6.49093 20.4088 6.8452 20.6254 7.2145L22.9094 6.13293L23.9819 8.68278L21.5801 9.50755C21.6914 9.91842 21.7752 10.3363 21.8308 10.7583L24.3625 10.6193V13.3807L21.8308 13.2417C21.7754 13.6638 21.6917 14.0816 21.5801 14.4924L23.9728 15.3172L22.9003 17.8671L20.6163 16.7855C20.3995 17.1546 20.1583 17.5089 19.8943 17.8459L21.7855 19.5106L19.8036 21.4622L18.1148 19.6012C17.7724 19.8613 17.4131 20.0985 17.0393 20.3112L18.139 22.5589L15.5498 23.6163L14.713 21.2598C14.2949 21.3701 13.87 21.4529 13.4411 21.5076L13.5831 24H10.7795L10.9214 21.5076C10.4925 21.4528 10.0677 21.37 9.64954 21.2598L8.81269 23.6163L6.22356 22.5589L7.32326 20.3112C6.94947 20.0985 6.59017 19.8614 6.24773 19.6012L4.55891 21.4622L2.57704 19.5106L4.46828 17.8459C4.20414 17.509 3.96291 17.1547 3.74622 16.7855L1.46223 17.8671L0.389726 15.3172L2.78247 14.4924C2.67062 14.0817 2.58684 13.6638 2.53172 13.2417L0 13.3807V10.6163L2.53172 10.7553C2.58684 10.3332 2.67061 9.91528 2.78247 9.50453L0.389726 8.67976L1.46223 6.12991L3.75528 7.2145C3.96723 6.84578 4.20339 6.49153 4.46223 6.15408ZM6.27492 11.997C6.25694 13.1682 6.58782 14.3184 7.22545 15.301C7.86309 16.2837 8.77865 17.0544 9.85563 17.5151C10.9326 17.9759 12.1223 18.1058 13.2734 17.8883C14.4244 17.6709 15.4847 17.1159 16.3194 16.2941C17.1541 15.4722 17.7254 14.4206 17.9606 13.273C18.1959 12.1255 18.0844 10.9339 17.6403 9.84994C17.1963 8.76596 16.4398 7.83858 15.4672 7.18582C14.4945 6.53306 13.3496 6.18443 12.1782 6.18429C11.409 6.17832 10.646 6.32393 9.93301 6.61282C9.21999 6.9017 8.57086 7.3282 8.02268 7.86796C7.4745 8.40773 7.03802 9.05018 6.73813 9.75864C6.43825 10.4671 6.28085 11.2277 6.27492 11.997V11.997ZM140.955 5.77341L150.32 15.0453V6.25378H151.659V18.1148L142.293 8.85801V17.6042H140.955V5.77341ZM124.601 11.9245C124.601 14.4834 126.798 16.6193 129.523 16.6193C132.248 16.6193 134.441 14.4834 134.441 11.9245C134.441 9.36556 132.275 7.22659 129.523 7.22659C126.77 7.22659 124.601 9.35347 124.601 11.9245ZM135.779 11.9396C135.779 15.2054 132.946 17.7946 129.523 17.7946C126.1 17.7946 123.266 15.2054 123.266 11.9396C123.266 8.67372 126.1 6.05438 129.523 6.05438C132.946 6.05438 135.779 8.69184 135.779 11.9426V11.9396ZM117.671 8.46526C117.193 7.68278 116.619 7.22961 115.601 7.22961C114.535 7.22961 113.61 7.95166 113.61 8.99094C113.61 9.96979 114.677 10.4199 115.489 10.7674L116.287 11.0997C117.849 11.7462 119.169 12.4834 119.169 14.29C119.169 16.2779 117.48 17.7976 115.396 17.7976C113.468 17.7976 112.036 16.6224 111.656 14.861L112.961 14.5136C113.035 15.1009 113.322 15.6407 113.767 16.0305C114.213 16.4203 114.786 16.633 115.378 16.6284C116.668 16.6284 117.846 15.6949 117.846 14.4169C117.846 13.139 116.746 12.6405 115.631 12.1601L114.9 11.858C113.498 11.2538 112.29 10.5801 112.29 8.95468C112.29 7.19335 113.867 6.06344 115.65 6.06344C116.278 6.04884 116.899 6.20492 117.446 6.51507C117.993 6.82522 118.445 7.27785 118.755 7.82477L117.671 8.46526ZM102.139 11.5076H102.547C104.057 11.5076 105.586 11.2356 105.586 9.47432C105.586 7.60725 104.136 7.42598 102.529 7.42598H102.13L102.139 11.5076ZM102.139 17.6042H100.801V6.25378H102.547C104.825 6.25378 106.94 6.82477 106.94 9.38368C106.94 11.1299 105.776 12.3625 103.918 12.5136L107.743 17.6042H106.103L102.477 12.6224H102.142L102.139 17.6042ZM89.3867 6.25378H95.5982V7.42598H90.722V10.8006H95.4652V11.9758H90.722V16.432H95.5982V17.6072H89.3867V6.25378ZM79.719 11.4622H80.6254C82.1057 11.4622 83.3625 11.0393 83.3625 9.4139C83.3625 7.56193 81.7855 7.42598 80.2266 7.42598H79.7341L79.719 11.4622ZM79.719 17.6042H78.3776V6.25378H80.3535C81.3867 6.25378 82.4683 6.28399 83.3293 6.85801C83.7521 7.14332 84.0972 7.5294 84.3335 7.9814C84.5697 8.43341 84.6898 8.93714 84.6828 9.44713C84.6867 9.91333 84.5859 10.3745 84.3877 10.7965C84.1895 11.2185 83.8991 11.5905 83.5378 11.8852C82.7251 12.5166 81.6918 12.6375 80.6888 12.6375H79.716L79.719 17.6042ZM68.71 8.18127V10.6798H72.287V12.6073H68.71V15.6798H72.426V17.6072H66.4622V6.25378H72.426V8.18127H68.71ZM57.1208 13.0151L59.8671 6.26586H62.284L57.1662 18.2356L52.0937 6.25378H54.5106L57.1208 13.0151ZM47.9245 17.6072H45.6767V6.25378H47.9245V17.6072ZM38.1964 15.6798H41.3776V17.6072H35.9396V6.25378H38.1964V15.6798Z" fill="#FF6900"/>
</svg>
