<?xml version="1.0" encoding="utf-8"?>
<!-- Generator: Adobe Illustrator 23.0.3, SVG Export Plug-In . SVG Version: 6.00 Build 0)  -->
<svg version="1.1" id="Layer_1" xmlns="http://www.w3.org/2000/svg" xmlns:xlink="http://www.w3.org/1999/xlink" x="0px" y="0px"
	 viewBox="0 0 392.8 122.8" style="enable-background:new 0 0 392.8 122.8;" xml:space="preserve">
<style type="text/css">
	.st0{fill:#FF720B;}
	.st1{enable-background:new    ;}
	.st2{fill:#fff;}
</style>
<title>liveengage logo</title>
<path class="st0" d="M46.4,27.3v-5.2l-4.3,0.2c-0.1-0.5-0.2-0.9-0.3-1.4l4.1-1.4l-2.1-4.8l-3.9,1.8c-0.3-0.4-0.6-0.8-0.8-1.2
	l3.2-2.8l-3.8-3.6L35.6,12c-0.4-0.3-0.8-0.6-1.2-0.8l1.9-3.7l-5-2l-1.4,4c-0.5-0.1-0.9-0.2-1.5-0.3L28.6,5h-5.4l0.2,4.2
	c-0.5,0.1-0.9,0.2-1.5,0.3l-1.4-4l-5,2l1.9,3.7c-0.4,0.3-0.8,0.5-1.2,0.8l-2.9-3.1l-3.8,3.7l3.2,2.8c-0.3,0.4-0.6,0.8-0.9,1.2
	l-3.9-1.8l-2.1,4.8L9.9,21c-0.1,0.5-0.2,0.9-0.3,1.4l-4.4-0.2v5.1l4.3-0.2c0.1,0.5,0.2,1,0.4,1.4l-4.1,1.4l2.1,4.8l3.9-1.9
	c0.3,0.4,0.6,0.8,0.9,1.2l-3.2,2.8l3.8,3.7l2.9-3.1c0.4,0.3,0.8,0.6,1.2,0.8l-1.9,3.7l5,2l1.4-3.9c0.5,0.1,1,0.2,1.5,0.3l-0.2,4.2
	h5.4l-0.2-4.2c0.5-0.1,1-0.2,1.5-0.3l1.4,3.9l5.1-2l-2-3.6c0.4-0.2,0.8-0.5,1.2-0.8l2.9,3.1l3.8-3.7l-3.2-2.7
	c0.3-0.4,0.6-0.8,0.8-1.2l3.8,1.8l2.1-4.8l-4-1.3c0.1-0.5,0.2-0.9,0.3-1.4L46.4,27.3z M35.7,24.7c-0.2,5.4-4.8,9.6-10.2,9.3
	c-5.1-0.2-9.1-4.3-9.3-9.3c0.1-5.3,4.5-9.5,9.8-9.4C31.2,15.3,35.6,19.4,35.7,24.7z"/>
<polygon class="st0" points="72.3,32.3 79,32.3 79,36.3 67.6,36.3 67.6,12.9 72.3,12.9 "/>
<rect x="88" y="12.9" class="st0" width="4.7" height="23.3"/>
<polygon class="st0" points="111.9,37.5 101.4,12.9 106.4,12.9 111.9,26.8 112,26.8 117.6,12.9 122.7,12.9 112,37.5 "/>
<polygon class="st0" points="136.1,16.9 136.1,22 143.6,22 143.6,26 136.1,26 136.1,32.3 143.9,32.3 143.9,36.3 131.4,36.3
	131.4,12.9 143.9,12.9 143.9,16.9 "/>
<path class="st0" d="M166.7,14.2c-1.9-1.2-4.1-1.2-6.2-1.2h-4.1v23.3h2.8V26h2c2.1,0.2,4.2-0.4,6-1.6c1.5-1.2,2.4-3.1,2.4-5
	C169.6,17.3,168.5,15.3,166.7,14.2z M161.1,23.6h-1.9v-8.3h1c3.3,0,6.5,0.3,6.5,4.1C166.8,22.7,164.1,23.6,161.1,23.6z"/>
<polygon class="st0" points="179.4,12.9 192.4,12.9 192.4,15.3 182.2,15.3 182.2,22.3 192.1,22.3 192.1,24.7 182.2,24.7 182.2,33.9
	192.4,33.9 192.4,36.2 179.4,36.2 "/>
<path class="st0" d="M209.8,25.8c3.9-0.3,6.3-2.8,6.3-6.4c0-5.3-4.4-6.4-9.2-6.4h-3.6v23.3h2.8V26h0.7l7.6,10.2h3.4L209.8,25.8z
	 M206.1,23.7v-8.4h0.8c3.4,0,6.4,0.4,6.4,4.2c0,3.6-3.2,4.2-6.4,4.2H206.1z"/>
<path class="st0" d="M238.6,17.5c-0.8-1.6-2.5-2.6-4.3-2.5c-2.2,0-4.2,1.5-4.2,3.6s2.2,2.9,3.9,3.7l1.7,0.7c3.3,1.3,6,2.8,6,6.5
	c0,4.1-3.5,7.2-7.9,7.2c-3.7,0.2-7-2.4-7.8-6l2.7-0.7c0.4,2.5,2.5,4.3,5,4.3c2.7,0,5.1-1.9,5.1-4.5s-2.3-3.6-4.6-4.7l-1.6-0.6
	c-2.9-1.2-5.5-2.6-5.5-5.9c0-3.6,3.3-5.9,7-5.9c2.7-0.1,5.2,1.3,6.5,3.6L238.6,17.5z"/>
<path class="st0" d="M263.3,12.5c-7.2,0-13.1,5.4-13.1,12.1s5.9,12,13.1,12s13.1-5.3,13.1-12S270.5,12.5,263.3,12.5z M263.3,34.2
	c-5.7,0-10.3-4.4-10.3-9.6s4.5-9.6,10.3-9.6s10.3,4.3,10.3,9.6S269.1,34.2,263.3,34.2z"/>
<polygon class="st0" points="287.3,11.9 306.9,31 306.9,12.9 309.7,12.9 309.7,37.3 290.1,18.3 290.1,36.2 287.3,36.2 "/>
<g class="st1">
	<path class="st2" d="M65,57h8.1v37.8h18.1v6.8H65V57z"/>
	<path class="st2" d="M105.5,60.3c0,2.4-1.8,4.4-4.6,4.4c-2.7,0-4.5-1.9-4.5-4.4c0-2.5,1.8-4.4,4.5-4.4
		C103.8,55.9,105.5,57.8,105.5,60.3z M97,101.5V69.3h8.1v32.2H97z"/>
</g>
<g class="st1">
	<path class="st2" d="M118.8,69.3l5.2,16.3c0.9,2.8,1.6,5.4,2.2,8.1h0.2c0.6-2.6,1.3-5.2,2.2-8.1l5-16.3h8.5l-12.2,32.2H122
		l-11.8-32.2H118.8z"/>
</g>
<g class="st1">
	<path class="st2" d="M151.8,87.7c0.2,5.8,4.7,8.3,9.8,8.3c3.7,0,6.4-0.5,8.8-1.5l1.2,5.6c-2.7,1.1-6.5,2-11.1,2
		c-10.3,0-16.4-6.4-16.4-16.3c0-8.9,5.4-17.3,15.6-17.3c10.3,0,13.7,8.6,13.7,15.7c0,1.5-0.1,2.7-0.3,3.4L151.8,87.7L151.8,87.7z
		 M165.8,82.1c0.1-3-1.2-7.9-6.6-7.9c-5,0-7.1,4.6-7.4,7.9H165.8z"/>
	<path class="st2" d="M204.9,81.8h-16.7v13.1h18.6v6.7h-26.6V57h25.7v6.7h-17.7v11.5h16.6L204.9,81.8L204.9,81.8z"/>
	<path class="st2" d="M213.6,78.9c0-3.7-0.1-6.8-0.3-9.6h7.1l0.4,4.8h0.2c1.4-2.5,4.8-5.6,10.1-5.6c5.6,0,11.3,3.6,11.3,13.8v19.1
		h-8.1V83.2c0-4.6-1.7-8.1-6.1-8.1c-3.2,0-5.4,2.3-6.3,4.8c-0.3,0.7-0.3,1.7-0.3,2.6v18.9h-8.1V78.9H213.6z"/>
	<path class="st2" d="M280.2,69.4c-0.1,2.2-0.3,4.8-0.3,9.3v18.2c0,6.7-1.4,11.6-4.7,14.6c-3.3,3-7.9,3.9-12.3,3.9
		c-4.1,0-8.4-0.9-11.1-2.6l1.8-6.1c2,1.2,5.4,2.4,9.3,2.4c5.2,0,9.2-2.8,9.2-9.7v-2.8H272c-1.8,2.8-5.1,4.8-9.3,4.8
		c-7.9,0-13.6-6.6-13.6-15.7c0-10.6,6.8-17,14.5-17c4.8,0,7.7,2.4,9.2,5h0.1l0.3-4.3C273.2,69.4,280.2,69.4,280.2,69.4z M271.8,82.3
		c0-0.7-0.1-1.5-0.3-2.2c-0.9-3-3.1-5.2-6.5-5.2c-4.5,0-7.9,4-7.9,10.5c0,5.5,2.7,9.9,7.8,9.9c3,0,5.6-2,6.5-4.9
		c0.2-0.9,0.3-2,0.3-2.9v-5.2C271.7,82.3,271.8,82.3,271.8,82.3z"/>
	<path class="st2" d="M306.5,101.6L306,98h-0.2c-2,2.5-5.3,4.3-9.4,4.3c-6.4,0-10-4.7-10-9.6c0-8.1,7.1-12.2,18.9-12.2V80
		c0-2.1-0.9-5.6-6.5-5.6c-3.1,0-6.4,1-8.6,2.4l-1.6-5.3c2.4-1.5,6.5-2.8,11.5-2.8c10.2,0,13.2,6.5,13.2,13.6v11.6
		c0,2.9,0.1,5.8,0.5,7.7C313.8,101.6,306.5,101.6,306.5,101.6z M305.4,85.8c-5.7-0.1-11.1,1.1-11.1,6c0,3.2,2,4.6,4.6,4.6
		c3.2,0,5.6-2.1,6.3-4.4c0.2-0.6,0.3-1.3,0.3-1.8L305.4,85.8L305.4,85.8z"/>
	<path class="st2" d="M350.9,69.4c-0.1,2.2-0.3,4.8-0.3,9.3v18.2c0,6.7-1.4,11.6-4.7,14.6c-3.3,3-7.9,3.9-12.3,3.9
		c-4.1,0-8.4-0.9-11.1-2.6l1.8-6.1c2,1.2,5.4,2.4,9.3,2.4c5.2,0,9.2-2.8,9.2-9.7v-2.8h-0.1c-1.8,2.8-5.1,4.8-9.3,4.8
		c-7.9,0-13.6-6.6-13.6-15.7c0-10.6,6.8-17,14.5-17c4.8,0,7.7,2.4,9.2,5h0.1l0.3-4.3C343.9,69.4,350.9,69.4,350.9,69.4z M342.6,82.3
		c0-0.7-0.1-1.5-0.3-2.2c-0.9-3-3.1-5.2-6.5-5.2c-4.5,0-7.9,4-7.9,10.5c0,5.5,2.7,9.9,7.8,9.9c3,0,5.6-2,6.5-4.9
		c0.2-0.9,0.3-2,0.3-2.9v-5.2C342.5,82.3,342.6,82.3,342.6,82.3z"/>
	<path class="st2" d="M365,87.7c0.2,5.8,4.7,8.3,9.8,8.3c3.7,0,6.4-0.5,8.8-1.5l1.2,5.6c-2.7,1.1-6.5,2-11.1,2
		c-10.3,0-16.4-6.4-16.4-16.3c0-8.9,5.4-17.3,15.6-17.3c10.3,0,13.7,8.6,13.7,15.7c0,1.5-0.1,2.7-0.3,3.4L365,87.7L365,87.7z
		 M379,82.1c0.1-3-1.2-7.9-6.6-7.9c-5,0-7.1,4.6-7.4,7.9H379z"/>
</g>
</svg>
