<svg height="49" viewBox="0 0 265 49" width="265" xmlns="http://www.w3.org/2000/svg" xmlns:xlink="http://www.w3.org/1999/xlink"><mask id="a" fill="#fff"><path d="m0 .015v24.24h23.55v-24.239h-23.55z" fill="#fff" fill-rule="evenodd"/></mask><mask id="b" fill="#fff"><path d="m0 25.738h181v-25.563h-181z" fill="#fff" fill-rule="evenodd"/></mask><g fill="none" fill-rule="evenodd"><text fill="#fff" font-family="Futura-Medium, Futura" font-size="16" font-weight="400" letter-spacing=".16"><tspan x="34" y="41">Knowledge Center</tspan></text><g fill="#ff7113"><path d="m17.384 12.13c0 3.188-2.52 5.766-5.601 5.766-3.104 0-5.617-2.578-5.617-5.767 0-3.188 2.513-5.758 5.617-5.758 3.08 0 5.601 2.57 5.601 5.758zm6.166 1.608v-3.186l-2.48.139a9.192 9.192 0 0 0 -.174-.87l2.346-.852-1.184-2.95-2.236 1.11c-.148-.243-.314-.485-.481-.731l1.86-1.705-2.196-2.248-1.664 1.914a6.06 6.06 0 0 0 -.709-.504l1.078-2.305-2.866-1.219-.815 2.429a9.317 9.317 0 0 0 -.85-.19l.141-2.555h-3.096l.14 2.555a8.74 8.74 0 0 0 -.843.19l-.829-2.43-2.85 1.22 1.07 2.304c-.243.15-.47.32-.71.504l-1.662-1.913-2.184 2.248 1.856 1.705c-.171.246-.343.488-.488.73l-2.232-1.11-1.192 2.95 2.35.854a9.177 9.177 0 0 0 -.17.869l-2.48-.139v3.186l2.48-.14c.044.287.097.57.17.856l-2.35.846 1.192 2.947 2.232-1.109c.145.253.317.494.488.74l-1.856 1.706 2.183 2.246 1.663-1.907c.24.184.467.351.704.5l-1.074 2.303 2.86 1.221.83-2.419c.277.075.554.132.842.18l-.14 2.549h3.096l-.14-2.55c.285-.047.567-.104.849-.179l.815 2.42 2.865-1.222-1.065-2.302c.239-.15.47-.317.697-.501l1.664 1.907 2.196-2.246-1.86-1.706c.167-.246.333-.476.481-.724l2.236 1.093 1.184-2.947-2.346-.845c.07-.286.131-.569.173-.857l2.481.141z" mask="url(#a)" transform="translate(0 .16)"/><path d="m38.46 16.928h3.825v2.428h-6.528v-14.272h2.703z"/><path d="m47.465 19.357h2.707v-14.273h-2.707zm13.775.769-6.074-15.042h2.913l3.152 8.47h.043l3.257-8.47h2.91l-6.156 15.042zm13.935-12.631v3.15h4.302v2.419h-4.302v3.864h4.476v2.428h-7.187v-14.272h7.187v2.41zm14.325 4.127h-1.084v-5.072h.597c1.876 0 3.777.161 3.777 2.504 0 2.026-1.512 2.567-3.29 2.567m3.269-5.788c-1.06-.722-2.34-.75-3.588-.75h-2.368v14.263h1.603v-6.245h1.17c1.216 0 2.454-.156 3.436-.958.899-.724 1.379-1.897 1.379-3.068 0-1.26-.557-2.506-1.632-3.242m7.284-.749h7.49v1.468h-5.88v4.235h5.713v1.473h-5.713v5.623h5.88v1.464h-7.49zm15.345 6.591v-5.123h.473c1.94 0 3.686.226 3.686 2.577 0 2.212-1.843 2.546-3.664 2.546zm2.137 1.27c2.232-.188 3.626-1.738 3.626-3.931 0-3.223-2.55-3.93-5.29-3.93h-2.08v14.263h1.607v-6.263h.402l4.362 6.263h1.977zm16.553-5.087c-.579-.992-1.257-1.554-2.487-1.554-1.284 0-2.399.91-2.399 2.21 0 1.232 1.276 1.8 2.265 2.242l.948.41c1.886.824 3.478 1.733 3.478 4.018 0 2.504-2.033 4.414-4.557 4.414-2.31 0-4.025-1.489-4.495-3.693l1.573-.433c.205 1.45 1.334 2.637 2.893 2.637 1.554 0 2.965-1.158 2.965-2.774 0-1.665-1.315-2.234-2.654-2.838l-.886-.386c-1.684-.76-3.14-1.612-3.14-3.65 0-2.21 1.902-3.625 4.04-3.625 1.613 0 2.968.802 3.742 2.21zm14.25 10.252c-3.276 0-5.921-2.678-5.921-5.902a5.895 5.895 0 0 1 5.921-5.904 5.903 5.903 0 0 1 5.921 5.904c0 3.224-2.641 5.901-5.92 5.901m0-13.273c-4.122 0-7.531 3.298-7.531 7.392 0 4.108 3.41 7.37 7.53 7.37 4.117 0 7.527-3.262 7.527-7.37 0-4.094-3.41-7.392-7.527-7.392m13.763-.366 11.263 11.658v-11.044h1.62v14.912l-11.281-11.644v10.995h-1.6z" mask="url(#b)"/></g></g></svg>