<svg height="23" viewBox="0 0 24 23" width="24" xmlns="http://www.w3.org/2000/svg"><g fill="none" stroke="#f2f1f2"><g stroke-linecap="round" stroke-linejoin="round"><path d="m13.396 8.734.67-.691 3.143 3.143-.82.844m-4.657 4.799-4.021 4.144c-1.044-.051-1.824-.335-2.34-.851s-.783-1.28-.803-2.292l4.027-4.149m7.285-4.411 4.123-4.55"/><path d="m21.953 1.22 1.238 1.217-1.763 2.951-1.635-.397-.546-1.706z" fill="#f2f1f2"/></g><path d="m.667 3.639a4.16 4.16 0 0 0 -.167 1.17c0 2.376 2.002 4.31 4.48 4.31.393 0 .778-.049 1.15-.143l.275-.07 11.736 11.734 2.423-2.423-11.533-11.532.125-.308a4.152 4.152 0 0 0 .306-1.568c0-2.376-2.003-4.309-4.482-4.309-.407 0-.806.052-1.19.153l2.772 2.772-3.054 3.055-2.84-2.84z"/></g></svg>