<svg xmlns="http://www.w3.org/2000/svg" width="24" height="23" viewBox="0 0 24 23">
    <g fill="none" fill-rule="nonzero" stroke="#F2F1F2">
        <g stroke-linecap="round" stroke-linejoin="round">
            <path d="M13.396 8.734l.67-.691 3.143 3.143-.82.844m-4.657 4.799l-4.021 4.144c-1.044-.051-1.824-.335-2.34-.851-.516-.516-.783-1.28-.803-2.292l4.027-4.149M15.88 9.27l4.123-4.55"/>
            <path fill="#F2F1F2" d="M21.953 1.22l1.238 1.217-1.763 2.951-1.635-.397-.546-1.706z"/>
        </g>
        <path d="M.667 3.639A4.16 4.16 0 0 0 .5 4.809c0 2.376 2.002 4.31 4.48 4.31.393 0 .778-.049 1.15-.143l.275-.07L18.141 20.64l2.423-2.423L9.031 6.685l.125-.308a4.152 4.152 0 0 0 .306-1.568C9.462 2.433 7.459.5 4.98.5c-.407 0-.806.052-1.19.153l2.772 2.772L3.508 6.48.668 3.64z"/>
    </g>
</svg>
