<svg height="24" viewBox="0 0 24 24" width="24" xmlns="http://www.w3.org/2000/svg"><g fill="none" stroke="#f2f1f2" stroke-linecap="round" stroke-linejoin="round" stroke-width="2" transform="translate(1 1)"><path d="m17.81 6.8c.417.674.736 1.414.938 2.2h3.252v4h-3.252a7.955 7.955 0 0 1 -.938 2.2l2.412 2.41-2.611 2.612-2.411-2.412a7.955 7.955 0 0 1 -2.2.938v3.252h-4v-3.252a7.952 7.952 0 0 1 -2.061-.854l-2.329 2.328-2.61-2.612 2.275-2.276a7.958 7.958 0 0 1 -1.023-2.334h-3.252v-4h3.252a7.955 7.955 0 0 1 .938-2.2l-1.98-1.98 2.61-2.61 1.98 1.98a7.955 7.955 0 0 1 2.2-.938v-3.252h4v3.252a7.955 7.955 0 0 1 2.2.938l1.98-1.98 2.61 2.61z"/><circle cx="11" cy="11" r="3"/></g></svg>