<svg height="24" viewBox="0 0 24 24" width="24" xmlns="http://www.w3.org/2000/svg"><g fill="none"><path d="m13 16.983-7.278-13.983h-3.568c-.654 0-1.154.465-1.154 1v18c0 .535.5 1 1.154 1h9.692c.654 0 1.154-.465 1.154-1z" stroke="#f2f1f2" stroke-width="2"/><circle cx="7" cy="19" fill="#f2f1f2" r="1"/><path d="m11 12.7v-10.581c0-.619.456-1.119 1.018-1.119h9.963c.562 0 1.019.501 1.019 1.119v7.448c0 .618-.457 1.119-1.019 1.119-2.304 0-7.77-.002-8.473 0a.467.467 0 0 0 -.224.059l-1.944 2.245c-.172.047-.34-.096-.34-.291z" stroke="#f2f1f2" stroke-linecap="round" stroke-linejoin="round" stroke-width="2"/></g></svg>