<svg width="21" height="21" viewBox="0 0 21 21" fill="none" xmlns="http://www.w3.org/2000/svg">
<g clip-path="url(#clip0)">
<path fill-rule="evenodd" clip-rule="evenodd" d="M13.7493 2.87427C16.4446 5.5696 16.7208 9.76801 14.5778 12.7714C14.6044 12.794 14.6304 12.8179 14.6555 12.843L18.2805 16.468C18.781 16.9685 18.781 17.78 18.2805 18.2805C17.78 18.781 16.9685 18.781 16.468 18.2805L12.843 14.6555C12.8179 14.6304 12.794 14.6044 12.7714 14.5778C9.76801 16.7208 5.56961 16.4446 2.87427 13.7493C-0.128781 10.7462 -0.128781 5.87732 2.87427 2.87427C5.87732 -0.128781 10.7462 -0.128781 13.7493 2.87427ZM11.937 11.9368C13.939 9.93474 13.939 6.6888 11.937 4.68677C9.93497 2.68474 6.68904 2.68474 4.68701 4.68677C2.68497 6.6888 2.68497 9.93474 4.68701 11.9368C6.68904 13.9388 9.93497 13.9388 11.937 11.9368Z" fill="#A39C96"/>
</g>
<defs>
<clipPath id="clip0">
<path d="M0 0H20.5061V20.5061H0V0Z" fill="white"/>
</clipPath>
</defs>
</svg>
