<svg height="23" viewBox="0 0 23 23" width="23" xmlns="http://www.w3.org/2000/svg"><g fill="none" stroke="#f2f1f2"><path d="m9.769.5c-2.306 0-4.177 1.88-4.177 4.201 0 2.32 1.871 4.202 4.177 4.202s4.176-1.88 4.176-4.202c0-2.32-1.87-4.201-4.175-4.201z"/><path d="m10.419 18.218h-9.419c0-4.849 3.946-8.815 8.768-8.815 1.69 0 3.271.486 4.613 1.327" stroke-linecap="round" stroke-linejoin="round"/><path d="m17.87 11.681c-1.295 1.035-2.756 1.605-4.37 1.701v5.895c.523 1.02 1.382 1.85 2.438 2.464.787.459 1.658.759 1.965.759.321 0 1.229-.296 2.046-.75 1.102-.613 2-1.445 2.551-2.476v-2.384-.668-2.835c-1.95-.082-3.5-.647-4.63-1.706z"/></g></svg>