<svg xmlns="http://www.w3.org/2000/svg" width="23" height="23" viewBox="0 0 23 23">
    <g fill="none" fill-rule="nonzero" stroke="#F2F1F2">
        <path d="M9.769.5C7.463.5 5.592 2.38 5.592 4.701c0 2.32 1.871 4.202 4.177 4.202 2.306 0 4.176-1.88 4.176-4.202C13.945 2.381 12.075.5 9.77.5z"/>
        <path stroke-linecap="round" stroke-linejoin="round" d="M10.419 18.218H1c0-4.849 3.946-8.815 8.768-8.815 1.69 0 3.271.486 4.613 1.327"/>
        <path d="M17.87 11.681c-1.295 1.035-2.756 1.605-4.37 1.701v5.895c.523 1.02 1.382 1.85 2.438 2.464.787.459 1.658.759 1.965.759.321 0 1.229-.296 2.046-.75 1.102-.613 2-1.445 2.551-2.476V16.89v-.668-2.835c-1.95-.082-3.5-.647-4.63-1.706z"/>
    </g>
</svg>
