<svg enable-background="new 0 0 23 23" viewBox="0 0 23 23" xmlns="http://www.w3.org/2000/svg"><g style="fill:none;stroke:#fff;stroke-width:.75;stroke-linecap:round;stroke-linejoin:round;stroke-miterlimit:10"><path d="m13 13.6c0 .7-.5 1.2-1.2 1.2s-1.2-.5-1.2-1.2.5-1.2 1.2-1.2 1.2.6 1.2 1.2z"/><path d="m12.9 13.2 5.4-1.8"/><path d="m8.7 14.6 1.9-.6"/><path d="m15.8 6.1 1-1.7"/><path d="m18.9 9.3 1.8-1"/><path d="m2.3 18.9 1.8-1"/><path d="m20.1 13.6h2"/><path d="m.9 13.6h2"/><path d="m18.9 17.9 1.8 1"/><path d="m2.3 8.3 1.8 1"/><path d="m6.2 4.4 1 1.7"/><path d="m11.5 2.9v2.1"/><path d="m2.3 18.9c-.9-1.6-1.4-3.4-1.4-5.3 0-5.9 4.8-10.6 10.6-10.6s10.6 4.8 10.6 10.6c0 1.9-.5 3.8-1.4 5.3"/><path d="m5.5 18.9h12"/></g></svg>