<?xml version="1.0" encoding="utf-8"?>
<!-- Generator: Adobe Illustrator 23.0.2, SVG Export Plug-In . SVG Version: 6.00 Build 0)  -->
<svg version="1.1" id="Layer_1" xmlns="http://www.w3.org/2000/svg" xmlns:xlink="http://www.w3.org/1999/xlink" x="0px" y="0px"
	 viewBox="0 0 23 23" style="enable-background:new 0 0 23 23;" xml:space="preserve">
<style type="text/css">
	.st0{display:none;}
	.st1{display:inline;}
	.st2{fill:none;stroke:#fff;}
	.st3{fill:none;stroke:#fff;stroke-width:0.75;stroke-linecap:round;stroke-linejoin:round;stroke-miterlimit:10;}
</style>
<g class="st0">
	<g class="st1">
		<g>
			<path class="st2" d="M11.2,0.7C8.4,2.8,5.3,3.9,1.8,4.1V16c1.1,2.1,3,3.7,5.3,5c1.7,0.9,3.6,1.5,4.2,1.5c0.7,0,2.7-0.6,4.4-1.5
				c2.4-1.2,4.3-2.9,5.5-5v-4.8V9.8V4.1C17,4,13.7,2.8,11.2,0.7z"/>
		</g>
		<polyline class="st2" points="6,14.4 9.8,16.9 16.9,7 		"/>
	</g>
	<g class="st1">
		<path class="st3" d="M11.8,0.5C9.3,2.6,6.2,3.7,2.5,4.1v3.7c0,6.7,3.7,12.6,9.2,14.7l0,0l0,0c5.5-2.1,9.2-8,9.2-14.7V4.1
			C17.4,3.7,14.2,2.6,11.8,0.5z"/>
		<line class="st3" x1="7.6" y1="11.7" x2="11.3" y2="15.4"/>
		<line class="st3" x1="16.8" y1="7.1" x2="11.3" y2="15.4"/>
	</g>
</g>
<g>
	<g>
		<g>
			<path class="st3" d="M13,13.6c0,0.7-0.5,1.2-1.2,1.2s-1.2-0.5-1.2-1.2s0.5-1.2,1.2-1.2S13,13,13,13.6z"/>
			<line class="st3" x1="12.9" y1="13.2" x2="18.3" y2="11.4"/>
			<line class="st3" x1="8.7" y1="14.6" x2="10.6" y2="14"/>
		</g>
		<line class="st3" x1="15.8" y1="6.1" x2="16.8" y2="4.4"/>
		<line class="st3" x1="18.9" y1="9.3" x2="20.7" y2="8.3"/>
		<line class="st3" x1="2.3" y1="18.9" x2="4.1" y2="17.9"/>
		<line class="st3" x1="20.1" y1="13.6" x2="22.1" y2="13.6"/>
		<line class="st3" x1="0.9" y1="13.6" x2="2.9" y2="13.6"/>
		<line class="st3" x1="18.9" y1="17.9" x2="20.7" y2="18.9"/>
		<line class="st3" x1="2.3" y1="8.3" x2="4.1" y2="9.3"/>
		<line class="st3" x1="6.2" y1="4.4" x2="7.2" y2="6.1"/>
		<line class="st3" x1="11.5" y1="2.9" x2="11.5" y2="5"/>
		<path class="st3" d="M2.3,18.9c-0.9-1.6-1.4-3.4-1.4-5.3C0.9,7.7,5.7,3,11.5,3s10.6,4.8,10.6,10.6c0,1.9-0.5,3.8-1.4,5.3"/>
	</g>
</g>
<line class="st3" x1="5.5" y1="18.9" x2="17.5" y2="18.9"/>
</svg>
