<svg xmlns="http://www.w3.org/2000/svg" xmlns:xlink="http://www.w3.org/1999/xlink" width="495" height="148" fill="none" viewBox="0 0 495 148">
    <mask id="prefix__a" width="495" height="148" x="0" y="0" maskUnits="userSpaceOnUse">
        <rect width="495" height="148" fill="url(#prefix__paint0_linear)" rx="8" transform="matrix(1 0 0 -1 0 148)"/>
    </mask>
    <g mask="url(#prefix__a)">
        <rect width="493" height="193.499" x="1" y="-24" fill="url(#prefix__pattern0)" rx="8"/>
        <rect width="495" height="148" fill="url(#prefix__paint1_linear)" fill-opacity=".92" rx="8" transform="matrix(1 0 0 -1 0 148)"/>
        <g filter="url(#prefix__filter0_d)">
            <path fill="#fff" fill-rule="evenodd" d="M431 96.165c13.255 0 24-10.772 24-24.062 0-13.289-10.745-24.061-24-24.061s-24 10.772-24 24.061c0 13.29 10.745 24.063 24 24.063zm7.941-21.58c1.04-.8 1.04-2.369 0-3.17l-8.221-6.328c-1.315-1.013-3.22-.075-3.22 1.585v12.657c0 1.66 1.905 2.597 3.22 1.585l8.221-6.329z" clip-rule="evenodd"/>
        </g>
        <g filter="url(#prefix__filter1_d)">
            <path fill="#fff" d="M49.875 63.719l1.531-8.094h2.336L51.22 67h-2.36l-1.851-7.61L45.156 67h-2.36l-2.523-11.375h2.336l1.54 8.078 1.874-8.078h1.985l1.867 8.094zM59.66 67c-.104-.203-.18-.456-.227-.758-.546.61-1.257.914-2.132.914-.829 0-1.516-.24-2.063-.719-.541-.479-.812-1.083-.812-1.812 0-.896.33-1.583.992-2.063.666-.479 1.627-.72 2.883-.726h1.039v-.484c0-.391-.102-.704-.305-.938-.198-.234-.513-.352-.945-.352-.38 0-.68.092-.899.274-.213.182-.32.432-.32.75h-2.258c0-.49.151-.943.453-1.36.302-.416.73-.742 1.281-.976.553-.24 1.172-.36 1.86-.36 1.041 0 1.867.264 2.476.79.615.52.922 1.255.922 2.203v3.664c.006.802.117 1.409.336 1.82V67H59.66zm-1.867-1.57c.333 0 .64-.073.922-.22.28-.15.49-.35.625-.6v-1.454h-.844c-1.13 0-1.732.39-1.805 1.172l-.008.133c0 .281.1.513.297.695.198.182.47.274.813.274zm8.41-8.961v2.078h1.445v1.656h-1.445v4.219c0 .312.06.536.18.672.12.135.349.203.687.203.25 0 .471-.018.664-.055v1.711c-.443.135-.898.203-1.367.203-1.584 0-2.39-.8-2.422-2.398v-4.555h-1.234v-1.656h1.234v-2.078h2.258zm6.379 8.867c.416 0 .755-.115 1.015-.344.26-.229.396-.534.406-.914h2.118c-.006.573-.162 1.1-.47 1.578-.306.474-.728.844-1.265 1.11-.531.26-1.12.39-1.765.39-1.209 0-2.162-.383-2.86-1.148-.698-.771-1.047-1.834-1.047-3.188v-.148c0-1.302.347-2.341 1.04-3.117.692-.776 1.643-1.164 2.851-1.164 1.057 0 1.904.302 2.54.906.64.599.965 1.398.976 2.398h-2.118c-.01-.437-.145-.791-.406-1.062-.26-.276-.604-.414-1.031-.414-.526 0-.925.192-1.195.578-.266.38-.399 1-.399 1.86v.234c0 .87.133 1.494.399 1.875.265.38.669.57 1.21.57zm7.19-5.867c.6-.719 1.352-1.078 2.259-1.078 1.833 0 2.763 1.065 2.789 3.195V67h-2.258v-5.352c0-.484-.104-.84-.313-1.07-.208-.234-.554-.351-1.039-.351-.661 0-1.14.255-1.437.765V67h-2.258V55h2.258v4.469zM95.727 67c-.105-.203-.18-.456-.227-.758-.547.61-1.258.914-2.133.914-.828 0-1.515-.24-2.062-.719-.542-.479-.813-1.083-.813-1.812 0-.896.331-1.583.992-2.063.667-.479 1.628-.72 2.883-.726h1.04v-.484c0-.391-.102-.704-.305-.938-.198-.234-.513-.352-.946-.352-.38 0-.68.092-.898.274-.214.182-.32.432-.32.75h-2.258c0-.49.15-.943.453-1.36.302-.416.729-.742 1.281-.976.552-.24 1.172-.36 1.86-.36 1.041 0 1.867.264 2.476.79.615.52.922 1.255.922 2.203v3.664c.005.802.117 1.409.336 1.82V67h-2.281zm-1.868-1.57c.334 0 .641-.073.922-.22.282-.15.49-.35.625-.6v-1.454h-.843c-1.13 0-1.732.39-1.805 1.172l-.008.133c0 .281.099.513.297.695.198.182.469.274.812.274zm9.5-2.735c0-1.328.294-2.377.883-3.148.594-.771 1.406-1.156 2.437-1.156.907 0 1.628.346 2.164 1.039l.149-.883h1.984V70.25h-2.265v-3.977c-.521.589-1.203.883-2.047.883-1.005 0-1.807-.39-2.406-1.172-.599-.78-.899-1.877-.899-3.289zm2.258.164c0 .808.141 1.422.422 1.844.286.422.687.633 1.203.633.693 0 1.182-.276 1.469-.828v-3.492c-.282-.532-.766-.797-1.453-.797-.521 0-.925.21-1.211.633-.287.421-.43 1.09-.43 2.007zm12.363 3.282c-.557.677-1.328 1.015-2.312 1.015-.907 0-1.599-.26-2.079-.781-.474-.52-.716-1.284-.726-2.29v-5.538h2.258v5.46c0 .881.401 1.321 1.203 1.321.765 0 1.291-.266 1.578-.797v-5.984h2.266V67h-2.125l-.063-.86zm6.433.859h-2.265v-8.453h2.265V67zm-2.398-10.64c0-.34.112-.618.336-.837.229-.218.539-.328.93-.328.385 0 .692.11.922.328.229.22.343.498.343.836 0 .344-.117.625-.351.844-.229.219-.534.328-.914.328-.381 0-.688-.11-.922-.328-.229-.219-.344-.5-.344-.844zm7.941 8.976c.417 0 .756-.115 1.016-.344.26-.229.396-.534.406-.914h2.117c-.005.573-.161 1.1-.468 1.578-.308.474-.73.844-1.266 1.11-.531.26-1.12.39-1.766.39-1.208 0-2.161-.383-2.859-1.148-.698-.771-1.047-1.834-1.047-3.188v-.148c0-1.302.346-2.341 1.039-3.117.693-.776 1.643-1.164 2.852-1.164 1.057 0 1.903.302 2.539.906.64.599.966 1.398.976 2.398h-2.117c-.01-.437-.146-.791-.406-1.062-.26-.276-.604-.414-1.031-.414-.526 0-.925.192-1.196.578-.265.38-.398 1-.398 1.86v.234c0 .87.133 1.494.398 1.875.266.38.67.57 1.211.57zm8.059-1.727l-.813.813V67h-2.258V55h2.258v6.648l.438-.562 2.164-2.54h2.711l-3.055 3.524 3.32 4.93h-2.593l-2.172-3.39zm17.39-.757c0 1.302-.297 2.346-.891 3.132-.588.782-1.385 1.172-2.39 1.172-.854 0-1.544-.297-2.071-.89v3.984h-2.257V58.547h2.093l.079.828c.546-.656 1.26-.984 2.14-.984 1.042 0 1.852.385 2.43 1.156.578.77.867 1.833.867 3.187v.118zm-2.258-.164c0-.787-.14-1.394-.422-1.82-.276-.428-.679-.641-1.211-.641-.708 0-1.195.27-1.461.812V64.5c.277.557.769.836 1.477.836 1.078 0 1.617-.883 1.617-2.648zm8.574-2.024c-.307-.042-.578-.062-.812-.062-.854 0-1.414.289-1.68.867V67h-2.258v-8.453h2.133l.063 1.008c.453-.776 1.08-1.164 1.882-1.164.25 0 .485.034.704.101l-.032 2.172zm.621 2.031c0-.838.162-1.586.485-2.242.323-.656.786-1.164 1.39-1.523.61-.36 1.315-.54 2.117-.54 1.141 0 2.071.35 2.789 1.047.724.698 1.128 1.646 1.211 2.844l.016.578c0 1.297-.362 2.339-1.086 3.125-.724.782-1.695 1.172-2.914 1.172s-2.193-.39-2.922-1.172c-.724-.78-1.086-1.843-1.086-3.187v-.102zm2.258.164c0 .802.151 1.417.453 1.844.302.422.735.633 1.297.633.547 0 .974-.208 1.281-.625.308-.422.461-1.094.461-2.016 0-.786-.153-1.395-.461-1.828-.307-.432-.739-.648-1.297-.648-.552 0-.979.216-1.281.648-.302.427-.453 1.091-.453 1.992zm6.949-.148c0-1.318.294-2.367.883-3.148.594-.782 1.404-1.172 2.43-1.172.823 0 1.502.307 2.039.922V55h2.265v12h-2.039l-.109-.898c-.563.703-1.287 1.054-2.172 1.054-.995 0-1.794-.39-2.398-1.172-.599-.786-.899-1.877-.899-3.273zm2.258.164c0 .792.138 1.398.414 1.82.276.422.677.633 1.203.633.698 0 1.19-.294 1.477-.883V61.11c-.282-.588-.769-.882-1.461-.882-1.089 0-1.633.882-1.633 2.648zm12.332 3.266c-.557.677-1.328 1.015-2.313 1.015-.906 0-1.599-.26-2.078-.781-.474-.52-.716-1.284-.726-2.29v-5.538h2.257v5.46c0 .881.401 1.321 1.204 1.321.765 0 1.291-.266 1.578-.797v-5.984h2.265V67H186.2l-.062-.86zm7.566-.805c.417 0 .755-.115 1.016-.344.26-.229.396-.534.406-.914h2.117c-.005.573-.161 1.1-.469 1.578-.307.474-.729.844-1.265 1.11-.532.26-1.12.39-1.766.39-1.208 0-2.161-.383-2.859-1.148-.698-.771-1.047-1.834-1.047-3.188v-.148c0-1.302.346-2.341 1.039-3.117.693-.776 1.643-1.164 2.851-1.164 1.058 0 1.904.302 2.54.906.64.599.966 1.398.976 2.398h-2.117c-.01-.437-.146-.791-.406-1.062-.261-.276-.604-.414-1.032-.414-.526 0-.924.192-1.195.578-.266.38-.398 1-.398 1.86v.234c0 .87.132 1.494.398 1.875.266.38.669.57 1.211.57zm7.691-8.867v2.078h1.446v1.656h-1.446v4.219c0 .312.06.536.18.672.12.135.349.203.687.203.25 0 .472-.018.665-.055v1.711c-.443.135-.899.203-1.368.203-1.583 0-2.39-.8-2.422-2.398v-4.555h-1.234v-1.656h1.234v-2.078h2.258zm6.656 6.226c0-.838.162-1.586.485-2.242.323-.656.786-1.164 1.39-1.523.61-.36 1.315-.54 2.117-.54 1.141 0 2.071.35 2.79 1.047.723.698 1.127 1.646 1.21 2.844l.016.578c0 1.297-.362 2.339-1.086 3.125-.724.782-1.695 1.172-2.914 1.172s-2.193-.39-2.922-1.172c-.724-.78-1.086-1.843-1.086-3.187v-.102zm2.258.164c0 .802.151 1.417.453 1.844.302.422.735.633 1.297.633.547 0 .974-.208 1.281-.625.308-.422.461-1.094.461-2.016 0-.786-.153-1.395-.461-1.828-.307-.432-.739-.648-1.297-.648-.552 0-.979.216-1.281.648-.302.427-.453 1.091-.453 1.992zm10.34 1.383l1.57-5.695h2.359L221.727 67h-2.156l-2.852-8.453h2.359l1.571 5.695zm8.871 2.914c-1.24 0-2.25-.38-3.032-1.14-.776-.76-1.164-1.774-1.164-3.04v-.218c0-.85.164-1.607.493-2.274.328-.672.791-1.187 1.39-1.547.604-.364 1.292-.546 2.063-.546 1.156 0 2.065.364 2.726 1.093.667.73 1 1.763 1 3.102v.922h-5.383c.073.552.292.995.657 1.328.369.333.836.5 1.398.5.87 0 1.55-.315 2.039-.945l1.11 1.242c-.339.479-.797.854-1.375 1.125-.579.265-1.219.398-1.922.398zm-.258-6.937c-.448 0-.813.15-1.094.453-.276.302-.453.734-.531 1.297h3.14v-.18c-.01-.5-.145-.885-.406-1.156-.26-.276-.63-.414-1.109-.414zm9.933.445c-.307-.042-.578-.062-.812-.062-.854 0-1.414.289-1.68.867V67h-2.258v-8.453h2.133l.063 1.008c.453-.776 1.08-1.164 1.882-1.164.25 0 .485.034.704.101l-.032 2.172zm4.559 3.578l1.57-5.695h2.359L244.832 67h-2.156l-2.852-8.453h2.359l1.571 5.695zM251.226 67h-2.265v-8.453h2.265V67zm-2.398-10.64c0-.34.112-.618.336-.837.229-.218.539-.328.929-.328.386 0 .693.11.922.328.229.22.344.498.344.836 0 .344-.117.625-.351.844-.23.219-.534.328-.915.328-.38 0-.687-.11-.921-.328-.23-.219-.344-.5-.344-.844zm8.316 10.796c-1.24 0-2.25-.38-3.031-1.14-.776-.76-1.164-1.774-1.164-3.04v-.218c0-.85.164-1.607.492-2.274.328-.672.792-1.187 1.391-1.547.604-.364 1.291-.546 2.062-.546 1.156 0 2.065.364 2.727 1.093.666.73 1 1.763 1 3.102v.922h-5.383c.073.552.291.995.656 1.328.37.333.836.5 1.398.5.87 0 1.55-.315 2.04-.945l1.109 1.242c-.339.479-.797.854-1.375 1.125-.578.265-1.219.398-1.922.398zm-.258-6.937c-.448 0-.812.15-1.094.453-.276.302-.453.734-.531 1.297h3.141v-.18c-.011-.5-.146-.885-.406-1.156-.261-.276-.631-.414-1.11-.414zm12.535 3.71l1.11-5.382h2.179L270.554 67h-1.891l-1.601-5.32L265.46 67h-1.883l-2.156-8.453h2.18l1.101 5.375 1.547-5.375h1.633l1.539 5.383zm8.367-1.234c0-.838.162-1.586.485-2.242.322-.656.786-1.164 1.39-1.523.61-.36 1.315-.54 2.117-.54 1.141 0 2.071.35 2.789 1.047.724.698 1.128 1.646 1.211 2.844l.016.578c0 1.297-.362 2.339-1.086 3.125-.724.782-1.695 1.172-2.914 1.172s-2.193-.39-2.922-1.172c-.724-.78-1.086-1.843-1.086-3.187v-.102zm2.258.164c0 .802.151 1.417.453 1.844.302.422.734.633 1.297.633.547 0 .974-.208 1.281-.625.307-.422.461-1.094.461-2.016 0-.786-.154-1.395-.461-1.828-.307-.432-.739-.648-1.297-.648-.552 0-.979.216-1.281.648-.302.427-.453 1.091-.453 1.992zM287.964 67v-6.797h-1.258v-1.656h1.258v-.719c0-.948.271-1.682.812-2.203.547-.526 1.31-.79 2.289-.79.313 0 .696.053 1.149.157l-.024 1.75c-.187-.047-.416-.07-.687-.07-.849 0-1.274.398-1.274 1.195v.68h1.68v1.656h-1.68V67h-2.265zM43.359 89.117h4.977V91h-7.32V79.625h2.343v9.492zM52.082 91h-2.266v-8.453h2.266V91zm-2.399-10.64c0-.34.112-.618.336-.837.23-.218.54-.328.93-.328.386 0 .693.11.922.328.23.22.344.498.344.836 0 .344-.118.625-.352.844-.229.219-.534.328-.914.328s-.687-.11-.922-.328c-.229-.219-.344-.5-.344-.844zm7.59 7.882l1.57-5.695h2.36L58.35 91h-2.156l-2.852-8.453h2.36l1.57 5.695zm8.871 2.914c-1.24 0-2.25-.38-3.031-1.14-.776-.76-1.164-1.774-1.164-3.04v-.218c0-.85.164-1.607.492-2.274.328-.671.792-1.187 1.39-1.546.605-.365 1.292-.547 2.063-.547 1.156 0 2.065.364 2.727 1.093.666.73 1 1.763 1 3.102v.922h-5.383c.073.552.291.995.656 1.328.37.333.836.5 1.398.5.87 0 1.55-.315 2.04-.945l1.109 1.242c-.339.479-.797.854-1.375 1.125-.578.265-1.219.398-1.922.398zm-.258-6.937c-.448 0-.812.15-1.093.453-.277.302-.454.734-.532 1.297h3.14v-.18c-.01-.5-.145-.885-.405-1.156-.26-.276-.63-.414-1.11-.414zm7.676 2.773V91h-2.344V79.625h4.438c.854 0 1.604.156 2.25.469.65.312 1.15.758 1.5 1.336.349.573.523 1.226.523 1.96 0 1.115-.383 1.995-1.148 2.641-.76.64-1.816.961-3.164.961h-2.055zm0-1.898h2.094c.62 0 1.09-.146 1.414-.438.328-.291.492-.708.492-1.25 0-.557-.164-1.008-.492-1.351-.328-.344-.782-.521-1.36-.532h-2.148v3.57zm11.777 6.062c-1.24 0-2.25-.38-3.031-1.14-.776-.76-1.164-1.774-1.164-3.04v-.218c0-.85.164-1.607.492-2.274.328-.671.792-1.187 1.39-1.546.605-.365 1.292-.547 2.063-.547 1.156 0 2.065.364 2.727 1.093.666.73 1 1.763 1 3.102v.922h-5.383c.073.552.291.995.656 1.328.37.333.836.5 1.398.5.87 0 1.55-.315 2.04-.945l1.109 1.242c-.339.479-.797.854-1.375 1.125-.578.265-1.219.398-1.922.398zm-.258-6.937c-.448 0-.812.15-1.094.453-.275.302-.453.734-.53 1.297h3.14v-.18c-.01-.5-.146-.885-.406-1.156-.26-.276-.63-.414-1.11-.414zm9.934.445c-.308-.042-.578-.062-.813-.062-.854 0-1.414.289-1.68.867V91h-2.257v-8.453h2.132l.063 1.008c.453-.776 1.08-1.164 1.883-1.164.25 0 .484.033.703.101l-.031 2.172zm5.832 4c0-.276-.138-.492-.415-.648-.27-.162-.708-.305-1.312-.43-2.01-.422-3.016-1.276-3.016-2.563 0-.75.31-1.375.93-1.875.625-.505 1.44-.757 2.445-.757 1.073 0 1.93.252 2.571.757.646.506.968 1.162.968 1.97h-2.257c0-.324-.105-.59-.313-.798-.208-.213-.534-.32-.976-.32-.38 0-.675.086-.883.258-.209.172-.313.39-.313.656 0 .25.117.453.352.61.24.15.64.283 1.203.398.562.11 1.036.234 1.422.375 1.193.437 1.789 1.195 1.789 2.273 0 .771-.331 1.396-.992 1.875-.662.474-1.516.711-2.563.711-.708 0-1.338-.125-1.89-.375-.547-.255-.977-.601-1.29-1.039-.312-.443-.468-.92-.468-1.43h2.14c.021.401.17.709.446.922.276.214.645.32 1.11.32.431 0 .757-.08.976-.242.224-.166.336-.382.336-.648zm3.464-1.969c0-.838.162-1.586.485-2.242.323-.656.786-1.164 1.39-1.523.61-.36 1.315-.54 2.117-.54 1.141 0 2.071.35 2.789 1.047.724.698 1.128 1.646 1.211 2.844l.016.578c0 1.297-.362 2.339-1.086 3.125-.724.782-1.695 1.172-2.914 1.172s-2.193-.39-2.922-1.172c-.724-.78-1.086-1.843-1.086-3.187v-.102zm2.258.164c0 .803.151 1.417.453 1.844.302.422.735.633 1.297.633.547 0 .974-.208 1.281-.625.308-.422.461-1.094.461-2.016 0-.786-.153-1.395-.461-1.828-.307-.432-.739-.648-1.297-.648-.552 0-.979.216-1.281.648-.302.427-.453 1.091-.453 1.992zm9.379-4.312l.07.976c.604-.755 1.414-1.132 2.43-1.132.896 0 1.562.263 2 .789.437.526.661 1.312.672 2.36V91h-2.258v-5.406c0-.48-.104-.826-.313-1.04-.208-.218-.554-.327-1.039-.327-.635 0-1.112.27-1.429.812V91h-2.258v-8.453h2.125zm13.687 4.445V91h-2.344V79.625h4.438c.854 0 1.604.156 2.25.469.651.312 1.151.758 1.5 1.336.349.573.523 1.226.523 1.96 0 1.115-.383 1.995-1.148 2.641-.761.64-1.815.961-3.164.961h-2.055zm0-1.898h2.094c.62 0 1.091-.146 1.414-.438.328-.291.492-.708.492-1.25 0-.557-.164-1.008-.492-1.351-.328-.344-.781-.521-1.36-.532h-2.148v3.57zM140.014 91h-2.266V79h2.266v12zm6.925 0c-.104-.203-.179-.456-.226-.758-.547.61-1.258.914-2.133.914-.828 0-1.516-.24-2.062-.719-.542-.479-.813-1.083-.813-1.812 0-.896.331-1.583.992-2.063.667-.479 1.628-.72 2.883-.726h1.039v-.484c0-.391-.101-.704-.305-.938-.198-.234-.513-.352-.945-.352-.38 0-.68.092-.898.274-.214.182-.321.432-.321.75h-2.257c0-.49.151-.943.453-1.36.302-.416.729-.742 1.281-.976.552-.24 1.172-.36 1.859-.36 1.042 0 1.867.264 2.477.79.614.52.922 1.255.922 2.203v3.664c.005.802.117 1.409.336 1.82V91h-2.282zm-1.867-1.57c.334 0 .641-.073.922-.22.281-.15.49-.35.625-.6v-1.454h-.844c-1.13 0-1.731.39-1.804 1.172l-.008.133c0 .281.099.513.297.695.198.182.468.274.812.274zm8.41-8.961v2.078h1.445v1.656h-1.445v4.219c0 .312.06.536.18.672.12.135.349.203.687.203.25 0 .472-.018.664-.055v1.711c-.442.135-.898.203-1.367.203-1.583 0-2.39-.8-2.422-2.398v-4.555h-1.234v-1.656h1.234v-2.078h2.258zM156.963 91v-6.797h-1.258v-1.656h1.258v-.719c0-.948.27-1.682.812-2.203.547-.526 1.31-.79 2.289-.79.313 0 .695.053 1.149.157l-.024 1.75c-.187-.047-.417-.07-.687-.07-.849 0-1.274.398-1.274 1.195v.68h1.68v1.656h-1.68V91h-2.265zm4.925-4.305c0-.838.162-1.586.484-2.242.323-.656.787-1.164 1.391-1.523.609-.36 1.315-.54 2.117-.54 1.141 0 2.071.35 2.789 1.047.724.698 1.128 1.646 1.211 2.844l.016.578c0 1.297-.362 2.339-1.086 3.125-.724.782-1.695 1.172-2.914 1.172s-2.193-.39-2.922-1.172c-.724-.78-1.086-1.843-1.086-3.187v-.102zm2.258.164c0 .803.151 1.417.453 1.844.302.422.734.633 1.297.633.547 0 .974-.208 1.281-.625.307-.422.461-1.094.461-2.016 0-.786-.154-1.395-.461-1.828-.307-.432-.739-.648-1.297-.648-.552 0-.979.216-1.281.648-.302.427-.453 1.091-.453 1.992zm12.051-2.195c-.308-.042-.579-.062-.813-.062-.854 0-1.414.289-1.68.867V91h-2.257v-8.453h2.132l.063 1.008c.453-.776 1.081-1.164 1.883-1.164.25 0 .484.033.703.101l-.031 2.172zm3.371-2.117l.07.945c.599-.734 1.409-1.101 2.43-1.101 1.088 0 1.835.43 2.242 1.289.593-.86 1.44-1.29 2.539-1.29.916 0 1.599.269 2.047.805.448.532.672 1.334.672 2.407V91h-2.266v-5.39c0-.48-.094-.829-.281-1.047-.188-.225-.519-.336-.993-.336-.677 0-1.145.322-1.406.968L184.63 91h-2.258v-5.383c0-.49-.096-.844-.289-1.062-.193-.22-.521-.328-.984-.328-.641 0-1.104.265-1.391.796V91h-2.258v-8.453h2.118zM200.512 91c-.104-.203-.179-.456-.226-.758-.547.61-1.258.914-2.133.914-.828 0-1.516-.24-2.062-.719-.542-.479-.813-1.083-.813-1.812 0-.896.331-1.583.992-2.063.667-.479 1.628-.72 2.883-.726h1.039v-.484c0-.391-.101-.704-.305-.938-.197-.234-.513-.352-.945-.352-.38 0-.68.092-.898.274-.214.182-.321.432-.321.75h-2.257c0-.49.151-.943.453-1.36.302-.416.729-.742 1.281-.976.552-.24 1.172-.36 1.859-.36 1.042 0 1.868.264 2.477.79.615.52.922 1.255.922 2.203v3.664c.005.802.117 1.409.336 1.82V91h-2.282zm-1.867-1.57c.334 0 .641-.073.922-.22.281-.15.49-.35.625-.6v-1.454h-.844c-1.13 0-1.731.39-1.804 1.172l-.008.133c0 .281.099.513.297.695.198.182.469.274.812.274zm7.785-6.883l.071.976c.604-.755 1.414-1.132 2.429-1.132.896 0 1.563.263 2 .789.438.526.662 1.312.672 2.36V91h-2.258v-5.406c0-.48-.104-.826-.312-1.04-.208-.218-.555-.327-1.039-.327-.636 0-1.112.27-1.43.812V91h-2.258v-8.453h2.125zm6.699 4.164c0-1.318.295-2.367.883-3.148.594-.782 1.404-1.172 2.43-1.172.823 0 1.502.307 2.039.921V79h2.266v12h-2.039l-.11-.898c-.562.703-1.286 1.054-2.172 1.054-.995 0-1.794-.39-2.398-1.172-.599-.786-.899-1.877-.899-3.273zm2.258.164c0 .792.138 1.398.414 1.82.276.422.677.633 1.203.633.698 0 1.19-.294 1.477-.883V85.11c-.281-.588-.768-.882-1.461-.882-1.089 0-1.633.882-1.633 2.648zM229.184 91h-2.266v-8.453h2.266V91zm-2.399-10.64c0-.34.112-.618.336-.837.229-.218.539-.328.93-.328.385 0 .693.11.922.328.229.22.344.498.344.836 0 .344-.118.625-.352.844-.229.219-.534.328-.914.328s-.688-.11-.922-.328c-.229-.219-.344-.5-.344-.844zm7.129.109v2.078h1.445v1.656h-1.445v4.219c0 .312.06.536.18.672.12.135.349.203.687.203.25 0 .472-.018.664-.055v1.711c-.442.135-.898.203-1.367.203-1.583 0-2.39-.8-2.422-2.398v-4.555h-1.234v-1.656h1.234v-2.078h2.258zm7.441 8.195c0-.276-.138-.492-.414-.648-.271-.162-.708-.305-1.312-.43-2.011-.422-3.016-1.276-3.016-2.563 0-.75.31-1.375.93-1.875.625-.505 1.44-.757 2.445-.757 1.073 0 1.93.252 2.57.757.646.506.969 1.162.969 1.97h-2.258c0-.324-.104-.59-.312-.798-.208-.213-.534-.32-.977-.32-.38 0-.674.086-.882.258-.209.172-.313.39-.313.656 0 .25.117.453.352.61.239.15.64.283 1.203.398.562.11 1.036.234 1.422.375 1.192.437 1.789 1.195 1.789 2.273 0 .771-.331 1.396-.993 1.875-.661.474-1.515.711-2.562.711-.708 0-1.339-.125-1.891-.375-.547-.255-.976-.601-1.289-1.039-.312-.443-.468-.92-.468-1.43h2.14c.021.401.169.709.445.922.276.214.646.32 1.11.32.432 0 .758-.08.976-.242.224-.166.336-.382.336-.648zm10.664-8.195v2.078h1.445v1.656h-1.445v4.219c0 .312.06.536.18.672.12.135.349.203.687.203.25 0 .472-.018.664-.055v1.711c-.442.135-.898.203-1.367.203-1.583 0-2.391-.8-2.422-2.398v-4.555h-1.234v-1.656h1.234v-2.078h2.258zm2.277 6.226c0-.838.162-1.586.485-2.242.323-.656.786-1.164 1.39-1.523.61-.36 1.315-.54 2.117-.54 1.141 0 2.071.35 2.789 1.047.724.698 1.128 1.646 1.211 2.844l.016.578c0 1.297-.362 2.339-1.086 3.125-.724.782-1.695 1.172-2.914 1.172s-2.193-.39-2.922-1.172c-.724-.78-1.086-1.843-1.086-3.187v-.102zm2.258.164c0 .803.151 1.417.453 1.844.302.422.735.633 1.297.633.547 0 .974-.208 1.281-.625.308-.422.461-1.094.461-2.016 0-.786-.153-1.395-.461-1.828-.307-.432-.739-.648-1.297-.648-.552 0-.979.216-1.281.648-.302.427-.453 1.091-.453 1.992zm6.949-.164c0-.838.162-1.586.485-2.242.322-.656.786-1.164 1.39-1.523.61-.36 1.315-.54 2.117-.54 1.141 0 2.071.35 2.789 1.047.724.698 1.128 1.646 1.211 2.844l.016.578c0 1.297-.362 2.339-1.086 3.125-.724.782-1.695 1.172-2.914 1.172s-2.193-.39-2.922-1.172c-.724-.78-1.086-1.843-1.086-3.187v-.102zm2.258.164c0 .803.151 1.417.453 1.844.302.422.734.633 1.297.633.547 0 .974-.208 1.281-.625.307-.422.461-1.094.461-2.016 0-.786-.154-1.395-.461-1.828-.307-.432-.739-.648-1.297-.648-.552 0-.979.216-1.281.648-.302.427-.453 1.091-.453 1.992zM275.444 91h-2.265V79h2.265v12zm6.606-2.336c0-.276-.138-.492-.414-.648-.271-.162-.709-.305-1.313-.43-2.01-.422-3.016-1.276-3.016-2.563 0-.75.31-1.375.93-1.875.625-.505 1.44-.757 2.445-.757 1.073 0 1.93.252 2.571.757.646.506.969 1.162.969 1.97h-2.258c0-.324-.104-.59-.313-.798-.208-.213-.534-.32-.976-.32-.381 0-.675.086-.883.258-.208.172-.313.39-.313.656 0 .25.118.453.352.61.24.15.641.283 1.203.398.563.11 1.037.234 1.422.375 1.193.437 1.789 1.195 1.789 2.273 0 .771-.331 1.396-.992 1.875-.662.474-1.516.711-2.563.711-.708 0-1.338-.125-1.89-.375-.547-.255-.977-.601-1.289-1.039-.313-.443-.469-.92-.469-1.43h2.14c.021.401.17.709.446.922.276.214.646.32 1.109.32.432 0 .758-.08.977-.242.224-.166.336-.382.336-.648z"/>
        </g>
    </g>
    <defs>
        <linearGradient id="prefix__paint0_linear" x1="247.5" x2="247.5" y1="0" y2="148" gradientUnits="userSpaceOnUse">
            <stop stop-color="#2D2F52"/>
            <stop offset="1" stop-color="#090C43"/>
        </linearGradient>
        <linearGradient id="prefix__paint1_linear" x1="247.5" x2="247.5" y1="0" y2="148" gradientUnits="userSpaceOnUse">
            <stop stop-color="#2D2F52"/>
            <stop offset="1" stop-color="#090C43"/>
        </linearGradient>
        <filter id="prefix__filter0_d" width="56" height="56.124" x="403" y="44.041" color-interpolation-filters="sRGB" filterUnits="userSpaceOnUse">
            <feFlood flood-opacity="0" result="BackgroundImageFix"/>
            <feColorMatrix in="SourceAlpha" values="0 0 0 0 0 0 0 0 0 0 0 0 0 0 0 0 0 0 127 0"/>
            <feOffset/>
            <feGaussianBlur stdDeviation="2"/>
            <feColorMatrix values="0 0 0 0 0 0 0 0 0 0 0 0 0 0 0 0 0 0 0.3 0"/>
            <feBlend in2="BackgroundImageFix" result="effect1_dropShadow"/>
            <feBlend in="SourceGraphic" in2="effect1_dropShadow" result="shape"/>
        </filter>
        <filter id="prefix__filter1_d" width="259.94" height="44.32" x="36.273" y="50.836" color-interpolation-filters="sRGB" filterUnits="userSpaceOnUse">
            <feFlood flood-opacity="0" result="BackgroundImageFix"/>
            <feColorMatrix in="SourceAlpha" values="0 0 0 0 0 0 0 0 0 0 0 0 0 0 0 0 0 0 127 0"/>
            <feOffset/>
            <feGaussianBlur stdDeviation="2"/>
            <feColorMatrix values="0 0 0 0 0 0 0 0 0 0 0 0 0 0 0 0 0 0 0.3 0"/>
            <feBlend in2="BackgroundImageFix" result="effect1_dropShadow"/>
            <feBlend in="SourceGraphic" in2="effect1_dropShadow" result="shape"/>
        </filter>
        <pattern id="prefix__pattern0" width="1" height="1" patternContentUnits="objectBoundingBox">
            <use transform="matrix(.00067 0 0 .0017 -.002 0)" xlink:href="#prefix__image0"/>
        </pattern>
    </defs>
</svg>
