<svg xmlns="http://www.w3.org/2000/svg" xmlns:xlink="http://www.w3.org/1999/xlink" width="24" height="24" viewBox="0 0 24 24">
    <defs>
        <path id="a" d="M0 0h23.626v23.81H0z"/>
    </defs>
    <g fill="none" fill-rule="evenodd">
        <mask id="b" fill="#fff">
            <use xlink:href="#a"/>
        </mask>
        <path fill="#F2F1F2" d="M12.027 0C5.621 0 .428 5.193.428 11.6a11.549 11.549 0 0 0 1.664 5.99L0 23.809l6.421-2.056a11.549 11.549 0 0 0 5.606 1.445c6.405 0 11.599-5.194 11.599-11.6C23.626 5.194 18.432 0 12.027 0zm0 21.254a9.606 9.606 0 0 1-5.31-1.597L3.01 20.845l1.204-3.585a9.609 9.609 0 0 1-1.84-5.661c0-5.325 4.329-9.655 9.654-9.655s9.654 4.33 9.654 9.655c0 5.325-4.333 9.655-9.654 9.655zm5.437-7.019c-.292-.16-1.72-.927-1.984-1.04-.264-.112-.465-.164-.672.124-.208.288-.8.933-.98 1.124-.18.192-.353.209-.645.048-.292-.16-1.232-.508-2.324-1.56-.853-.816-1.409-1.808-1.569-2.112-.16-.305 0-.456.152-.6.152-.144.309-.336.464-.504.157-.168.209-.288.312-.485.104-.196.065-.368-.004-.52-.068-.152-.603-1.628-.828-2.233-.224-.604-.475-.511-.648-.52-.172-.008-.368-.04-.568-.043a1.088 1.088 0 0 0-.804.34c-.284.284-1.076.972-1.128 2.429-.053 1.455.948 2.916 1.092 3.116.144.2 1.924 3.36 4.89 4.658 2.964 1.296 2.98.903 3.524.871.544-.032 1.776-.652 2.052-1.332s.297-1.276.224-1.4c-.072-.125-.264-.208-.556-.368v.007z" mask="url(#b)"/>
    </g>
</svg>
